<?xml version="1.0" standalone="no"?>
<!DOCTYPE svg PUBLIC "-//W3C//DTD SVG 1.1//EN" "http://www.w3.org/Graphics/SVG/1.1/DTD/svg11.dtd" >
<svg xmlns="http://www.w3.org/2000/svg" xmlns:xlink="http://www.w3.org/1999/xlink" version="1.1">
<metadata>
Created by FontForge 20170731 at Tue Jan 30 12:24:45 2018
 By Aleksey,,,
Copyright (c) 2016 Swiss Typefaces Sa`rl. All rights reserved.
</metadata>
<defs>
<font id="EuclidFA" horiz-adv-x="240" >
  <font-face 
    font-family="Euclid FA"
    font-weight="400"
    font-stretch="normal"
    units-per-em="1000"
    panose-1="2 11 5 0 3 0 0 0 0 0"
    ascent="800"
    descent="-200"
    x-height="500"
    cap-height="710"
    bbox="-200 -230 1589 940"
    underline-thickness="75"
    underline-position="-164"
    unicode-range="U+0020-FB02"
  />
<missing-glyph horiz-adv-x="500" 
d="M0 710h500v-710h-500v710zM19 682v-654l220 327zM481 28v654l-221 -327zM34 19h432l-216 320zM250 370l216 321h-432z" />
    <glyph glyph-name="uni0407_uni0407" unicode="&#x407;&#x407;" horiz-adv-x="550" 
d="M34 904q26 0 44 -17.5t18 -42.5q0 -26 -18 -44t-44 -18q-24 0 -42.5 18t-18.5 44q0 25 18.5 42.5t42.5 17.5zM515 904q26 0 44 -17.5t18 -42.5q0 -26 -18 -44t-44 -18q-25 0 -43 18t-18 44q0 25 18 42.5t43 17.5zM275 904q26 0 44 -17.5t18 -42.5q0 -26 -18 -44t-44 -18
q-25 0 -43 18t-18 44q0 25 18 42.5t43 17.5zM92 710h91v-710h-91v710zM367 710h91v-710h-91v710z" />
    <glyph glyph-name="uni0457_uni0457" unicode="&#x457;&#x457;" horiz-adv-x="479" 
d="M22 690q26 0 43.5 -17t17.5 -42q0 -26 -17.5 -43t-43.5 -17q-24 0 -42 17t-18 43q0 25 18 42t42 17zM457 690q26 0 43 -17t17 -42q0 -26 -17 -43t-43 -17q-25 0 -42.5 17t-17.5 43q0 25 17.5 42t42.5 17zM240 690q26 0 43 -17t17 -42q0 -26 -17 -43t-43 -17
q-25 0 -42.5 17t-17.5 43q0 25 17.5 42t42.5 17zM317 500h86v-500h-86v500zM77 500h86v-500h-86v500z" />
    <glyph glyph-name="f_t" unicode="ft" horiz-adv-x="636" 
d="M194 0h-85v422h-87v78h84q-17 17 -27 39.5t-10 48.5t10.5 48.5t29.5 39t46 25.5t60 9h104v-78h-90q-32 0 -54 -15.5t-22 -47.5q0 -35 21.5 -52t47.5 -17h142v107l86 43v-150h151l-19 -78h-132v-264q0 -38 16 -59t58 -21h67v-78h-76q-72 0 -111.5 36.5t-39.5 108.5v277
h-170v-422z" />
    <glyph glyph-name="t_f" unicode="tf" horiz-adv-x="642" 
d="M0 500h99v107l86 43v-150h206q-17 17 -26.5 39.5t-9.5 48.5t10.5 48.5t29.5 39t46 25.5t60 9h117v-78h-103q-32 0 -54 -15.5t-22 -47.5q0 -35 21 -52t47 -17h111v-78h-139v-422h-85v422h-209v-264q0 -38 16 -59t58 -21h67v-78h-76q-72 0 -111.5 36.5t-39.5 108.5v277h-80
z" />
    <glyph glyph-name="t_t" unicode="tt" horiz-adv-x="648" 
d="M0 500h99v107l86 43v-150h191v107l86 43v-150h151l-19 -78h-132v-264q0 -38 16 -59t58 -21h67v-78h-76q-72 0 -111.5 36.5t-39.5 108.5v277h-191v-264q0 -38 16 -59t58 -21h67v-78h-76q-72 0 -111.5 36.5t-39.5 108.5v277h-80z" />
    <glyph glyph-name=".notdef" horiz-adv-x="500" 
d="M0 710h500v-710h-500v710zM19 682v-654l220 327zM481 28v654l-221 -327zM34 19h432l-216 320zM250 370l216 321h-432z" />
    <glyph glyph-name=".null" horiz-adv-x="0" 
 />
    <glyph glyph-name="nonmarkingreturn" horiz-adv-x="0" 
 />
    <glyph glyph-name="space" unicode=" " horiz-adv-x="252" 
 />
    <glyph glyph-name="exclam" unicode="!" horiz-adv-x="260" 
d="M87 417v293h87v-293l-16 -197h-55zM129 -8q-30 0 -51.5 21.5t-21.5 52.5q0 20 9 36t25 26h80q15 -10 24.5 -26t9.5 -36q0 -31 -21.5 -52.5t-53.5 -21.5z" />
    <glyph glyph-name="quotedbl" unicode="&#x22;" horiz-adv-x="414" 
d="M67 710h78v-245h-78v245zM269 710h78v-245h-78v245z" />
    <glyph glyph-name="numbersign" unicode="#" horiz-adv-x="758" 
d="M419 200h-181l-62 -200h-79l62 200h-115v73h138l54 171h-119v73h142l60 193h79l-60 -193h181l60 193h79l-60 -193h116v-73h-139l-54 -171h121v-73h-144l-62 -200h-79zM261 273h181l54 171h-181z" />
    <glyph glyph-name="dollar" unicode="$" horiz-adv-x="519" 
d="M221 -6q-66 7 -116.5 37t-78.5 71l63 53q25 -34 67.5 -59t96.5 -25q65 0 101.5 30.5t36.5 77.5q0 24 -8.5 42t-24 33t-37.5 28t-50 27l-65 32q-80 39 -116 85.5t-36 113.5q0 36 13.5 65.5t36 52t53 37.5t64.5 20v83h74v-82q50 -7 89.5 -29.5t70.5 -59.5l-59 -55
q-27 32 -59.5 49.5t-78.5 17.5q-52 0 -86 -28t-34 -70q0 -41 26.5 -67.5t82.5 -53.5l65 -32q35 -17 65.5 -36.5t52.5 -43t34.5 -53t12.5 -66.5q0 -39 -12.5 -72t-36 -58.5t-57 -42t-76.5 -21.5v-83h-74v82z" />
    <glyph glyph-name="percent" unicode="%" horiz-adv-x="991" 
d="M224 0l450 710h93l-450 -710h-93zM762 -8q-41 0 -77 15.5t-62.5 42.5t-42 62.5t-15.5 76.5t15.5 77t42 62.5t62.5 42t77 15.5q40 0 76 -15.5t63 -42t42.5 -62.5t15.5 -77t-15.5 -76.5t-42.5 -62.5t-63 -42.5t-76 -15.5zM762 70q24 0 45.5 9.5t37.5 26t25.5 38t9.5 45.5
t-9.5 45.5t-25.5 38t-37.5 26t-45.5 9.5q-25 0 -46.5 -9.5t-37.5 -26t-25 -38t-9 -45.5t9 -45.5t25 -38t37.5 -26t46.5 -9.5zM229 324q-41 0 -77 15.5t-62.5 42.5t-42 62.5t-15.5 76.5t15.5 77t42 62.5t62.5 42t77 15.5q40 0 76 -15.5t63 -42t42.5 -62.5t15.5 -77
t-15.5 -76.5t-42.5 -62.5t-63 -42.5t-76 -15.5zM229 402q24 0 45.5 9.5t37.5 26t25.5 38t9.5 45.5t-9.5 45.5t-25.5 38t-37.5 26t-45.5 9.5q-25 0 -46.5 -9.5t-37.5 -26t-25 -38t-9 -45.5t9 -45.5t25 -38t37.5 -26t46.5 -9.5z" />
    <glyph glyph-name="ampersand" unicode="&#x26;" horiz-adv-x="750" 
d="M289 -10q-49 0 -89.5 15.5t-69 42.5t-44 64.5t-15.5 81.5q0 39 13 69.5t34.5 54.5t48.5 43.5t55 35.5l5 3q-16 15 -31.5 32.5t-27.5 37.5t-19.5 42.5t-7.5 48.5q0 36 14 65.5t38.5 50.5t57.5 33t71 12q39 0 71 -13t55.5 -35.5t36 -52.5t12.5 -64q0 -33 -12 -59.5
t-31.5 -47.5t-44.5 -38t-51 -30l153 -150l106 136l59 -48l-110 -141l184 -179h-111l-122 118q-28 -32 -54 -56t-53.5 -40t-57 -24t-63.5 -8zM292 66q48 0 87.5 26t83.5 79l-180 174l-14 -8q-52 -29 -82.5 -61t-30.5 -83q0 -30 11.5 -53.5t30.5 -40t43.5 -25t50.5 -8.5z
M222 559q0 -36 22.5 -63.5t57.5 -60.5l7 4q21 11 40 22t33.5 24.5t22.5 29.5t8 36q0 42 -25.5 70t-67.5 28q-39 0 -68.5 -24t-29.5 -66z" />
    <glyph glyph-name="quotesingle" unicode="'" horiz-adv-x="212" 
d="M67 710h78v-245h-78v245z" />
    <glyph glyph-name="parenleft" unicode="(" horiz-adv-x="243" 
d="M164 -142q-27 55 -47.5 106t-34 103.5t-20 109.5t-6.5 124t6.5 124t20 109.5t34 103.5t47.5 106l68 -29q-25 -53 -43.5 -103.5t-31 -100.5t-18.5 -102t-6 -108t6 -108t18.5 -102t31 -100.5t43.5 -103.5l-68 -29v0z" />
    <glyph glyph-name="parenright" unicode=")" horiz-adv-x="243" 
d="M79 -142l-68 29q25 53 43.5 103.5t31 100.5t18.5 102t6 108t-6 108t-18.5 102t-31 100.5t-43.5 103.5l68 29q27 -55 47 -106t33.5 -103.5t20.5 -109.5t7 -124t-7 -124t-20.5 -109.5t-33.5 -103.5t-47 -106z" />
    <glyph glyph-name="asterisk" unicode="*" horiz-adv-x="443" 
d="M221 481l-77 -105l-55 38l78 105l-125 42l20 64l126 -42v127h66v-127l127 42l20 -64l-126 -41l78 -106l-53 -39z" />
    <glyph glyph-name="plus" unicode="+" horiz-adv-x="629" 
d="M96 310h183v178h71v-178h183v-70h-183v-182h-71v182h-183v70z" />
    <glyph glyph-name="comma" unicode="," horiz-adv-x="252" 
d="M116 0h-51v123h122v-124l-57 -141h-57z" />
    <glyph glyph-name="hyphen" unicode="-" horiz-adv-x="334" 
d="M46 318h243v-89h-243v89z" />
    <glyph glyph-name="period" unicode="." horiz-adv-x="260" 
d="M130 -8q-30 0 -52 21.5t-22 52.5t22 52.5t52 21.5q31 0 52.5 -21.5t21.5 -52.5t-21.5 -52.5t-52.5 -21.5z" />
    <glyph glyph-name="slash" unicode="/" horiz-adv-x="425" 
d="M344 710h81l-344 -710h-81z" />
    <glyph glyph-name="zero" unicode="0" horiz-adv-x="590" 
d="M296 -8q-55 0 -101 19.5t-79.5 54.5t-52 84.5t-18.5 108.5v192q0 59 18.5 108t52 84.5t79.5 55t101 19.5t101 -19.5t79.5 -55t52.5 -84.5t19 -108v-192q0 -59 -19 -108.5t-52.5 -84.5t-79.5 -54.5t-101 -19.5zM296 71q73 0 119.5 48t46.5 135v202q0 87 -46.5 135
t-119.5 48q-36 0 -66.5 -12.5t-52 -36t-34 -57.5t-12.5 -77v-202q0 -43 12.5 -77t34 -57.5t52 -36t66.5 -12.5z" />
    <glyph glyph-name="one" unicode="1" horiz-adv-x="590" 
d="M120 80h138v550h-87v80h173v-630h138v-80h-362v80z" />
    <glyph glyph-name="two" unicode="2" horiz-adv-x="590" 
d="M58 72l274 266q18 17 34.5 36t30 40t21.5 43.5t8 47.5q0 28 -10.5 52.5t-28.5 42.5t-42.5 28.5t-52.5 10.5q-27 0 -50.5 -9.5t-42.5 -26t-31.5 -39.5t-16.5 -49l-82 18q7 41 27 75t49.5 58.5t67.5 38t82 13.5q46 0 86 -16t68.5 -43.5t45 -66t16.5 -83.5q0 -35 -8.5 -65
t-24.5 -57.5t-39.5 -54.5t-53.5 -56l-203 -196h338v-80h-462v72z" />
    <glyph glyph-name="three" unicode="3" horiz-adv-x="590" 
d="M267 -8q-63 0 -118 29.5t-86 79.5l66 51q18 -34 54 -57.5t83 -23.5q33 0 61 11t49 31t32.5 48.5t11.5 63.5q0 34 -11 63t-32 50t-50.5 33t-65.5 12h-63l143 247h-249v80h382l-149 -258q43 -9 77 -30t57.5 -51t36 -67.5t12.5 -78.5q0 -49 -17.5 -91.5t-49 -74t-76 -49.5
t-98.5 -18z" />
    <glyph glyph-name="four" unicode="4" horiz-adv-x="590" 
d="M394 196h-401l486 522v-442h93v-80h-93v-196h-85v196zM394 276v243l-226 -243h226z" />
    <glyph glyph-name="five" unicode="5" horiz-adv-x="590" 
d="M284 -8q-64 0 -120.5 29.5t-86.5 79.5l67 52q17 -34 54 -58t84 -24q33 0 61 11.5t48 31.5t31.5 48t11.5 61t-11 61.5t-31.5 49.5t-49 33t-64.5 12q-41 0 -68 -18t-43 -37l-59 25v361h358v-80h-272v-193q17 8 40 14t47 6q56 0 100.5 -18.5t75.5 -50t47.5 -74.5t16.5 -91
t-17 -90t-48.5 -73.5t-75 -49.5t-96.5 -18z" />
    <glyph glyph-name="six" unicode="6" horiz-adv-x="590" 
d="M294 -8q-50 0 -92.5 18t-74.5 49.5t-50 73.5t-18 90q0 37 12 70t29 62l212 355h99l-158 -262q7 2 18 4t28 2q47 0 89 -18t73.5 -49.5t50 -73.5t18.5 -90t-18.5 -90t-50 -73.5t-75 -49.5t-92.5 -18zM294 71q33 0 60 12t46.5 32.5t30.5 48t11 59.5q0 31 -11 59t-30.5 48.5
t-46.5 32.5t-60 12t-60 -12t-46.5 -32.5t-30.5 -48.5t-11 -59q0 -32 11 -59.5t30.5 -48t46.5 -32.5t60 -12z" />
    <glyph glyph-name="seven" unicode="7" horiz-adv-x="590" 
d="M413 630h-336v80h465l-340 -710h-91z" />
    <glyph glyph-name="eight" unicode="8" horiz-adv-x="590" 
d="M295 -8q-47 0 -88.5 17t-72.5 47.5t-49 72.5t-18 91q0 63 29 113.5t77 80.5q-25 23 -39.5 56t-14.5 72q0 38 14 70.5t38 56t56 36.5t68 13t68 -13t56 -36.5t38 -56t14 -70.5q0 -39 -14.5 -72t-39.5 -56q48 -30 77 -80.5t29 -113.5q0 -49 -18 -91t-49 -72.5t-72.5 -47.5
t-88.5 -17zM295 73q29 0 54.5 11.5t44 31t29.5 46.5t11 58t-11 58t-29.5 46.5t-44 31t-54.5 11.5t-54.5 -11.5t-44.5 -31t-29.5 -46.5t-10.5 -58t10.5 -58t29.5 -46.5t44.5 -31t54.5 -11.5zM298 448q37 2 62.5 27.5t25.5 66.5q0 42 -26.5 68.5t-64.5 26.5t-64.5 -26.5
t-26.5 -68.5q0 -41 25.5 -66.5t61.5 -27.5h7z" />
    <glyph glyph-name="nine" unicode="9" horiz-adv-x="590" 
d="M336 261q-7 -2 -18 -4t-28 -2q-47 0 -89 18t-73.5 49.5t-50 73.5t-18.5 90t18.5 90t50 73.5t74.5 50t93 18.5q49 0 92 -18.5t75 -50t50 -73.5t18 -90q0 -37 -12.5 -70t-29.5 -62l-212 -355h-98zM295 334q33 0 60 12t46.5 32.5t30.5 48t11 59.5q0 31 -11 59t-30.5 49
t-46.5 33t-60 12t-60.5 -12t-47 -33t-30 -49t-10.5 -59q0 -32 10.5 -59.5t30 -48t47 -32.5t60.5 -12z" />
    <glyph glyph-name="colon" unicode=":" horiz-adv-x="260" 
d="M130 360q-30 0 -52 21.5t-22 52.5t22 52.5t52 21.5q31 0 52.5 -21.5t21.5 -52.5t-21.5 -52.5t-52.5 -21.5zM130 -8q-30 0 -52 21.5t-22 52.5t22 52.5t52 21.5q31 0 52.5 -21.5t21.5 -52.5t-21.5 -52.5t-52.5 -21.5z" />
    <glyph glyph-name="semicolon" unicode=";" horiz-adv-x="252" 
d="M116 0h-51v123h122v-124l-57 -141h-57zM132 360q-30 0 -52 21.5t-22 52.5t22 52.5t52 21.5q31 0 52.5 -21.5t21.5 -52.5t-21.5 -52.5t-52.5 -21.5z" />
    <glyph glyph-name="less" unicode="&#x3c;" horiz-adv-x="463" 
d="M54 269l289 276l50 -52l-237 -224l237 -226l-50 -51z" />
    <glyph glyph-name="equal" unicode="=" horiz-adv-x="636" 
d="M96 201h444v-70h-444v70zM96 420h444v-70h-444v70z" />
    <glyph glyph-name="greater" unicode="&#x3e;" horiz-adv-x="464" 
d="M70 43l237 226l-237 224l51 52l289 -276l-289 -277z" />
    <glyph glyph-name="question" unicode="?" horiz-adv-x="467" 
d="M171 371h60q28 0 52.5 10t41.5 28t27 42.5t10 53.5q0 28 -10 52.5t-27 42.5t-41.5 28.5t-52.5 10.5q-29 0 -53 -10.5t-41 -28.5t-26.5 -42.5t-9.5 -52.5h-85q0 45 16.5 84t45.5 67.5t68.5 45t84.5 16.5t84.5 -16.5t69 -45t46 -67.5t16.5 -84t-16.5 -84t-46 -67.5t-69 -45
t-84.5 -16.5h-60v79zM234 -8q-30 0 -51.5 21.5t-21.5 52.5q0 20 9 36t25 26h80q15 -10 24.5 -26t9.5 -36q0 -31 -21.5 -52.5t-53.5 -21.5z" />
    <glyph glyph-name="at" unicode="@" horiz-adv-x="805" 
d="M354 165q-36 0 -65 13.5t-50 37t-32 55t-11 66.5q0 45 16.5 85t45.5 70t68.5 47t86.5 17q36 0 63 -10t47 -28l6 28h72l-51 -239q-7 -33 4 -56t43 -23q20 0 38.5 11.5t32.5 34.5t22.5 56.5t8.5 77.5q0 58 -21 104t-58 78t-87.5 48.5t-108.5 16.5q-64 0 -121.5 -22.5
t-100.5 -64t-68.5 -100.5t-25.5 -131q0 -59 19 -110t54.5 -88.5t87.5 -59t118 -21.5q45 0 94 10t90 31l25 -63q-47 -21 -103.5 -32.5t-105.5 -11.5q-81 0 -145.5 27t-110 73.5t-69.5 109.5t-24 135q0 85 32 155.5t85.5 120.5t123.5 77.5t146 27.5q73 0 135.5 -22
t108.5 -62.5t72 -98t26 -129.5q0 -65 -15.5 -111.5t-41 -75.5t-58.5 -42.5t-67 -13.5q-31 0 -59 15t-39 39q-23 -23 -57 -37.5t-76 -14.5zM371 231q28 0 55.5 12.5t46.5 43.5l34 157q-17 24 -44 35t-54 11t-51.5 -11t-43.5 -30.5t-30 -46t-11 -58.5q0 -54 27 -83.5t71 -29.5
z" />
    <glyph glyph-name="A" unicode="A" horiz-adv-x="710" 
d="M355 718l346 -718h-98l-88 186h-320l-88 -186h-98zM235 270h240l-120 254z" />
    <glyph glyph-name="B" unicode="B" horiz-adv-x="612" 
d="M86 710h237q51 0 90.5 -15t65.5 -40t39.5 -59t13.5 -71q0 -54 -19.5 -89.5t-54.5 -58.5q53 -20 87 -62.5t34 -114.5q0 -48 -18 -85.5t-50 -63t-77 -38.5t-100 -13h-248v710zM345 84q72 0 107 34t35 86t-35 87t-107 35h-168v-242h168zM321 404q57 0 88.5 31.5t31.5 79.5
q0 22 -8 42.5t-23.5 35.5t-38 24t-50.5 9h-144v-222h144z" />
    <glyph glyph-name="C" unicode="C" horiz-adv-x="663" 
d="M401 -8q-76 0 -142.5 27.5t-115.5 76.5t-77 115.5t-28 143.5t28 143.5t77 115t115.5 76.5t142.5 28q67 0 125.5 -21t104.5 -63l-53 -69q-35 29 -79 47.5t-98 18.5q-58 0 -107.5 -21t-85.5 -58.5t-56.5 -88t-20.5 -108.5q0 -59 20.5 -109t56.5 -87.5t85.5 -58.5t107.5 -21
q54 0 98 18.5t79 47.5l53 -69q-46 -42 -104.5 -63t-125.5 -21z" />
    <glyph glyph-name="D" unicode="D" horiz-adv-x="713" 
d="M297 85q64 0 117 20.5t90.5 56.5t58 85.5t20.5 107.5t-20.5 107.5t-58 85.5t-90.5 56.5t-117 20.5h-120v-540h120zM86 710h211q82 0 151.5 -27t120 -74.5t79 -112.5t28.5 -141t-28.5 -141t-79 -112.5t-120 -74.5t-151.5 -27h-211v710z" />
    <glyph glyph-name="E" unicode="E" horiz-adv-x="545" 
d="M86 710h410v-88h-319v-215h259v-88h-259v-231h319v-88h-410v710z" />
    <glyph glyph-name="F" unicode="F" horiz-adv-x="504" 
d="M86 710h398v-88h-307v-215h240v-88h-240v-319h-91v710z" />
    <glyph glyph-name="G" unicode="G" horiz-adv-x="730" 
d="M401 -8q-76 0 -142.5 27.5t-115.5 76.5t-77 115.5t-28 143.5t28 143.5t77 115t115.5 76.5t142.5 28q72 0 135.5 -22.5t111.5 -67.5l-56 -68q-35 33 -84.5 52t-106.5 19q-58 0 -107.5 -21t-85.5 -58.5t-56.5 -88t-20.5 -108.5q0 -59 20.5 -109t56.5 -87.5t85.5 -58.5
t107.5 -21q43 0 85.5 9.5t75.5 29.5v201h-198l39 88h250v-335q-50 -38 -116 -59t-136 -21z" />
    <glyph glyph-name="H" unicode="H" horiz-adv-x="746" 
d="M86 710h91v-303h392v303h91v-710h-91v319h-392v-319h-91v710z" />
    <glyph glyph-name="I" unicode="I" horiz-adv-x="263" 
d="M86 710h91v-710h-91v710z" />
    <glyph glyph-name="J" unicode="J" horiz-adv-x="495" 
d="M217 -8q-43 0 -80.5 13.5t-65.5 39.5t-44.5 64.5t-16.5 88.5h91q0 -30 9 -52.5t25 -37t36.5 -22t44.5 -7.5q51 0 84 29t33 90v512h91v-518q0 -50 -16.5 -87.5t-45 -62.5t-66 -37.5t-79.5 -12.5z" />
    <glyph glyph-name="K" unicode="K" horiz-adv-x="653" 
d="M86 710h91v-356l324 356h112l-328 -361l355 -349h-121l-342 337v-337h-91v710z" />
    <glyph glyph-name="L" unicode="L" horiz-adv-x="499" 
d="M86 710h91v-621h311v-89h-402v710z" />
    <glyph glyph-name="M" unicode="M" horiz-adv-x="864" 
d="M86 718l346 -381l346 381v-718h-91v494l-255 -285l-255 285v-494h-91v718z" />
    <glyph glyph-name="N" unicode="N" horiz-adv-x="769" 
d="M177 505v-505h-91v718l506 -513v505h91v-718z" />
    <glyph glyph-name="O" unicode="O" horiz-adv-x="802" 
d="M401 79q58 0 107.5 21t85.5 58.5t56.5 87.5t20.5 109q0 58 -20.5 108.5t-56.5 88t-85.5 58.5t-107.5 21t-107.5 -21t-85.5 -58.5t-56.5 -88t-20.5 -108.5q0 -59 20.5 -109t56.5 -87.5t85.5 -58.5t107.5 -21zM401 -8q-76 0 -142.5 27.5t-115.5 76.5t-77 115.5t-28 143.5
t28 143.5t77 115t115.5 76.5t142.5 28t142.5 -28t115.5 -76.5t77 -115t28 -143.5t-28 -143.5t-77 -115.5t-115.5 -76.5t-142.5 -27.5z" />
    <glyph glyph-name="P" unicode="P" horiz-adv-x="552" 
d="M86 710h201q56 0 101.5 -15t77.5 -43t49.5 -68.5t17.5 -90.5t-17.5 -90t-49.5 -68t-77.5 -43.5t-101.5 -15.5h-110v-276h-91v710zM284 360q77 0 116.5 35t39.5 98t-39.5 98t-116.5 35h-107v-266h107z" />
    <glyph glyph-name="Q" unicode="Q" horiz-adv-x="807" 
d="M636 76q-48 -40 -107.5 -62t-127.5 -22q-76 0 -142 28t-115 77t-77.5 115t-28.5 143q0 76 28.5 142.5t77.5 115.5t115 77t142 28t142.5 -28t115.5 -77t77 -115.5t28 -142.5q0 -62 -18.5 -116.5t-51.5 -99.5l92 -85l-58 -62zM401 80q49 0 91.5 15t77.5 43l-92 85l58 62
l91 -84q21 32 32.5 71t11.5 83q0 58 -20.5 108.5t-56.5 87.5t-85.5 58t-107.5 21t-107.5 -21t-85.5 -58t-56.5 -87.5t-20.5 -108.5t20.5 -108.5t56.5 -87.5t85.5 -58t107.5 -21z" />
    <glyph glyph-name="R" unicode="R" horiz-adv-x="621" 
d="M255 310h-78v-310h-91v710h211q52 0 94 -14t72 -40.5t46 -63.5t16 -82q0 -76 -45 -127.5t-123 -66.5l245 -316h-110zM291 391q70 0 105 31t35 86q0 56 -35 87t-105 31h-114v-235h114z" />
    <glyph glyph-name="S" unicode="S" horiz-adv-x="519" 
d="M253 -8q-78 0 -138.5 32.5t-92.5 77.5l69 60q26 -33 67.5 -58t93.5 -25q62 0 98 26.5t36 73.5q0 49 -29.5 78t-86.5 54l-65 28q-81 35 -118 84.5t-37 116.5q0 40 17.5 73t46.5 56.5t66.5 36t76.5 12.5q63 0 113 -23.5t86 -67.5l-64 -64q-28 33 -59.5 50.5t-78.5 17.5
q-23 0 -43 -6t-36 -18t-25 -29.5t-9 -39.5q0 -39 24 -67t81 -53l65 -28q36 -16 66.5 -35t53 -43.5t35 -55t12.5 -67.5q0 -44 -15.5 -80t-45 -62t-71 -40.5t-93.5 -14.5z" />
    <glyph glyph-name="T" unicode="T" horiz-adv-x="534" 
d="M221 622h-201v88h494v-88h-202v-622h-91v622z" />
    <glyph glyph-name="U" unicode="U" horiz-adv-x="721" 
d="M360 -8q-62 0 -114 19t-89.5 55t-58.5 87.5t-21 116.5v440h91v-444q0 -46 14 -81t39.5 -58.5t60.5 -35.5t78 -12t78 12t60.5 35.5t39.5 58.5t14 81v444h91v-440q0 -65 -21 -116.5t-58.5 -87.5t-89.5 -55t-114 -19z" />
    <glyph glyph-name="V" unicode="V" horiz-adv-x="669" 
d="M7 710h100l228 -509l227 509h100l-327 -718z" />
    <glyph glyph-name="W" unicode="W" horiz-adv-x="903" 
d="M15 710h94l157 -474l185 482l186 -482l157 474h94l-244 -718l-193 501l-192 -501z" />
    <glyph glyph-name="X" unicode="X" horiz-adv-x="669" 
d="M277 362l-243 348h105l195 -279l195 279h105l-241 -348l255 -362h-103l-210 295l-208 -295h-106z" />
    <glyph glyph-name="Y" unicode="Y" horiz-adv-x="632" 
d="M270 301l-260 409h106l200 -320l200 320h106l-260 -409v-301h-92v301z" />
    <glyph glyph-name="Z" unicode="Z" horiz-adv-x="607" 
d="M418 622h-352v88h508l-395 -622h397v-88h-553z" />
    <glyph glyph-name="bracketleft" unicode="[" horiz-adv-x="284" 
d="M77 741h187v-71h-108v-740h108v-71h-187v882z" />
    <glyph glyph-name="backslash" unicode="\" horiz-adv-x="425" 
d="M0 710h81l344 -710h-81z" />
    <glyph glyph-name="bracketright" unicode="]" horiz-adv-x="284" 
d="M207 -141h-187v71h108v740h-108v71h187v-882z" />
    <glyph glyph-name="asciicircum" unicode="^" horiz-adv-x="607" 
d="M303 712l272 -395h-86l-186 268l-186 -268h-85z" />
    <glyph glyph-name="underscore" unicode="_" horiz-adv-x="424" 
d="M0 0h424v-73h-424v73z" />
    <glyph glyph-name="grave" unicode="`" horiz-adv-x="272" 
d="M42 710h109l87 -165h-71z" />
    <glyph glyph-name="a" unicode="a" horiz-adv-x="620" 
d="M457 50q-32 -29 -72.5 -43.5t-86.5 -14.5q-55 0 -102 20t-81 54.5t-53 82t-19 101.5t19 101.5t53 82t81 54.5t102 20q46 0 86.5 -14.5t72.5 -43.5v50h86v-500h-86v50zM300 73q54 0 94.5 23t62.5 58v192q-22 35 -62.5 58t-94.5 23q-37 0 -67.5 -13.5t-53 -37.5t-35 -56.5
t-12.5 -69.5t12.5 -69.5t35 -56.5t53 -37.5t67.5 -13.5z" />
    <glyph glyph-name="b" unicode="b" horiz-adv-x="620" 
d="M77 710h86v-260q31 29 71.5 43.5t87.5 14.5q55 0 102 -20t81 -54.5t53 -82t19 -101.5t-19 -101.5t-53 -82t-81 -54.5t-102 -20q-47 0 -87.5 14.5t-71.5 43.5v-50h-86v710zM320 427q-54 0 -95 -23t-62 -58v-192q21 -35 62 -58t95 -23q37 0 67.5 13.5t53 37.5t35 56.5
t12.5 69.5t-12.5 69.5t-35 56.5t-53 37.5t-67.5 13.5z" />
    <glyph glyph-name="c" unicode="c" horiz-adv-x="528" 
d="M300 -8q-56 0 -103 20t-81 55t-53.5 82t-19.5 101t19.5 101t53.5 82t81 55t103 20q63 0 110.5 -22.5t80.5 -56.5l-55 -60q-24 24 -57.5 41t-78.5 17q-37 0 -67.5 -13.5t-53 -37.5t-35 -56.5t-12.5 -69.5t12.5 -69.5t35 -56.5t53 -37.5t67.5 -13.5q45 0 78.5 17t57.5 41
l55 -60q-33 -34 -80.5 -56.5t-110.5 -22.5z" />
    <glyph glyph-name="d" unicode="d" horiz-adv-x="620" 
d="M457 50q-32 -29 -72.5 -43.5t-86.5 -14.5q-55 0 -102 20t-81 54.5t-53 82t-19 101.5t19 101.5t53 82t81 54.5t102 20q46 0 86.5 -14.5t72.5 -43.5v260h86v-710h-86v50zM300 73q54 0 94.5 23t62.5 58v192q-22 35 -62.5 58t-94.5 23q-37 0 -67.5 -13.5t-53 -37.5t-35 -56.5
t-12.5 -69.5t12.5 -69.5t35 -56.5t53 -37.5t67.5 -13.5z" />
    <glyph glyph-name="e" unicode="e" horiz-adv-x="577" 
d="M300 -8q-56 0 -103 20t-81 55t-53.5 82t-19.5 101t19.5 101.5t53.5 82t79.5 54.5t98.5 20q52 0 96.5 -18.5t77 -54t51 -87.5t19.5 -119h-406q3 -33 17 -61.5t36 -49.5t51.5 -33t63.5 -12q48 0 85 18t61 42l55 -60q-32 -34 -83.5 -57.5t-117.5 -23.5zM289 429
q-55 0 -97 -34t-56 -91h305q-9 62 -52 94t-100 31z" />
    <glyph glyph-name="f" unicode="f" horiz-adv-x="357" 
d="M22 500h84q-17 17 -27 39.5t-10 48.5t10.5 48.5t29.5 39t46 25.5t60 9h118v-78h-104q-32 0 -54 -15.5t-22 -47.5q0 -33 22 -50t47 -19h111v-78h-139v-422h-86v422h-86v78z" />
    <glyph glyph-name="g" unicode="g" horiz-adv-x="610" 
d="M291 -194q-54 0 -111 15t-102 44l45 73q32 -23 76.5 -37.5t94.5 -14.5q33 0 63 6.5t53.5 21.5t37.5 39t14 59q0 13 -3 31t-10 32q-62 -60 -159 -60q-56 0 -101.5 19t-77.5 52t-50 78t-18 97t18 97.5t50 78.5t77.5 52t101.5 19q48 0 86.5 -15t69.5 -44v51h86v-398
q10 -26 14.5 -51t4.5 -47q0 -54 -22.5 -91.5t-59.5 -61.5t-83.5 -34.5t-94.5 -10.5zM292 95q54 0 94 23.5t60 58.5v169q-20 35 -60 58t-94 23q-36 0 -65.5 -12.5t-50.5 -35t-32.5 -52.5t-11.5 -66q0 -35 11.5 -65.5t32.5 -53t50.5 -35t65.5 -12.5z" />
    <glyph glyph-name="h" unicode="h" horiz-adv-x="578" 
d="M77 710h86v-267q29 36 70 50.5t85 14.5q42 0 77.5 -14.5t61 -40.5t40 -64t14.5 -84v-305h-86v300q0 55 -33.5 91t-92.5 36q-53 0 -87.5 -27.5t-48.5 -76.5v-323h-86v710z" />
    <glyph glyph-name="i" unicode="i" 
d="M77 609q-19 17 -19 46q0 26 18 44.5t44 18.5t44 -18.5t18 -44.5q0 -29 -19 -46h-86zM77 500h86v-500h-86v500z" />
    <glyph glyph-name="j" unicode="j" 
d="M-27 -106h30q42 0 58 21t16 59v526h86v-539q0 -72 -39.5 -108.5t-111.5 -36.5h-39v78zM77 609q-19 17 -19 46q0 26 18 44.5t44 18.5t44 -18.5t18 -44.5q0 -29 -19 -46h-86z" />
    <glyph glyph-name="k" unicode="k" horiz-adv-x="516" 
d="M77 710h86v-436l221 226h108l-233 -236l256 -264h-111l-241 249v-249h-86v710z" />
    <glyph glyph-name="l" unicode="l" 
d="M77 710h86v-710h-86v710z" />
    <glyph glyph-name="m" unicode="m" horiz-adv-x="875" 
d="M722 300q0 55 -30 91t-84 36q-47 0 -78 -27t-45 -75q1 -5 1 -10v-10v-305h-86v300q0 55 -30.5 91t-84.5 36q-44 0 -75.5 -24.5t-46.5 -69.5v-333h-86v500h86v-55q28 35 65.5 49t75.5 14q50 0 89 -21.5t62 -60.5q18 24 39 40t43 25.5t44 13t41 3.5q43 0 77.5 -14.5
t58.5 -40.5t37 -64t13 -84v-305h-86v300z" />
    <glyph glyph-name="n" unicode="n" horiz-adv-x="578" 
d="M77 500h86v-57q29 36 70 50.5t85 14.5q42 0 77.5 -14.5t61 -40.5t40 -64t14.5 -84v-305h-86v300q0 55 -33.5 91t-92.5 36q-53 0 -87.5 -27.5t-48.5 -76.5v-323h-86v500z" />
    <glyph glyph-name="o" unicode="o" horiz-adv-x="605" 
d="M303 73q38 0 69.5 13.5t54 37.5t34.5 56.5t12 69.5t-12 69.5t-34.5 56.5t-54 37.5t-69.5 13.5t-69.5 -13.5t-54 -37.5t-35 -56.5t-12.5 -69.5t12.5 -69.5t35 -56.5t54 -37.5t69.5 -13.5zM303 -8q-57 0 -104.5 20t-82 55t-54 82t-19.5 101t19.5 101t54 82t82 55t104.5 20
q56 0 103.5 -20t82 -55t54 -82t19.5 -101t-19.5 -101t-54 -82t-82 -55t-103.5 -20z" />
    <glyph glyph-name="p" unicode="p" horiz-adv-x="620" 
d="M77 500h86v-50q31 29 71.5 43.5t87.5 14.5q55 0 102 -20t81 -54.5t53 -82t19 -101.5t-19 -101.5t-53 -82t-81 -54.5t-102 -20q-47 0 -87.5 14.5t-71.5 43.5v-234h-86v684zM320 427q-54 0 -95 -23t-62 -58v-192q21 -35 62 -58t95 -23q37 0 67.5 13.5t53 37.5t35 56.5
t12.5 69.5t-12.5 69.5t-35 56.5t-53 37.5t-67.5 13.5z" />
    <glyph glyph-name="q" unicode="q" horiz-adv-x="620" 
d="M457 50q-32 -29 -72.5 -43.5t-86.5 -14.5q-55 0 -102 20t-81 54.5t-53 82t-19 101.5t19 101.5t53 82t81 54.5t102 20q46 0 86.5 -14.5t72.5 -43.5v50h86v-684h-86v234zM300 73q54 0 94.5 23t62.5 58v192q-22 35 -62.5 58t-94.5 23q-37 0 -67.5 -13.5t-53 -37.5t-35 -56.5
t-12.5 -69.5t12.5 -69.5t35 -56.5t53 -37.5t67.5 -13.5z" />
    <glyph glyph-name="r" unicode="r" horiz-adv-x="359" 
d="M77 500h86v-59q26 32 61 48t77 16q18 0 35 -3v-89q-21 6 -48 6q-41 0 -74.5 -20t-50.5 -59v-340h-86v500z" />
    <glyph glyph-name="s" unicode="s" horiz-adv-x="418" 
d="M204 -8q-56 0 -101.5 24.5t-75.5 75.5l68 46q20 -33 45.5 -51t65.5 -18q37 0 63 17t26 46t-20 46.5t-65 33.5l-39 15q-66 25 -92.5 64t-26.5 84q0 28 11.5 52.5t32.5 42.5t49.5 28t62.5 10q48 0 87.5 -22t62.5 -68l-67 -39q-25 52 -83 52q-29 0 -50 -14.5t-21 -40.5
q0 -23 14.5 -41.5t58.5 -34.5l41 -15q64 -23 97 -58.5t33 -91.5q0 -30 -12.5 -56t-35.5 -45.5t-55.5 -30.5t-73.5 -11z" />
    <glyph glyph-name="t" unicode="t" horiz-adv-x="371" 
d="M0 500h99v107l86 43v-150h151l-19 -78h-132v-264q0 -38 16 -59t58 -21h67v-78h-76q-72 0 -111.5 36.5t-39.5 108.5v277h-80z" />
    <glyph glyph-name="u" unicode="u" horiz-adv-x="568" 
d="M405 56q-29 -36 -69.5 -50t-84.5 -14q-43 0 -78.5 14.5t-61 40.5t-39.5 63.5t-14 84.5v305h86v-300q0 -55 33.5 -91t91.5 -36q52 0 86.5 26t49.5 74v327h86v-500h-86v56z" />
    <glyph glyph-name="v" unicode="v" horiz-adv-x="535" 
d="M3 500h97l167 -337l168 337h97l-265 -508z" />
    <glyph glyph-name="w" unicode="w" horiz-adv-x="720" 
d="M21 500h89l112 -364l138 372l138 -372l112 364h89l-158 -500h-69l-112 303l-111 -303h-70z" />
    <glyph glyph-name="x" unicode="x" horiz-adv-x="540" 
d="M218 254l-185 246h99l139 -184l137 184h99l-185 -246l195 -254h-100l-147 194l-147 -194h-100z" />
    <glyph glyph-name="y" unicode="y" horiz-adv-x="510" 
d="M210 42l-204 458h93l156 -364l157 364h93l-307 -684h-91z" />
    <glyph glyph-name="z" unicode="z" horiz-adv-x="504" 
d="M321 422h-262v78h411l-293 -422h283v-78h-433z" />
    <glyph glyph-name="braceleft" unicode="{" horiz-adv-x="294" 
d="M224 -141q-71 0 -99.5 36.5t-28.5 107.5v190q0 35 -10.5 53t-47.5 18h-16v71h16q37 0 47.5 18t10.5 53v191q0 70 27.5 107t98.5 37h50v-71h-39q-37 0 -48 -17.5t-11 -55.5v-187q0 -46 -11 -71t-42 -39q31 -15 42 -40t11 -71v-186q0 -38 11 -55.5t48 -17.5h39v-71h-48v0z
" />
    <glyph glyph-name="bar" unicode="|" horiz-adv-x="229" 
d="M75 710h79v-894h-79v894z" />
    <glyph glyph-name="braceright" unicode="}" horiz-adv-x="294" 
d="M69 -141h-48v71h39q37 0 48 17.5t11 55.5v186q0 46 11 71t42 40q-31 14 -42 39t-11 71v187q0 38 -11 55.5t-48 17.5h-39v71h50q71 0 98.5 -37t27.5 -107v-191q0 -35 10.5 -53t47.5 -18h16v-71h-16q-37 0 -47.5 -18t-10.5 -53v-190q0 -71 -28.5 -107.5t-99.5 -36.5z" />
    <glyph glyph-name="asciitilde" unicode="~" horiz-adv-x="610" 
d="M96 292l108 73l198 -75l112 74v-82l-108 -75l-199 75l-111 -76v86z" />
    <glyph glyph-name="uni00A0" unicode="&#xa0;" horiz-adv-x="252" 
 />
    <glyph glyph-name="exclamdown" unicode="&#xa1;" horiz-adv-x="260" 
d="M87 84l16 197h55l16 -197v-269h-87v269zM90 373q-16 9 -25 25t-9 36q0 31 21.5 52.5t51.5 21.5q32 0 53.5 -21.5t21.5 -52.5q0 -20 -9.5 -36t-24.5 -25h-80z" />
    <glyph glyph-name="cent" unicode="&#xa2;" horiz-adv-x="534" 
d="M269 -6q-49 6 -90 28t-71 56t-46.5 78t-16.5 94t16.5 94t46.5 78t71 56t90 28v82h67v-82q50 -6 89 -27t68 -50l-55 -60q-24 24 -57.5 41t-78.5 17q-37 0 -67.5 -13.5t-53 -37.5t-35 -56.5t-12.5 -69.5t12.5 -69.5t35 -56.5t53 -37.5t67.5 -13.5q45 0 78.5 17t57.5 41
l55 -60q-29 -29 -68 -50t-89 -27v-82h-67v82z" />
    <glyph glyph-name="sterling" unicode="&#xa3;" horiz-adv-x="611" 
d="M72 378h91q-25 26 -39 60.5t-14 72.5q0 42 15.5 80t44 66t68 44.5t86.5 16.5q46 0 85 -16.5t67.5 -45.5t44.5 -67.5t16 -81.5h-87q0 27 -9 51t-25.5 42t-40 28.5t-51.5 10.5q-29 0 -52.5 -9.5t-40 -27t-26 -41t-9.5 -50.5t9.5 -51.5t26 -42.5t40 -28.5t52.5 -10.5h82v-73
h-157v-225h315v-80h-492v80h90v225h-90v73z" />
    <glyph glyph-name="currency" unicode="&#xa4;" horiz-adv-x="584" 
d="M30 136l69 70q-22 29 -34 64.5t-12 75.5t12 76t33 65l-68 70l45 44l68 -67q30 24 67 37.5t79 13.5q43 0 81 -14t69 -39l70 69l45 -44l-71 -72q21 -29 33 -64.5t12 -74.5t-12 -74t-33 -64l71 -72l-45 -45l-71 70q-31 -24 -69 -37.5t-80 -13.5t-78.5 13t-66.5 36l-69 -68z
M290 187q34 0 63.5 12.5t51 34t33.5 50.5t12 62q0 34 -12 64t-33.5 52.5t-51 35t-64.5 12.5q-34 0 -62.5 -12.5t-49.5 -35t-32.5 -52.5t-11.5 -64q0 -33 11.5 -62t32.5 -50.5t50 -34t63 -12.5z" />
    <glyph glyph-name="yen" unicode="&#xa5;" horiz-adv-x="638" 
d="M119 345h130l-233 365h100l203 -322l203 322h100l-232 -365h130v-73h-158v-74h158v-73h-158v-125h-85v125h-158v73h158v74h-158v73z" />
    <glyph glyph-name="brokenbar" unicode="&#xa6;" horiz-adv-x="229" 
d="M75 200h79v-384h-79v384zM75 710h79v-383h-79v383z" />
    <glyph glyph-name="section" unicode="&#xa7;" horiz-adv-x="524" 
d="M244 -194q-57 0 -101 27.5t-71 78.5l65 40q19 -36 44.5 -56.5t64.5 -20.5q38 0 66 23t28 60q0 32 -21 59t-75 51q-7 2 -13.5 5t-14.5 5q-69 20 -108 69t-39 121q0 27 7.5 52.5t21 47.5t33 39.5t42.5 28.5q-5 3 -8 6t-7 5q-34 29 -45.5 62.5t-11.5 66.5q0 31 12 57t33 45
t50 29.5t63 10.5q53 0 93 -27t60 -76l-64 -32q-13 30 -35 48t-55 18q-31 0 -54 -20.5t-23 -53.5q0 -24 12.5 -51t53.5 -51q9 -5 19.5 -9t22.5 -7q33 -8 63 -22t53 -36.5t36.5 -55t13.5 -75.5q0 -57 -28 -102.5t-78 -71.5l15 -12q29 -26 41.5 -56t12.5 -67q0 -32 -12.5 -59.5
t-35 -48.5t-55 -33t-71.5 -12zM262 143q25 0 46 10t36 27t23.5 39.5t8.5 48.5q0 25 -8.5 47t-23.5 37.5t-36 24.5t-46 9t-46 -9t-36.5 -24.5t-24 -37.5t-8.5 -47q0 -26 8.5 -48.5t24 -39.5t36.5 -27t46 -10z" />
    <glyph glyph-name="dieresis" unicode="&#xa8;" horiz-adv-x="406" 
d="M90 571q-24 0 -42 17t-18 43q0 25 18 42t42 17q26 0 43.5 -17t17.5 -42q0 -26 -17.5 -43t-43.5 -17zM315 571q-25 0 -42.5 17t-17.5 43q0 25 17.5 42t42.5 17q26 0 43 -17t17 -42q0 -26 -17 -43t-43 -17z" />
    <glyph glyph-name="copyright" unicode="&#xa9;" horiz-adv-x="802" 
d="M412 161q-41 0 -76.5 15t-61.5 41t-40.5 61.5t-14.5 77.5t14.5 77.5t40.5 61.5t61.5 41t76.5 15q20 0 42 -4.5t43 -14.5t39.5 -25t32.5 -36l-51 -46q-19 26 -46.5 41.5t-56.5 15.5q-56 0 -89 -35.5t-33 -90.5t33 -90.5t89 -35.5q29 0 56.5 15.5t46.5 41.5l51 -46
q-14 -21 -32.5 -36t-39.5 -25t-43 -14.5t-42 -4.5zM400 61q61 0 114.5 23t93.5 63t63 93.5t23 113.5q0 61 -23 114.5t-63 93.5t-93.5 63t-114.5 23q-60 0 -113.5 -23t-93.5 -63t-63 -93.5t-23 -114.5q0 -60 23 -113.5t63 -93.5t93.5 -63t113.5 -23zM401 -9q-75 0 -141 28.5
t-115.5 78t-78 115.5t-28.5 141t28.5 141t78 115.5t115.5 78.5t141 29t141 -29t115.5 -78.5t78 -115.5t28.5 -141t-28.5 -141t-78 -115.5t-115.5 -78t-141 -28.5z" />
    <glyph glyph-name="ordfeminine" unicode="&#xaa;" horiz-adv-x="365" 
d="M255 429q-32 -24 -77 -24q-33 0 -61.5 12t-49.5 32.5t-32.5 49t-11.5 61.5t11.5 61.5t32.5 49t49.5 32.5t61.5 12q23 0 42.5 -7t34.5 -18v20h69v-300h-69v19zM179 471q23 0 43.5 10.5t32.5 27.5v101q-12 18 -32.5 28.5t-43.5 10.5q-38 0 -61.5 -25.5t-23.5 -63.5
t23.5 -63.5t61.5 -25.5z" />
    <glyph glyph-name="guillemotleft" unicode="&#xab;" horiz-adv-x="491" 
d="M231 250l152 221l62 -42l-123 -179l123 -179l-62 -42zM29 250l152 221l62 -42l-123 -179l123 -179l-62 -42z" />
    <glyph glyph-name="logicalnot" unicode="&#xac;" horiz-adv-x="630" 
d="M463 240h-367v70h438v-260h-71v190z" />
    <glyph glyph-name="uni00AD" unicode="&#xad;" horiz-adv-x="334" 
d="M46 318h243v-89h-243v89z" />
    <glyph glyph-name="registered" unicode="&#xae;" horiz-adv-x="802" 
d="M401 -9q-75 0 -141 28.5t-115.5 78t-78 115.5t-28.5 141t28.5 141t78 115.5t115.5 78.5t141 29t141 -29t115.5 -78.5t78 -115.5t28.5 -141t-28.5 -141t-78 -115.5t-115.5 -78t-141 -28.5zM400 61q61 0 114.5 23t93.5 63t63 93.5t23 113.5q0 61 -23 114.5t-63 93.5
t-93.5 63t-114.5 23q-60 0 -113.5 -23t-93.5 -63t-63 -93.5t-23 -114.5q0 -60 23 -113.5t63 -93.5t93.5 -63t113.5 -23zM372 327h-29v-163h-68v384h141q50 0 83 -29.5t33 -78.5q-1 -42 -24.5 -70t-60.5 -38l124 -168h-80zM404 390q55 0 55 46t-55 46h-60v-92h60z" />
    <glyph glyph-name="macron" unicode="&#xaf;" horiz-adv-x="365" 
d="M37 679h292v-65h-292v65z" />
    <glyph glyph-name="degree" unicode="&#xb0;" horiz-adv-x="352" 
d="M176 525q28 0 47 20t19 47t-19 46.5t-47 19.5q-27 0 -47 -19.5t-20 -46.5t20 -47t47 -20zM176 470q-25 0 -47.5 9.5t-39 26t-26 39t-9.5 47.5t9.5 47.5t26 39t39 26t47.5 9.5t47.5 -9.5t39 -26t26 -39t9.5 -47.5t-9.5 -47.5t-26 -39t-39 -26t-47.5 -9.5z" />
    <glyph glyph-name="plusminus" unicode="&#xb1;" horiz-adv-x="630" 
d="M96 359h184v141h70v-141h184v-70h-184v-144h-70v144h-184v70zM96 70h438v-70h-438v70z" />
    <glyph glyph-name="twosuperior" unicode="&#xb2;" horiz-adv-x="344" 
d="M27 470l165 154q19 17 33.5 39.5t14.5 46.5q0 29 -18.5 48t-49.5 19q-29 0 -50.5 -21.5t-26.5 -50.5l-66 16q12 55 51.5 87.5t93.5 32.5q29 0 53.5 -10t42.5 -27t28.5 -41t10.5 -52q0 -44 -22.5 -76t-54.5 -63l-103 -97h182v-65h-284v60z" />
    <glyph glyph-name="threesuperior" unicode="&#xb3;" horiz-adv-x="310" 
d="M139 405q-38 0 -71.5 16t-53.5 45l50 42q11 -17 29.5 -28t43.5 -11q35 0 57.5 21t22.5 58q0 35 -22.5 57.5t-60.5 22.5h-40l77 143h-139v65h242l-82 -155q45 -14 70 -48.5t25 -84.5q0 -65 -40.5 -104t-107.5 -39z" />
    <glyph glyph-name="acute" unicode="&#xb4;" horiz-adv-x="272" 
d="M120 710h109l-124 -165h-72z" />
    <glyph glyph-name="mu" unicode="&#xb5;" horiz-adv-x="587" 
d="M77 394h85v-578h-85v578zM424 56q-29 -36 -69.5 -50t-84.5 -14q-43 0 -78.5 14.5t-61 40.5t-39.5 63.5t-14 84.5v305h86v-300q0 -55 33.5 -91t91.5 -36q52 0 86.5 26t49.5 74v327h86v-500h-86v56z" />
    <glyph glyph-name="mu" unicode="&#x3bc;" horiz-adv-x="587" 
d="M77 394h85v-578h-85v578zM424 56q-29 -36 -69.5 -50t-84.5 -14q-43 0 -78.5 14.5t-61 40.5t-39.5 63.5t-14 84.5v305h86v-300q0 -55 33.5 -91t91.5 -36q52 0 86.5 26t49.5 74v327h86v-500h-86v56z" />
    <glyph glyph-name="paragraph" unicode="&#xb6;" horiz-adv-x="635" 
d="M274 260q-47 0 -87.5 17.5t-71.5 48.5t-48.5 71.5t-17.5 87.5q0 46 17.5 87t48.5 72t71.5 48.5t87.5 17.5h265v-894h-78v816h-108v-816h-79v444z" />
    <glyph glyph-name="periodcentered" unicode="&#xb7;" horiz-adv-x="260" 
d="M130 198q-30 0 -52 21.5t-22 52.5t22 52.5t52 21.5q31 0 52.5 -21.5t21.5 -52.5t-21.5 -52.5t-52.5 -21.5z" />
    <glyph glyph-name="cedilla" unicode="&#xb8;" horiz-adv-x="197" 
d="M71 0h59l-38 -135h-98z" />
    <glyph glyph-name="onesuperior" unicode="&#xb9;" horiz-adv-x="176" 
d="M54 774l69 72v-436h-69v364z" />
    <glyph glyph-name="ordmasculine" unicode="&#xba;" horiz-adv-x="357" 
d="M179 471q37 0 60.5 25.5t23.5 63.5t-23.5 63.5t-60.5 25.5q-38 0 -61.5 -25.5t-23.5 -63.5t23.5 -63.5t61.5 -25.5zM179 405q-33 0 -61.5 12t-49.5 32.5t-33 49t-12 61.5t12 61.5t33 49t49.5 32.5t61.5 12t61.5 -12t49 -32.5t32.5 -49t12 -61.5t-12 -61.5t-32.5 -49
t-49 -32.5t-61.5 -12z" />
    <glyph glyph-name="guillemotright" unicode="&#xbb;" horiz-adv-x="491" 
d="M310 29l-62 42l123 179l-123 179l62 42l152 -221zM108 29l-62 42l123 179l-123 179l62 42l152 -221z" />
    <glyph glyph-name="onequarter" unicode="&#xbc;" horiz-adv-x="736" 
d="M68 650l69 70v-436h-69v366zM31 0l500 710h80l-500 -710h-80zM605 108h-229l297 328v-267h49v-61h-49v-108h-68v108zM605 169v104l-94 -104h94z" />
    <glyph glyph-name="onehalf" unicode="&#xbd;" horiz-adv-x="792" 
d="M68 650l69 70v-436h-69v366zM31 0l500 710h80l-500 -710h-80zM441 61l165 154q19 17 33.5 39.5t14.5 46.5q0 29 -18.5 48t-49.5 19q-29 0 -50.5 -21.5t-26.5 -50.5l-66 16q12 55 51.5 87.5t93.5 32.5q29 0 53.5 -10t42.5 -27t28.5 -41t10.5 -52q0 -44 -22.5 -76
t-54.5 -63l-103 -97h182v-65h-284v60z" />
    <glyph glyph-name="threequarters" unicode="&#xbe;" horiz-adv-x="835" 
d="M160 279q-38 0 -71.5 16t-53.5 45l50 42q11 -17 29.5 -28t43.5 -11q35 0 57.5 21t22.5 58q0 35 -22.5 57.5t-60.5 22.5h-40l77 143h-139v65h242l-82 -155q45 -14 70 -48.5t25 -84.5q0 -65 -40.5 -104t-107.5 -39zM130 0l500 710h80l-500 -710h-80zM704 108h-229l297 328
v-267h49v-61h-49v-108h-68v108zM704 169v104l-94 -104h94z" />
    <glyph glyph-name="questiondown" unicode="&#xbf;" horiz-adv-x="467" 
d="M236 -194q-45 0 -84.5 16.5t-69 45t-46 67.5t-16.5 84t16.5 84t46 67.5t69 45t84.5 16.5h60v-79h-60q-29 0 -53 -10.5t-41 -28.5t-27 -42.5t-10 -52.5q0 -29 10 -53.5t27 -42.5t41 -28t53 -10t53 10t41 28t26.5 42.5t9.5 53.5h85q0 -45 -16.5 -84t-45.5 -67.5t-68.5 -45
t-84.5 -16.5zM192 372q-15 10 -24.5 26t-9.5 36q0 31 21.5 52.5t53.5 21.5q30 0 51.5 -21.5t21.5 -52.5q0 -20 -9 -36t-25 -26h-80z" />
    <glyph glyph-name="Agrave" unicode="&#xc0;" horiz-adv-x="710" 
d="M355 718l346 -718h-98l-88 186h-320l-88 -186h-98zM235 270h240l-120 254zM205 913h109l77 -145h-73z" />
    <glyph glyph-name="Aacute" unicode="&#xc1;" horiz-adv-x="710" 
d="M355 718l346 -718h-98l-88 186h-320l-88 -186h-98zM235 270h240l-120 254zM396 913h108l-112 -145h-73z" />
    <glyph glyph-name="Acircumflex" unicode="&#xc2;" horiz-adv-x="710" 
d="M355 718l346 -718h-98l-88 186h-320l-88 -186h-98zM235 270h240l-120 254zM182 826l173 100l173 -100l-35 -60l-138 82l-138 -82z" />
    <glyph glyph-name="Atilde" unicode="&#xc3;" horiz-adv-x="710" 
d="M355 718l346 -718h-98l-88 186h-320l-88 -186h-98zM235 270h240l-120 254zM423 783q-21 0 -39 7t-33.5 15t-29 15t-26.5 7q-20 0 -30.5 -10.5t-15.5 -32.5h-69l4 18q4 23 14.5 41t25 30t31.5 18.5t34 6.5q21 0 38.5 -7t33 -15t29 -15t25.5 -7q21 0 32 10t16 33h68l-3 -18
q-8 -45 -38 -70.5t-67 -25.5z" />
    <glyph glyph-name="Adieresis" unicode="&#xc4;" horiz-adv-x="710" 
d="M355 718l346 -718h-98l-88 186h-320l-88 -186h-98zM235 270h240l-120 254zM242 782q-24 0 -42.5 18t-18.5 44q0 25 18.5 42.5t42.5 17.5q26 0 44 -17.5t18 -42.5q0 -26 -18 -44t-44 -18zM467 782q-25 0 -43 18t-18 44q0 25 18 42.5t43 17.5q26 0 44 -17.5t18 -42.5
q0 -26 -18 -44t-44 -18z" />
    <glyph glyph-name="Aring" unicode="&#xc5;" horiz-adv-x="710" 
d="M355 718l346 -718h-98l-88 186h-320l-88 -186h-98zM235 270h240l-120 254zM354 798q20 0 34 13t14 34t-14 34.5t-34 13.5t-34 -13.5t-14 -34.5t14 -34t34 -13zM354 751q-42 0 -70.5 26.5t-28.5 67.5q0 42 29 68.5t70 26.5t70 -26.5t29 -68.5q0 -41 -28.5 -67.5
t-70.5 -26.5z" />
    <glyph glyph-name="AE" unicode="&#xc6;" horiz-adv-x="1016" 
d="M308 621l-42 89h399l42 -88h-306l104 -215h262l42 -88h-262l111 -231h306l43 -88h-404l-88 186h-320l-88 -186h-98zM235 270h240l-120 254z" />
    <glyph glyph-name="Ccedilla" unicode="&#xc7;" horiz-adv-x="663" 
d="M354 0h59l-38 -135h-98zM401 -8q-76 0 -142.5 27.5t-115.5 76.5t-77 115.5t-28 143.5t28 143.5t77 115t115.5 76.5t142.5 28q67 0 125.5 -21t104.5 -63l-53 -69q-35 29 -79 47.5t-98 18.5q-58 0 -107.5 -21t-85.5 -58.5t-56.5 -88t-20.5 -108.5q0 -59 20.5 -109
t56.5 -87.5t85.5 -58.5t107.5 -21q54 0 98 18.5t79 47.5l53 -69q-46 -42 -104.5 -63t-125.5 -21z" />
    <glyph glyph-name="Egrave" unicode="&#xc8;" horiz-adv-x="545" 
d="M86 710h410v-88h-319v-215h259v-88h-259v-231h319v-88h-410v710zM169 913h109l77 -145h-73z" />
    <glyph glyph-name="Eacute" unicode="&#xc9;" horiz-adv-x="545" 
d="M86 710h410v-88h-319v-215h259v-88h-259v-231h319v-88h-410v710zM302 913h108l-112 -145h-73z" />
    <glyph glyph-name="Ecircumflex" unicode="&#xca;" horiz-adv-x="545" 
d="M86 710h410v-88h-319v-215h259v-88h-259v-231h319v-88h-410v710zM117 826l173 100l173 -100l-35 -60l-138 82l-138 -82z" />
    <glyph glyph-name="Edieresis" unicode="&#xcb;" horiz-adv-x="545" 
d="M86 710h410v-88h-319v-215h259v-88h-259v-231h319v-88h-410v710zM178 782q-24 0 -42.5 18t-18.5 44q0 25 18.5 42.5t42.5 17.5q26 0 44 -17.5t18 -42.5q0 -26 -18 -44t-44 -18zM403 782q-25 0 -43 18t-18 44q0 25 18 42.5t43 17.5q26 0 44 -17.5t18 -42.5q0 -26 -18 -44
t-44 -18z" />
    <glyph glyph-name="Igrave" unicode="&#xcc;" horiz-adv-x="263" 
d="M86 710h91v-710h-91v710zM11 913h109l77 -145h-73z" />
    <glyph glyph-name="Iacute" unicode="&#xcd;" horiz-adv-x="263" 
d="M86 710h91v-710h-91v710zM143 913h108l-112 -145h-73z" />
    <glyph glyph-name="Icircumflex" unicode="&#xce;" horiz-adv-x="263" 
d="M86 710h91v-710h-91v710zM-41 826l173 100l173 -100l-35 -60l-138 82l-138 -82z" />
    <glyph glyph-name="Idieresis" unicode="&#xcf;" horiz-adv-x="263" 
d="M86 710h91v-710h-91v710zM20 782q-24 0 -42.5 18t-18.5 44q0 25 18.5 42.5t42.5 17.5q26 0 44 -17.5t18 -42.5q0 -26 -18 -44t-44 -18zM245 782q-25 0 -43 18t-18 44q0 25 18 42.5t43 17.5q26 0 44 -17.5t18 -42.5q0 -26 -18 -44t-44 -18z" />
    <glyph glyph-name="Eth" unicode="&#xd0;" horiz-adv-x="744" 
d="M9 399h108v311h211q82 0 151.5 -27t120 -74.5t79 -112.5t28.5 -141t-28.5 -141t-79 -112.5t-120 -74.5t-151.5 -27h-211v312h-108v87zM328 85q64 0 117 20.5t90.5 56.5t58 85.5t20.5 107.5t-20.5 107.5t-58 85.5t-90.5 56.5t-117 20.5h-120v-226h134v-87h-134v-227h120z
" />
    <glyph glyph-name="Ntilde" unicode="&#xd1;" horiz-adv-x="769" 
d="M177 505v-505h-91v718l506 -513v505h91v-718zM452 783q-21 0 -39 7t-33.5 15t-29 15t-26.5 7q-20 0 -30.5 -10.5t-15.5 -32.5h-69l4 18q4 23 14.5 41t25 30t31.5 18.5t34 6.5q21 0 38.5 -7t33 -15t29 -15t25.5 -7q21 0 32 10t16 33h68l-3 -18q-8 -45 -38 -70.5t-67 -25.5
z" />
    <glyph glyph-name="Ograve" unicode="&#xd2;" horiz-adv-x="802" 
d="M401 79q58 0 107.5 21t85.5 58.5t56.5 87.5t20.5 109q0 58 -20.5 108.5t-56.5 88t-85.5 58.5t-107.5 21t-107.5 -21t-85.5 -58.5t-56.5 -88t-20.5 -108.5q0 -59 20.5 -109t56.5 -87.5t85.5 -58.5t107.5 -21zM401 -8q-76 0 -142.5 27.5t-115.5 76.5t-77 115.5t-28 143.5
t28 143.5t77 115t115.5 76.5t142.5 28t142.5 -28t115.5 -76.5t77 -115t28 -143.5t-28 -143.5t-77 -115.5t-115.5 -76.5t-142.5 -27.5zM280 913h109l77 -145h-73z" />
    <glyph glyph-name="Oacute" unicode="&#xd3;" horiz-adv-x="802" 
d="M401 79q58 0 107.5 21t85.5 58.5t56.5 87.5t20.5 109q0 58 -20.5 108.5t-56.5 88t-85.5 58.5t-107.5 21t-107.5 -21t-85.5 -58.5t-56.5 -88t-20.5 -108.5q0 -59 20.5 -109t56.5 -87.5t85.5 -58.5t107.5 -21zM401 -8q-76 0 -142.5 27.5t-115.5 76.5t-77 115.5t-28 143.5
t28 143.5t77 115t115.5 76.5t142.5 28t142.5 -28t115.5 -76.5t77 -115t28 -143.5t-28 -143.5t-77 -115.5t-115.5 -76.5t-142.5 -27.5zM412 913h108l-112 -145h-73z" />
    <glyph glyph-name="Ocircumflex" unicode="&#xd4;" horiz-adv-x="802" 
d="M401 79q58 0 107.5 21t85.5 58.5t56.5 87.5t20.5 109q0 58 -20.5 108.5t-56.5 88t-85.5 58.5t-107.5 21t-107.5 -21t-85.5 -58.5t-56.5 -88t-20.5 -108.5q0 -59 20.5 -109t56.5 -87.5t85.5 -58.5t107.5 -21zM401 -8q-76 0 -142.5 27.5t-115.5 76.5t-77 115.5t-28 143.5
t28 143.5t77 115t115.5 76.5t142.5 28t142.5 -28t115.5 -76.5t77 -115t28 -143.5t-28 -143.5t-77 -115.5t-115.5 -76.5t-142.5 -27.5zM228 826l173 100l173 -100l-35 -60l-138 82l-138 -82z" />
    <glyph glyph-name="Otilde" unicode="&#xd5;" horiz-adv-x="802" 
d="M401 79q58 0 107.5 21t85.5 58.5t56.5 87.5t20.5 109q0 58 -20.5 108.5t-56.5 88t-85.5 58.5t-107.5 21t-107.5 -21t-85.5 -58.5t-56.5 -88t-20.5 -108.5q0 -59 20.5 -109t56.5 -87.5t85.5 -58.5t107.5 -21zM401 -8q-76 0 -142.5 27.5t-115.5 76.5t-77 115.5t-28 143.5
t28 143.5t77 115t115.5 76.5t142.5 28t142.5 -28t115.5 -76.5t77 -115t28 -143.5t-28 -143.5t-77 -115.5t-115.5 -76.5t-142.5 -27.5zM469 783q-21 0 -39 7t-33.5 15t-29 15t-26.5 7q-20 0 -30.5 -10.5t-15.5 -32.5h-69l4 18q4 23 14.5 41t25 30t31.5 18.5t34 6.5
q21 0 38.5 -7t33 -15t29 -15t25.5 -7q21 0 32 10t16 33h68l-3 -18q-8 -45 -38 -70.5t-67 -25.5z" />
    <glyph glyph-name="Odieresis" unicode="&#xd6;" horiz-adv-x="802" 
d="M401 79q58 0 107.5 21t85.5 58.5t56.5 87.5t20.5 109q0 58 -20.5 108.5t-56.5 88t-85.5 58.5t-107.5 21t-107.5 -21t-85.5 -58.5t-56.5 -88t-20.5 -108.5q0 -59 20.5 -109t56.5 -87.5t85.5 -58.5t107.5 -21zM401 -8q-76 0 -142.5 27.5t-115.5 76.5t-77 115.5t-28 143.5
t28 143.5t77 115t115.5 76.5t142.5 28t142.5 -28t115.5 -76.5t77 -115t28 -143.5t-28 -143.5t-77 -115.5t-115.5 -76.5t-142.5 -27.5zM288 782q-24 0 -42.5 18t-18.5 44q0 25 18.5 42.5t42.5 17.5q26 0 44 -17.5t18 -42.5q0 -26 -18 -44t-44 -18zM513 782q-25 0 -43 18
t-18 44q0 25 18 42.5t43 17.5q26 0 44 -17.5t18 -42.5q0 -26 -18 -44t-44 -18z" />
    <glyph glyph-name="multiply" unicode="&#xd7;" horiz-adv-x="590" 
d="M98 119l148 147l-150 150l50 49l149 -150l148 148l49 -49l-148 -148l150 -149l-49 -49l-150 149l-147 -147z" />
    <glyph glyph-name="Oslash" unicode="&#xd8;" horiz-adv-x="802" 
d="M67 36l64 72q-44 48 -68.5 111t-24.5 136q0 77 28 143.5t77 115t115.5 76.5t142.5 28q60 0 114 -17.5t99 -49.5l71 79l54 -51l-69 -77q44 -48 69 -111t25 -136q0 -77 -28 -143.5t-77 -115.5t-115.5 -76.5t-142.5 -27.5q-61 0 -115.5 17.5t-99.5 49.5l-66 -74zM401 79
q58 0 107.5 21t85.5 58.5t56.5 87.5t20.5 109q0 52 -16.5 97.5t-45.5 81.5l-363 -408q32 -23 71 -35t84 -12zM131 355q0 -52 16 -97.5t45 -81.5l363 408q-32 23 -71 35t-83 12q-58 0 -107.5 -21t-85.5 -58.5t-56.5 -88t-20.5 -108.5z" />
    <glyph glyph-name="Ugrave" unicode="&#xd9;" horiz-adv-x="721" 
d="M360 -8q-62 0 -114 19t-89.5 55t-58.5 87.5t-21 116.5v440h91v-444q0 -46 14 -81t39.5 -58.5t60.5 -35.5t78 -12t78 12t60.5 35.5t39.5 58.5t14 81v444h91v-440q0 -65 -21 -116.5t-58.5 -87.5t-89.5 -55t-114 -19zM236 913h109l77 -145h-73z" />
    <glyph glyph-name="Uacute" unicode="&#xda;" horiz-adv-x="721" 
d="M360 -8q-62 0 -114 19t-89.5 55t-58.5 87.5t-21 116.5v440h91v-444q0 -46 14 -81t39.5 -58.5t60.5 -35.5t78 -12t78 12t60.5 35.5t39.5 58.5t14 81v444h91v-440q0 -65 -21 -116.5t-58.5 -87.5t-89.5 -55t-114 -19zM376 913h108l-112 -145h-73z" />
    <glyph glyph-name="Ucircumflex" unicode="&#xdb;" horiz-adv-x="721" 
d="M360 -8q-62 0 -114 19t-89.5 55t-58.5 87.5t-21 116.5v440h91v-444q0 -46 14 -81t39.5 -58.5t60.5 -35.5t78 -12t78 12t60.5 35.5t39.5 58.5t14 81v444h91v-440q0 -65 -21 -116.5t-58.5 -87.5t-89.5 -55t-114 -19zM187 826l173 100l173 -100l-35 -60l-138 82l-138 -82z
" />
    <glyph glyph-name="Udieresis" unicode="&#xdc;" horiz-adv-x="721" 
d="M360 -8q-62 0 -114 19t-89.5 55t-58.5 87.5t-21 116.5v440h91v-444q0 -46 14 -81t39.5 -58.5t60.5 -35.5t78 -12t78 12t60.5 35.5t39.5 58.5t14 81v444h91v-440q0 -65 -21 -116.5t-58.5 -87.5t-89.5 -55t-114 -19zM247 782q-24 0 -42.5 18t-18.5 44q0 25 18.5 42.5
t42.5 17.5q26 0 44 -17.5t18 -42.5q0 -26 -18 -44t-44 -18zM472 782q-25 0 -43 18t-18 44q0 25 18 42.5t43 17.5q26 0 44 -17.5t18 -42.5q0 -26 -18 -44t-44 -18z" />
    <glyph glyph-name="Yacute" unicode="&#xdd;" horiz-adv-x="632" 
d="M270 301l-260 409h106l200 -320l200 320h106l-260 -409v-301h-92v301zM357 913h108l-112 -145h-73z" />
    <glyph glyph-name="Thorn" unicode="&#xde;" horiz-adv-x="550" 
d="M86 710h91v-136h102q57 0 103.5 -15.5t79.5 -44t51 -68.5t18 -89q0 -50 -18 -90t-51 -68.5t-79.5 -44t-103.5 -15.5h-102v-139h-91v710zM278 223q78 0 119.5 35.5t41.5 98.5t-41.5 97.5t-119.5 34.5h-101v-266h101z" />
    <glyph glyph-name="germandbls" unicode="&#xdf;" horiz-adv-x="565" 
d="M77 527q0 47 16 85.5t44 66t65.5 42.5t79.5 15t79.5 -15t65 -40.5t44 -60.5t16.5 -75q0 -49 -23 -90.5t-65 -67.5q31 -12 55.5 -31.5t40.5 -43.5t24.5 -50.5t8.5 -53.5q0 -42 -16 -79.5t-46 -66t-72.5 -45.5t-95.5 -17h-51v81h47q32 0 59 9.5t47 26.5t31 40.5t11 52.5
q0 28 -11 52t-31 41.5t-47 27t-59 9.5h-45v80h26q28 0 51 9t39.5 25t26 37.5t9.5 45.5q0 25 -9 46.5t-25 37.5t-37.5 25t-46.5 9q-26 0 -47.5 -9.5t-38 -26.5t-25.5 -41t-9 -52v-526h-86v527z" />
    <glyph glyph-name="agrave" unicode="&#xe0;" horiz-adv-x="620" 
d="M457 50q-32 -29 -72.5 -43.5t-86.5 -14.5q-55 0 -102 20t-81 54.5t-53 82t-19 101.5t19 101.5t53 82t81 54.5t102 20q46 0 86.5 -14.5t72.5 -43.5v50h86v-500h-86v50zM300 73q54 0 94.5 23t62.5 58v192q-22 35 -62.5 58t-94.5 23q-37 0 -67.5 -13.5t-53 -37.5t-35 -56.5
t-12.5 -69.5t12.5 -69.5t35 -56.5t53 -37.5t67.5 -13.5zM158 710h109l87 -165h-71z" />
    <glyph glyph-name="aacute" unicode="&#xe1;" horiz-adv-x="620" 
d="M457 50q-32 -29 -72.5 -43.5t-86.5 -14.5q-55 0 -102 20t-81 54.5t-53 82t-19 101.5t19 101.5t53 82t81 54.5t102 20q46 0 86.5 -14.5t72.5 -43.5v50h86v-500h-86v50zM300 73q54 0 94.5 23t62.5 58v192q-22 35 -62.5 58t-94.5 23q-37 0 -67.5 -13.5t-53 -37.5t-35 -56.5
t-12.5 -69.5t12.5 -69.5t35 -56.5t53 -37.5t67.5 -13.5zM349 710h109l-124 -165h-72z" />
    <glyph glyph-name="acircumflex" unicode="&#xe2;" horiz-adv-x="620" 
d="M457 50q-32 -29 -72.5 -43.5t-86.5 -14.5q-55 0 -102 20t-81 54.5t-53 82t-19 101.5t19 101.5t53 82t81 54.5t102 20q46 0 86.5 -14.5t72.5 -43.5v50h86v-500h-86v50zM300 73q54 0 94.5 23t62.5 58v192q-22 35 -62.5 58t-94.5 23q-37 0 -67.5 -13.5t-53 -37.5t-35 -56.5
t-12.5 -69.5t12.5 -69.5t35 -56.5t53 -37.5t67.5 -13.5zM148 611l170 107l170 -107l-35 -58l-135 86l-136 -86z" />
    <glyph glyph-name="atilde" unicode="&#xe3;" horiz-adv-x="620" 
d="M457 50q-32 -29 -72.5 -43.5t-86.5 -14.5q-55 0 -102 20t-81 54.5t-53 82t-19 101.5t19 101.5t53 82t81 54.5t102 20q46 0 86.5 -14.5t72.5 -43.5v50h86v-500h-86v50zM300 73q54 0 94.5 23t62.5 58v192q-22 35 -62.5 58t-94.5 23q-37 0 -67.5 -13.5t-53 -37.5t-35 -56.5
t-12.5 -69.5t12.5 -69.5t35 -56.5t53 -37.5t67.5 -13.5zM148 585q9 45 38.5 69.5t64.5 24.5q21 0 38.5 -7t33 -15t29 -15t25.5 -7q21 0 32 11t16 33h66l-3 -18q-8 -42 -36.5 -68t-66.5 -26q-21 0 -39 7t-33.5 15t-29 15t-26.5 7q-20 0 -30.5 -11t-15.5 -34h-66z" />
    <glyph glyph-name="adieresis" unicode="&#xe4;" horiz-adv-x="620" 
d="M457 50q-32 -29 -72.5 -43.5t-86.5 -14.5q-55 0 -102 20t-81 54.5t-53 82t-19 101.5t19 101.5t53 82t81 54.5t102 20q46 0 86.5 -14.5t72.5 -43.5v50h86v-500h-86v50zM300 73q54 0 94.5 23t62.5 58v192q-22 35 -62.5 58t-94.5 23q-37 0 -67.5 -13.5t-53 -37.5t-35 -56.5
t-12.5 -69.5t12.5 -69.5t35 -56.5t53 -37.5t67.5 -13.5zM205 571q-24 0 -42 17t-18 43q0 25 18 42t42 17q26 0 43.5 -17t17.5 -42q0 -26 -17.5 -43t-43.5 -17zM430 571q-25 0 -42.5 17t-17.5 43q0 25 17.5 42t42.5 17q26 0 43 -17t17 -42q0 -26 -17 -43t-43 -17z" />
    <glyph glyph-name="aring" unicode="&#xe5;" horiz-adv-x="620" 
d="M457 50q-32 -29 -72.5 -43.5t-86.5 -14.5q-55 0 -102 20t-81 54.5t-53 82t-19 101.5t19 101.5t53 82t81 54.5t102 20q46 0 86.5 -14.5t72.5 -43.5v50h86v-500h-86v50zM300 73q54 0 94.5 23t62.5 58v192q-22 35 -62.5 58t-94.5 23q-37 0 -67.5 -13.5t-53 -37.5t-35 -56.5
t-12.5 -69.5t12.5 -69.5t35 -56.5t53 -37.5t67.5 -13.5zM298 613q20 0 34 13t14 34q0 22 -14 35t-34 13t-34 -13t-14 -35q0 -21 14 -34t34 -13zM298 566q-21 0 -39 7t-31.5 20t-21 30t-7.5 37q0 42 29 68.5t70 26.5t70 -26.5t29 -68.5q0 -20 -7.5 -37t-21 -30t-31.5 -20
t-39 -7z" />
    <glyph glyph-name="ae" unicode="&#xe6;" horiz-adv-x="922" 
d="M645 -8q-65 0 -117.5 26.5t-87.5 72.5q-42 -48 -94 -73.5t-118 -25.5q-91 0 -145 44.5t-54 121.5q0 36 15 66t42 51.5t65 34t83 12.5q51 0 88.5 -10.5t64.5 -25.5v25q-1 35 -13 57.5t-31 35.5t-43.5 18t-50.5 5q-44 0 -80 -14.5t-62 -36.5l-41 70q32 26 79.5 44t104.5 18
q61 0 113 -23t77 -76q35 45 86 72t113 27q52 0 96.5 -18.5t77 -54t51 -87.5t19.5 -119h-406q3 -33 17 -61.5t36 -49.5t51.5 -33t63.5 -12q48 0 85 18t61 42l55 -60q-32 -34 -83.5 -57.5t-117.5 -23.5zM232 73q56 0 95.5 22t59.5 55v56q-26 20 -61 31.5t-85 11.5
q-25 0 -47 -5.5t-39 -17t-27 -28.5t-10 -40t9.5 -39t25.5 -26.5t36.5 -15t42.5 -4.5zM634 429q-55 0 -97 -34t-56 -91h305q-9 62 -52 94t-100 31z" />
    <glyph glyph-name="ccedilla" unicode="&#xe7;" horiz-adv-x="528" 
d="M300 -8q-56 0 -103 20t-81 55t-53.5 82t-19.5 101t19.5 101t53.5 82t81 55t103 20q63 0 110.5 -22.5t80.5 -56.5l-55 -60q-24 24 -57.5 41t-78.5 17q-37 0 -67.5 -13.5t-53 -37.5t-35 -56.5t-12.5 -69.5t12.5 -69.5t35 -56.5t53 -37.5t67.5 -13.5q45 0 78.5 17t57.5 41
l55 -60q-33 -34 -80.5 -56.5t-110.5 -22.5zM262 0h59l-38 -135h-98z" />
    <glyph glyph-name="egrave" unicode="&#xe8;" horiz-adv-x="577" 
d="M300 -8q-56 0 -103 20t-81 55t-53.5 82t-19.5 101t19.5 101.5t53.5 82t79.5 54.5t98.5 20q52 0 96.5 -18.5t77 -54t51 -87.5t19.5 -119h-406q3 -33 17 -61.5t36 -49.5t51.5 -33t63.5 -12q48 0 85 18t61 42l55 -60q-32 -34 -83.5 -57.5t-117.5 -23.5zM289 429
q-55 0 -97 -34t-56 -91h305q-9 62 -52 94t-100 31zM164 710h109l87 -165h-71z" />
    <glyph glyph-name="eacute" unicode="&#xe9;" horiz-adv-x="577" 
d="M300 -8q-56 0 -103 20t-81 55t-53.5 82t-19.5 101t19.5 101.5t53.5 82t79.5 54.5t98.5 20q52 0 96.5 -18.5t77 -54t51 -87.5t19.5 -119h-406q3 -33 17 -61.5t36 -49.5t51.5 -33t63.5 -12q48 0 85 18t61 42l55 -60q-32 -34 -83.5 -57.5t-117.5 -23.5zM289 429
q-55 0 -97 -34t-56 -91h305q-9 62 -52 94t-100 31zM325 710h109l-124 -165h-72z" />
    <glyph glyph-name="ecircumflex" unicode="&#xea;" horiz-adv-x="577" 
d="M300 -8q-56 0 -103 20t-81 55t-53.5 82t-19.5 101t19.5 101.5t53.5 82t79.5 54.5t98.5 20q52 0 96.5 -18.5t77 -54t51 -87.5t19.5 -119h-406q3 -33 17 -61.5t36 -49.5t51.5 -33t63.5 -12q48 0 85 18t61 42l55 -60q-32 -34 -83.5 -57.5t-117.5 -23.5zM289 429
q-55 0 -97 -34t-56 -91h305q-9 62 -52 94t-100 31zM124 611l170 107l170 -107l-35 -58l-135 86l-136 -86z" />
    <glyph glyph-name="edieresis" unicode="&#xeb;" horiz-adv-x="577" 
d="M300 -8q-56 0 -103 20t-81 55t-53.5 82t-19.5 101t19.5 101.5t53.5 82t79.5 54.5t98.5 20q52 0 96.5 -18.5t77 -54t51 -87.5t19.5 -119h-406q3 -33 17 -61.5t36 -49.5t51.5 -33t63.5 -12q48 0 85 18t61 42l55 -60q-32 -34 -83.5 -57.5t-117.5 -23.5zM289 429
q-55 0 -97 -34t-56 -91h305q-9 62 -52 94t-100 31zM182 571q-24 0 -42 17t-18 43q0 25 18 42t42 17q26 0 43.5 -17t17.5 -42q0 -26 -17.5 -43t-43.5 -17zM407 571q-25 0 -42.5 17t-17.5 43q0 25 17.5 42t42.5 17q26 0 43 -17t17 -42q0 -26 -17 -43t-43 -17z" />
    <glyph glyph-name="igrave" unicode="&#xec;" 
d="M77 500h86v-500h-86v500zM-9 710h109l87 -165h-71z" />
    <glyph glyph-name="iacute" unicode="&#xed;" 
d="M77 500h86v-500h-86v500zM142 710h109l-124 -165h-72z" />
    <glyph glyph-name="icircumflex" unicode="&#xee;" 
d="M-49 611l170 107l170 -107l-35 -58l-135 86l-136 -86zM77 500h86v-500h-86v500z" />
    <glyph glyph-name="idieresis" unicode="&#xef;" 
d="M77 500h86v-500h-86v500zM8 571q-24 0 -42 17t-18 43q0 25 18 42t42 17q26 0 43.5 -17t17.5 -42q0 -26 -17.5 -43t-43.5 -17zM233 571q-25 0 -42.5 17t-17.5 43q0 25 17.5 42t42.5 17q26 0 43 -17t17 -42q0 -26 -17 -43t-43 -17z" />
    <glyph glyph-name="eth" unicode="&#xf0;" horiz-adv-x="605" 
d="M177 629h85l-55 81h94l56 -81h125v-67h-79l105 -152q30 -45 42 -83t12 -77q0 -53 -19.5 -100t-54 -82t-82.5 -55.5t-104 -20.5t-103.5 20.5t-82 55.5t-54 82t-19.5 100q0 52 18.5 98.5t52 81.5t79.5 55.5t101 22.5q16 0 30.5 -2.5t27.5 -6.5l-44 63h-131v67zM302 71
q39 0 70.5 14t54 38.5t35 57t12.5 69.5t-12.5 69.5t-35 57t-54 38.5t-70.5 14q-38 0 -70 -14t-54.5 -38.5t-35 -57t-12.5 -69.5t12.5 -69.5t35 -57t54.5 -38.5t70 -14z" />
    <glyph glyph-name="ntilde" unicode="&#xf1;" horiz-adv-x="578" 
d="M77 500h86v-57q29 36 70 50.5t85 14.5q42 0 77.5 -14.5t61 -40.5t40 -64t14.5 -84v-305h-86v300q0 55 -33.5 91t-92.5 36q-53 0 -87.5 -27.5t-48.5 -76.5v-323h-86v500zM124 585q9 45 38.5 69.5t64.5 24.5q21 0 38.5 -7t33 -15t29 -15t25.5 -7q21 0 32 11t16 33h66
l-3 -18q-8 -42 -36.5 -68t-66.5 -26q-21 0 -39 7t-33.5 15t-29 15t-26.5 7q-20 0 -30.5 -11t-15.5 -34h-66z" />
    <glyph glyph-name="ograve" unicode="&#xf2;" horiz-adv-x="605" 
d="M303 73q38 0 69.5 13.5t54 37.5t34.5 56.5t12 69.5t-12 69.5t-34.5 56.5t-54 37.5t-69.5 13.5t-69.5 -13.5t-54 -37.5t-35 -56.5t-12.5 -69.5t12.5 -69.5t35 -56.5t54 -37.5t69.5 -13.5zM303 -8q-57 0 -104.5 20t-82 55t-54 82t-19.5 101t19.5 101t54 82t82 55t104.5 20
q56 0 103.5 -20t82 -55t54 -82t19.5 -101t-19.5 -101t-54 -82t-82 -55t-103.5 -20zM162 710h109l87 -165h-71z" />
    <glyph glyph-name="oacute" unicode="&#xf3;" horiz-adv-x="605" 
d="M303 73q38 0 69.5 13.5t54 37.5t34.5 56.5t12 69.5t-12 69.5t-34.5 56.5t-54 37.5t-69.5 13.5t-69.5 -13.5t-54 -37.5t-35 -56.5t-12.5 -69.5t12.5 -69.5t35 -56.5t54 -37.5t69.5 -13.5zM303 -8q-57 0 -104.5 20t-82 55t-54 82t-19.5 101t19.5 101t54 82t82 55t104.5 20
q56 0 103.5 -20t82 -55t54 -82t19.5 -101t-19.5 -101t-54 -82t-82 -55t-103.5 -20zM334 710h109l-124 -165h-72z" />
    <glyph glyph-name="ocircumflex" unicode="&#xf4;" horiz-adv-x="605" 
d="M303 73q38 0 69.5 13.5t54 37.5t34.5 56.5t12 69.5t-12 69.5t-34.5 56.5t-54 37.5t-69.5 13.5t-69.5 -13.5t-54 -37.5t-35 -56.5t-12.5 -69.5t12.5 -69.5t35 -56.5t54 -37.5t69.5 -13.5zM303 -8q-57 0 -104.5 20t-82 55t-54 82t-19.5 101t19.5 101t54 82t82 55t104.5 20
q56 0 103.5 -20t82 -55t54 -82t19.5 -101t-19.5 -101t-54 -82t-82 -55t-103.5 -20zM132 611l170 107l170 -107l-35 -58l-135 86l-136 -86z" />
    <glyph glyph-name="otilde" unicode="&#xf5;" horiz-adv-x="605" 
d="M303 73q38 0 69.5 13.5t54 37.5t34.5 56.5t12 69.5t-12 69.5t-34.5 56.5t-54 37.5t-69.5 13.5t-69.5 -13.5t-54 -37.5t-35 -56.5t-12.5 -69.5t12.5 -69.5t35 -56.5t54 -37.5t69.5 -13.5zM303 -8q-57 0 -104.5 20t-82 55t-54 82t-19.5 101t19.5 101t54 82t82 55t104.5 20
q56 0 103.5 -20t82 -55t54 -82t19.5 -101t-19.5 -101t-54 -82t-82 -55t-103.5 -20zM132 585q9 45 38.5 69.5t64.5 24.5q21 0 38.5 -7t33 -15t29 -15t25.5 -7q21 0 32 11t16 33h66l-3 -18q-8 -42 -36.5 -68t-66.5 -26q-21 0 -39 7t-33.5 15t-29 15t-26.5 7q-20 0 -30.5 -11
t-15.5 -34h-66z" />
    <glyph glyph-name="odieresis" unicode="&#xf6;" horiz-adv-x="605" 
d="M303 73q38 0 69.5 13.5t54 37.5t34.5 56.5t12 69.5t-12 69.5t-34.5 56.5t-54 37.5t-69.5 13.5t-69.5 -13.5t-54 -37.5t-35 -56.5t-12.5 -69.5t12.5 -69.5t35 -56.5t54 -37.5t69.5 -13.5zM303 -8q-57 0 -104.5 20t-82 55t-54 82t-19.5 101t19.5 101t54 82t82 55t104.5 20
q56 0 103.5 -20t82 -55t54 -82t19.5 -101t-19.5 -101t-54 -82t-82 -55t-103.5 -20zM189 571q-24 0 -42 17t-18 43q0 25 18 42t42 17q26 0 43.5 -17t17.5 -42q0 -26 -17.5 -43t-43.5 -17zM414 571q-25 0 -42.5 17t-17.5 43q0 25 17.5 42t42.5 17q26 0 43 -17t17 -42
q0 -26 -17 -43t-43 -17z" />
    <glyph glyph-name="divide" unicode="&#xf7;" horiz-adv-x="630" 
d="M315 69q-27 0 -47 19t-20 47t20 47t47 19q28 0 47 -19t19 -47t-19 -47t-47 -19zM96 310h438v-70h-438v70zM315 348q-27 0 -47 19.5t-20 47.5q0 27 20 46.5t47 19.5q28 0 47 -19.5t19 -46.5q0 -28 -19 -47.5t-47 -19.5z" />
    <glyph glyph-name="oslash" unicode="&#xf8;" horiz-adv-x="606" 
d="M39 34l56 57q-25 33 -38.5 73.5t-13.5 85.5q0 54 19.5 101t54 82t82 55t104.5 20q45 0 83.5 -12.5t70.5 -35.5l54 55l50 -50l-53 -54q26 -33 40 -74t14 -87q0 -54 -19.5 -101t-54 -82t-82 -55t-103.5 -20q-46 0 -86 13t-72 37l-56 -58zM303 73q38 0 69.5 13.5t54 37.5
t34.5 56.5t12 69.5q0 54 -27 98l-241 -246q20 -14 44.5 -21.5t53.5 -7.5zM132 250q0 -54 25 -96l241 245q-42 28 -95 28q-38 0 -69.5 -13.5t-54 -37.5t-35 -56.5t-12.5 -69.5z" />
    <glyph glyph-name="ugrave" unicode="&#xf9;" horiz-adv-x="568" 
d="M405 56q-29 -36 -69.5 -50t-84.5 -14q-43 0 -78.5 14.5t-61 40.5t-39.5 63.5t-14 84.5v305h86v-300q0 -55 33.5 -91t91.5 -36q52 0 86.5 26t49.5 74v327h86v-500h-86v56zM133 710h109l87 -165h-71z" />
    <glyph glyph-name="uacute" unicode="&#xfa;" horiz-adv-x="568" 
d="M405 56q-29 -36 -69.5 -50t-84.5 -14q-43 0 -78.5 14.5t-61 40.5t-39.5 63.5t-14 84.5v305h86v-300q0 -55 33.5 -91t91.5 -36q52 0 86.5 26t49.5 74v327h86v-500h-86v56zM305 710h109l-124 -165h-72z" />
    <glyph glyph-name="ucircumflex" unicode="&#xfb;" horiz-adv-x="568" 
d="M405 56q-29 -36 -69.5 -50t-84.5 -14q-43 0 -78.5 14.5t-61 40.5t-39.5 63.5t-14 84.5v305h86v-300q0 -55 33.5 -91t91.5 -36q52 0 86.5 26t49.5 74v327h86v-500h-86v56zM104 611l170 107l170 -107l-35 -58l-135 86l-136 -86z" />
    <glyph glyph-name="udieresis" unicode="&#xfc;" horiz-adv-x="568" 
d="M405 56q-29 -36 -69.5 -50t-84.5 -14q-43 0 -78.5 14.5t-61 40.5t-39.5 63.5t-14 84.5v305h86v-300q0 -55 33.5 -91t91.5 -36q52 0 86.5 26t49.5 74v327h86v-500h-86v56zM161 571q-24 0 -42 17t-18 43q0 25 18 42t42 17q26 0 43.5 -17t17.5 -42q0 -26 -17.5 -43
t-43.5 -17zM386 571q-25 0 -42.5 17t-17.5 43q0 25 17.5 42t42.5 17q26 0 43 -17t17 -42q0 -26 -17 -43t-43 -17z" />
    <glyph glyph-name="yacute" unicode="&#xfd;" horiz-adv-x="510" 
d="M210 42l-204 458h93l156 -364l157 364h93l-307 -684h-91zM306 710h109l-124 -165h-72z" />
    <glyph glyph-name="thorn" unicode="&#xfe;" horiz-adv-x="620" 
d="M77 710h86v-260q31 29 71.5 43.5t87.5 14.5q55 0 102 -20t81 -54.5t53 -82t19 -101.5t-19 -101.5t-53 -82t-81 -54.5t-102 -20q-47 0 -87.5 14.5t-71.5 43.5v-234h-86v894zM320 427q-54 0 -95 -23t-62 -58v-192q21 -35 62 -58t95 -23q37 0 67.5 13.5t53 37.5t35 56.5
t12.5 69.5t-12.5 69.5t-35 56.5t-53 37.5t-67.5 13.5z" />
    <glyph glyph-name="ydieresis" unicode="&#xff;" horiz-adv-x="510" 
d="M210 42l-204 458h93l156 -364l157 364h93l-307 -684h-91zM149 571q-24 0 -42 17t-18 43q0 25 18 42t42 17q26 0 43.5 -17t17.5 -42q0 -26 -17.5 -43t-43.5 -17zM374 571q-25 0 -42.5 17t-17.5 43q0 25 17.5 42t42.5 17q26 0 43 -17t17 -42q0 -26 -17 -43t-43 -17z" />
    <glyph glyph-name="Amacron" unicode="&#x100;" horiz-adv-x="710" 
d="M355 718l346 -718h-98l-88 186h-320l-88 -186h-98zM235 270h240l-120 254zM208 868h292v-65h-292v65z" />
    <glyph glyph-name="amacron" unicode="&#x101;" horiz-adv-x="620" 
d="M457 50q-32 -29 -72.5 -43.5t-86.5 -14.5q-55 0 -102 20t-81 54.5t-53 82t-19 101.5t19 101.5t53 82t81 54.5t102 20q46 0 86.5 -14.5t72.5 -43.5v50h86v-500h-86v50zM300 73q54 0 94.5 23t62.5 58v192q-22 35 -62.5 58t-94.5 23q-37 0 -67.5 -13.5t-53 -37.5t-35 -56.5
t-12.5 -69.5t12.5 -69.5t35 -56.5t53 -37.5t67.5 -13.5zM172 679h292v-65h-292v65z" />
    <glyph glyph-name="Abreve" unicode="&#x102;" horiz-adv-x="710" 
d="M355 718l346 -718h-98l-88 186h-320l-88 -186h-98zM235 270h240l-120 254zM353 772q-35 0 -63 11t-48.5 29.5t-32 43.5t-12.5 53h64q2 -31 26 -55t67 -24t67.5 24t26.5 55h64q-2 -28 -13.5 -53t-32 -43.5t-49 -29.5t-64.5 -11z" />
    <glyph glyph-name="abreve" unicode="&#x103;" horiz-adv-x="620" 
d="M457 50q-32 -29 -72.5 -43.5t-86.5 -14.5q-55 0 -102 20t-81 54.5t-53 82t-19 101.5t19 101.5t53 82t81 54.5t102 20q46 0 86.5 -14.5t72.5 -43.5v50h86v-500h-86v50zM300 73q54 0 94.5 23t62.5 58v192q-22 35 -62.5 58t-94.5 23q-37 0 -67.5 -13.5t-53 -37.5t-35 -56.5
t-12.5 -69.5t12.5 -69.5t35 -56.5t53 -37.5t67.5 -13.5zM317 573q-35 0 -63 11t-48.5 29.5t-32 43.5t-12.5 53h64q2 -31 26 -55t67 -24t67.5 24t26.5 55h64q-2 -28 -13.5 -53t-32 -43.5t-49 -29.5t-64.5 -11z" />
    <glyph glyph-name="Aogonek" unicode="&#x104;" horiz-adv-x="710" 
d="M355 718l346 -718h-1q-31 -14 -53.5 -34.5t-22.5 -46.5q0 -25 15 -36.5t29 -11.5q8 0 17.5 3t15.5 8v-54q-27 -18 -61 -18q-19 0 -36.5 6.5t-31 19t-21.5 30t-8 39.5q0 29 17 55t43 40l-88 186h-320l-88 -186h-98zM235 270h240l-120 254z" />
    <glyph glyph-name="aogonek" unicode="&#x105;" horiz-adv-x="622" 
d="M457 50q-32 -29 -72.5 -43.5t-86.5 -14.5q-55 0 -102 20t-81 54.5t-53 82t-19 101.5t19 101.5t53 82t81 54.5t102 20q46 0 86.5 -14.5t72.5 -43.5v50h86v-500q-30 -14 -50 -36t-20 -45t14.5 -35.5t28.5 -12.5q8 0 15.5 3t13.5 8v-54q-22 -18 -58 -18q-17 0 -33.5 6.5
t-29.5 19t-21 30t-8 39.5q0 29 18 55t44 40v50zM300 73q54 0 94.5 23t62.5 58v192q-22 35 -62.5 58t-94.5 23q-37 0 -67.5 -13.5t-53 -37.5t-35 -56.5t-12.5 -69.5t12.5 -69.5t35 -56.5t53 -37.5t67.5 -13.5z" />
    <glyph glyph-name="Cacute" unicode="&#x106;" horiz-adv-x="663" 
d="M401 -8q-76 0 -142.5 27.5t-115.5 76.5t-77 115.5t-28 143.5t28 143.5t77 115t115.5 76.5t142.5 28q67 0 125.5 -21t104.5 -63l-53 -69q-35 29 -79 47.5t-98 18.5q-58 0 -107.5 -21t-85.5 -58.5t-56.5 -88t-20.5 -108.5q0 -59 20.5 -109t56.5 -87.5t85.5 -58.5t107.5 -21
q54 0 98 18.5t79 47.5l53 -69q-46 -42 -104.5 -63t-125.5 -21zM413 913h108l-112 -145h-73z" />
    <glyph glyph-name="cacute" unicode="&#x107;" horiz-adv-x="528" 
d="M300 -8q-56 0 -103 20t-81 55t-53.5 82t-19.5 101t19.5 101t53.5 82t81 55t103 20q63 0 110.5 -22.5t80.5 -56.5l-55 -60q-24 24 -57.5 41t-78.5 17q-37 0 -67.5 -13.5t-53 -37.5t-35 -56.5t-12.5 -69.5t12.5 -69.5t35 -56.5t53 -37.5t67.5 -13.5q45 0 78.5 17t57.5 41
l55 -60q-33 -34 -80.5 -56.5t-110.5 -22.5zM332 710h109l-124 -165h-72z" />
    <glyph glyph-name="Ccircumflex" unicode="&#x108;" horiz-adv-x="663" 
d="M401 -8q-76 0 -142.5 27.5t-115.5 76.5t-77 115.5t-28 143.5t28 143.5t77 115t115.5 76.5t142.5 28q67 0 125.5 -21t104.5 -63l-53 -69q-35 29 -79 47.5t-98 18.5q-58 0 -107.5 -21t-85.5 -58.5t-56.5 -88t-20.5 -108.5q0 -59 20.5 -109t56.5 -87.5t85.5 -58.5t107.5 -21
q54 0 98 18.5t79 47.5l53 -69q-46 -42 -104.5 -63t-125.5 -21zM227 826l173 100l173 -100l-35 -60l-138 82l-138 -82z" />
    <glyph glyph-name="ccircumflex" unicode="&#x109;" horiz-adv-x="528" 
d="M300 -8q-56 0 -103 20t-81 55t-53.5 82t-19.5 101t19.5 101t53.5 82t81 55t103 20q63 0 110.5 -22.5t80.5 -56.5l-55 -60q-24 24 -57.5 41t-78.5 17q-37 0 -67.5 -13.5t-53 -37.5t-35 -56.5t-12.5 -69.5t12.5 -69.5t35 -56.5t53 -37.5t67.5 -13.5q45 0 78.5 17t57.5 41
l55 -60q-33 -34 -80.5 -56.5t-110.5 -22.5zM131 611l170 107l170 -107l-35 -58l-135 86l-136 -86z" />
    <glyph glyph-name="Cdotaccent" unicode="&#x10a;" horiz-adv-x="663" 
d="M401 -8q-76 0 -142.5 27.5t-115.5 76.5t-77 115.5t-28 143.5t28 143.5t77 115t115.5 76.5t142.5 28q67 0 125.5 -21t104.5 -63l-53 -69q-35 29 -79 47.5t-98 18.5q-58 0 -107.5 -21t-85.5 -58.5t-56.5 -88t-20.5 -108.5q0 -59 20.5 -109t56.5 -87.5t85.5 -58.5t107.5 -21
q54 0 98 18.5t79 47.5l53 -69q-46 -42 -104.5 -63t-125.5 -21zM401 780q-25 0 -43.5 18.5t-18.5 45.5q0 26 18.5 44t43.5 18q27 0 45.5 -18t18.5 -44q0 -27 -18.5 -45.5t-45.5 -18.5z" />
    <glyph glyph-name="cdotaccent" unicode="&#x10b;" horiz-adv-x="528" 
d="M300 -8q-56 0 -103 20t-81 55t-53.5 82t-19.5 101t19.5 101t53.5 82t81 55t103 20q63 0 110.5 -22.5t80.5 -56.5l-55 -60q-24 24 -57.5 41t-78.5 17q-37 0 -67.5 -13.5t-53 -37.5t-35 -56.5t-12.5 -69.5t12.5 -69.5t35 -56.5t53 -37.5t67.5 -13.5q45 0 78.5 17t57.5 41
l55 -60q-33 -34 -80.5 -56.5t-110.5 -22.5zM302 569q-26 0 -44 18t-18 44t18 43.5t44 17.5t44 -17.5t18 -43.5t-18 -44t-44 -18z" />
    <glyph glyph-name="Ccaron" unicode="&#x10c;" horiz-adv-x="663" 
d="M401 -8q-76 0 -142.5 27.5t-115.5 76.5t-77 115.5t-28 143.5t28 143.5t77 115t115.5 76.5t142.5 28q67 0 125.5 -21t104.5 -63l-53 -69q-35 29 -79 47.5t-98 18.5q-58 0 -107.5 -21t-85.5 -58.5t-56.5 -88t-20.5 -108.5q0 -59 20.5 -109t56.5 -87.5t85.5 -58.5t107.5 -21
q54 0 98 18.5t79 47.5l53 -69q-46 -42 -104.5 -63t-125.5 -21zM227 866l35 60l138 -82l138 82l35 -60l-173 -100z" />
    <glyph glyph-name="ccaron" unicode="&#x10d;" horiz-adv-x="528" 
d="M300 -8q-56 0 -103 20t-81 55t-53.5 82t-19.5 101t19.5 101t53.5 82t81 55t103 20q63 0 110.5 -22.5t80.5 -56.5l-55 -60q-24 24 -57.5 41t-78.5 17q-37 0 -67.5 -13.5t-53 -37.5t-35 -56.5t-12.5 -69.5t12.5 -69.5t35 -56.5t53 -37.5t67.5 -13.5q45 0 78.5 17t57.5 41
l55 -60q-33 -34 -80.5 -56.5t-110.5 -22.5zM300 569l-170 107l34 58l136 -86l135 86l35 -58z" />
    <glyph glyph-name="Dcaron" unicode="&#x10e;" horiz-adv-x="713" 
d="M297 85q64 0 117 20.5t90.5 56.5t58 85.5t20.5 107.5t-20.5 107.5t-58 85.5t-90.5 56.5t-117 20.5h-120v-540h120zM86 710h211q82 0 151.5 -27t120 -74.5t79 -112.5t28.5 -141t-28.5 -141t-79 -112.5t-120 -74.5t-151.5 -27h-211v710zM147 866l35 60l138 -82l138 82
l35 -60l-173 -100z" />
    <glyph glyph-name="dcaron" unicode="&#x10f;" horiz-adv-x="620" 
d="M457 50q-32 -29 -72.5 -43.5t-86.5 -14.5q-55 0 -102 20t-81 54.5t-53 82t-19 101.5t19 101.5t53 82t81 54.5t102 20q46 0 86.5 -14.5t72.5 -43.5v260h86v-710h-86v50zM300 73q54 0 94.5 23t62.5 58v192q-22 35 -62.5 58t-94.5 23q-37 0 -67.5 -13.5t-53 -37.5t-35 -56.5
t-12.5 -69.5t12.5 -69.5t35 -56.5t53 -37.5t67.5 -13.5zM629 710h87l-51 -165h-61z" />
    <glyph glyph-name="Dcroat" unicode="&#x110;" horiz-adv-x="744" 
d="M9 399h108v311h211q82 0 151.5 -27t120 -74.5t79 -112.5t28.5 -141t-28.5 -141t-79 -112.5t-120 -74.5t-151.5 -27h-211v312h-108v87zM328 85q64 0 117 20.5t90.5 56.5t58 85.5t20.5 107.5t-20.5 107.5t-58 85.5t-90.5 56.5t-117 20.5h-120v-226h134v-87h-134v-227h120z
" />
    <glyph glyph-name="dcroat" unicode="&#x111;" horiz-adv-x="620" 
d="M286 642h171v68h86v-68h70v-74h-70v-568h-86v50q-32 -29 -72.5 -43.5t-86.5 -14.5q-55 0 -102 20t-81 54.5t-53 82t-19 101.5t19 101.5t53 82t81 54.5t102 20q46 0 86.5 -14.5t72.5 -43.5v118h-171v74zM300 73q54 0 94.5 23t62.5 58v192q-22 35 -62.5 58t-94.5 23
q-37 0 -67.5 -13.5t-53 -37.5t-35 -56.5t-12.5 -69.5t12.5 -69.5t35 -56.5t53 -37.5t67.5 -13.5z" />
    <glyph glyph-name="Emacron" unicode="&#x112;" horiz-adv-x="545" 
d="M86 710h410v-88h-319v-215h259v-88h-259v-231h319v-88h-410v710zM144 868h292v-65h-292v65z" />
    <glyph glyph-name="emacron" unicode="&#x113;" horiz-adv-x="577" 
d="M300 -8q-56 0 -103 20t-81 55t-53.5 82t-19.5 101t19.5 101.5t53.5 82t79.5 54.5t98.5 20q52 0 96.5 -18.5t77 -54t51 -87.5t19.5 -119h-406q3 -33 17 -61.5t36 -49.5t51.5 -33t63.5 -12q48 0 85 18t61 42l55 -60q-32 -34 -83.5 -57.5t-117.5 -23.5zM289 429
q-55 0 -97 -34t-56 -91h305q-9 62 -52 94t-100 31zM148 679h292v-65h-292v65z" />
    <glyph glyph-name="Ebreve" unicode="&#x114;" horiz-adv-x="545" 
d="M86 710h410v-88h-319v-215h259v-88h-259v-231h319v-88h-410v710zM289 772q-35 0 -63 11t-48.5 29.5t-32 43.5t-12.5 53h64q2 -31 26 -55t67 -24t67.5 24t26.5 55h64q-2 -28 -13.5 -53t-32 -43.5t-49 -29.5t-64.5 -11z" />
    <glyph glyph-name="ebreve" unicode="&#x115;" horiz-adv-x="577" 
d="M300 -8q-56 0 -103 20t-81 55t-53.5 82t-19.5 101t19.5 101.5t53.5 82t79.5 54.5t98.5 20q52 0 96.5 -18.5t77 -54t51 -87.5t19.5 -119h-406q3 -33 17 -61.5t36 -49.5t51.5 -33t63.5 -12q48 0 85 18t61 42l55 -60q-32 -34 -83.5 -57.5t-117.5 -23.5zM289 429
q-55 0 -97 -34t-56 -91h305q-9 62 -52 94t-100 31zM293 573q-35 0 -63 11t-48.5 29.5t-32 43.5t-12.5 53h64q2 -31 26 -55t67 -24t67.5 24t26.5 55h64q-2 -28 -13.5 -53t-32 -43.5t-49 -29.5t-64.5 -11z" />
    <glyph glyph-name="Edotaccent" unicode="&#x116;" horiz-adv-x="545" 
d="M86 710h410v-88h-319v-215h259v-88h-259v-231h319v-88h-410v710zM293 780q-25 0 -43.5 18.5t-18.5 45.5q0 26 18.5 44t43.5 18q27 0 45.5 -18t18.5 -44q0 -27 -18.5 -45.5t-45.5 -18.5z" />
    <glyph glyph-name="edotaccent" unicode="&#x117;" horiz-adv-x="577" 
d="M300 -8q-56 0 -103 20t-81 55t-53.5 82t-19.5 101t19.5 101.5t53.5 82t79.5 54.5t98.5 20q52 0 96.5 -18.5t77 -54t51 -87.5t19.5 -119h-406q3 -33 17 -61.5t36 -49.5t51.5 -33t63.5 -12q48 0 85 18t61 42l55 -60q-32 -34 -83.5 -57.5t-117.5 -23.5zM289 429
q-55 0 -97 -34t-56 -91h305q-9 62 -52 94t-100 31zM294 569q-26 0 -44 18t-18 44t18 43.5t44 17.5t44 -17.5t18 -43.5t-18 -44t-44 -18z" />
    <glyph glyph-name="Eogonek" unicode="&#x118;" horiz-adv-x="545" 
d="M86 710h410v-88h-319v-215h259v-88h-259v-231h319v-88h-410v710zM432 -189q-22 0 -41.5 6t-34.5 17.5t-23.5 28t-8.5 37.5q0 32 24 60t55 40h92q-42 -18 -63.5 -40t-21.5 -44q0 -17 13 -28.5t37 -11.5q11 0 20.5 2.5t15.5 4.5v-59q-27 -13 -64 -13z" />
    <glyph glyph-name="eogonek" unicode="&#x119;" horiz-adv-x="577" 
d="M300 -8q-56 0 -103 20t-81 55t-53.5 82t-19.5 101t19.5 101.5t53.5 82t79.5 54.5t98.5 20q52 0 96.5 -18.5t77 -54t51 -87.5t19.5 -119h-406q3 -33 17 -61.5t36 -49.5t51.5 -33t63.5 -12q48 0 85 18t61 42l55 -60q-32 -34 -83.5 -57.5t-117.5 -23.5zM289 429
q-55 0 -97 -34t-56 -91h305q-9 62 -52 94t-100 31zM308 -178q-21 0 -40 5.5t-33.5 17t-23 27.5t-8.5 37q0 32 24 55.5t55 35.5h87q-82 -36 -82 -75q0 -16 12.5 -27t37.5 -11q11 0 19 2.5t14 4.5v-59q-14 -8 -29.5 -10.5t-32.5 -2.5z" />
    <glyph glyph-name="Ecaron" unicode="&#x11a;" horiz-adv-x="545" 
d="M86 710h410v-88h-319v-215h259v-88h-259v-231h319v-88h-410v710zM117 866l35 60l138 -82l138 82l35 -60l-173 -100z" />
    <glyph glyph-name="ecaron" unicode="&#x11b;" horiz-adv-x="577" 
d="M300 -8q-56 0 -103 20t-81 55t-53.5 82t-19.5 101t19.5 101.5t53.5 82t79.5 54.5t98.5 20q52 0 96.5 -18.5t77 -54t51 -87.5t19.5 -119h-406q3 -33 17 -61.5t36 -49.5t51.5 -33t63.5 -12q48 0 85 18t61 42l55 -60q-32 -34 -83.5 -57.5t-117.5 -23.5zM289 429
q-55 0 -97 -34t-56 -91h305q-9 62 -52 94t-100 31zM294 569l-170 107l34 58l136 -86l135 86l35 -58z" />
    <glyph glyph-name="Gcircumflex" unicode="&#x11c;" horiz-adv-x="730" 
d="M401 -8q-76 0 -142.5 27.5t-115.5 76.5t-77 115.5t-28 143.5t28 143.5t77 115t115.5 76.5t142.5 28q72 0 135.5 -22.5t111.5 -67.5l-56 -68q-35 33 -84.5 52t-106.5 19q-58 0 -107.5 -21t-85.5 -58.5t-56.5 -88t-20.5 -108.5q0 -59 20.5 -109t56.5 -87.5t85.5 -58.5
t107.5 -21q43 0 85.5 9.5t75.5 29.5v201h-198l39 88h250v-335q-50 -38 -116 -59t-136 -21zM228 826l173 100l173 -100l-35 -60l-138 82l-138 -82z" />
    <glyph glyph-name="gcircumflex" unicode="&#x11d;" horiz-adv-x="610" 
d="M291 -194q-54 0 -111 15t-102 44l45 73q32 -23 76.5 -37.5t94.5 -14.5q33 0 63 6.5t53.5 21.5t37.5 39t14 59q0 13 -3 31t-10 32q-62 -60 -159 -60q-56 0 -101.5 19t-77.5 52t-50 78t-18 97t18 97.5t50 78.5t77.5 52t101.5 19q48 0 86.5 -15t69.5 -44v51h86v-398
q10 -26 14.5 -51t4.5 -47q0 -54 -22.5 -91.5t-59.5 -61.5t-83.5 -34.5t-94.5 -10.5zM292 95q54 0 94 23.5t60 58.5v169q-20 35 -60 58t-94 23q-36 0 -65.5 -12.5t-50.5 -35t-32.5 -52.5t-11.5 -66q0 -35 11.5 -65.5t32.5 -53t50.5 -35t65.5 -12.5zM131 611l170 107l170 -107
l-35 -58l-135 86l-136 -86z" />
    <glyph glyph-name="Gbreve" unicode="&#x11e;" horiz-adv-x="730" 
d="M401 -8q-76 0 -142.5 27.5t-115.5 76.5t-77 115.5t-28 143.5t28 143.5t77 115t115.5 76.5t142.5 28q72 0 135.5 -22.5t111.5 -67.5l-56 -68q-35 33 -84.5 52t-106.5 19q-58 0 -107.5 -21t-85.5 -58.5t-56.5 -88t-20.5 -108.5q0 -59 20.5 -109t56.5 -87.5t85.5 -58.5
t107.5 -21q43 0 85.5 9.5t75.5 29.5v201h-198l39 88h250v-335q-50 -38 -116 -59t-136 -21zM399 772q-35 0 -63 11t-48.5 29.5t-32 43.5t-12.5 53h64q2 -31 26 -55t67 -24t67.5 24t26.5 55h64q-2 -28 -13.5 -53t-32 -43.5t-49 -29.5t-64.5 -11z" />
    <glyph glyph-name="gbreve" unicode="&#x11f;" horiz-adv-x="610" 
d="M291 -194q-54 0 -111 15t-102 44l45 73q32 -23 76.5 -37.5t94.5 -14.5q33 0 63 6.5t53.5 21.5t37.5 39t14 59q0 13 -3 31t-10 32q-62 -60 -159 -60q-56 0 -101.5 19t-77.5 52t-50 78t-18 97t18 97.5t50 78.5t77.5 52t101.5 19q48 0 86.5 -15t69.5 -44v51h86v-398
q10 -26 14.5 -51t4.5 -47q0 -54 -22.5 -91.5t-59.5 -61.5t-83.5 -34.5t-94.5 -10.5zM292 95q54 0 94 23.5t60 58.5v169q-20 35 -60 58t-94 23q-36 0 -65.5 -12.5t-50.5 -35t-32.5 -52.5t-11.5 -66q0 -35 11.5 -65.5t32.5 -53t50.5 -35t65.5 -12.5zM301 573q-35 0 -63 11
t-48.5 29.5t-32 43.5t-12.5 53h64q2 -31 26 -55t67 -24t67.5 24t26.5 55h64q-2 -28 -13.5 -53t-32 -43.5t-49 -29.5t-64.5 -11z" />
    <glyph glyph-name="Gdotaccent" unicode="&#x120;" horiz-adv-x="730" 
d="M401 -8q-76 0 -142.5 27.5t-115.5 76.5t-77 115.5t-28 143.5t28 143.5t77 115t115.5 76.5t142.5 28q72 0 135.5 -22.5t111.5 -67.5l-56 -68q-35 33 -84.5 52t-106.5 19q-58 0 -107.5 -21t-85.5 -58.5t-56.5 -88t-20.5 -108.5q0 -59 20.5 -109t56.5 -87.5t85.5 -58.5
t107.5 -21q43 0 85.5 9.5t75.5 29.5v201h-198l39 88h250v-335q-50 -38 -116 -59t-136 -21zM400 780q-25 0 -43.5 18.5t-18.5 45.5q0 26 18.5 44t43.5 18q27 0 45.5 -18t18.5 -44q0 -27 -18.5 -45.5t-45.5 -18.5z" />
    <glyph glyph-name="gdotaccent" unicode="&#x121;" horiz-adv-x="610" 
d="M291 -194q-54 0 -111 15t-102 44l45 73q32 -23 76.5 -37.5t94.5 -14.5q33 0 63 6.5t53.5 21.5t37.5 39t14 59q0 13 -3 31t-10 32q-62 -60 -159 -60q-56 0 -101.5 19t-77.5 52t-50 78t-18 97t18 97.5t50 78.5t77.5 52t101.5 19q48 0 86.5 -15t69.5 -44v51h86v-398
q10 -26 14.5 -51t4.5 -47q0 -54 -22.5 -91.5t-59.5 -61.5t-83.5 -34.5t-94.5 -10.5zM292 95q54 0 94 23.5t60 58.5v169q-20 35 -60 58t-94 23q-36 0 -65.5 -12.5t-50.5 -35t-32.5 -52.5t-11.5 -66q0 -35 11.5 -65.5t32.5 -53t50.5 -35t65.5 -12.5zM291 569q-26 0 -44 18
t-18 44t18 43.5t44 17.5t44 -17.5t18 -43.5t-18 -44t-44 -18z" />
    <glyph glyph-name="Gcommaaccent" unicode="&#x122;" horiz-adv-x="730" 
d="M352 -50h100l-109 -179h-65zM401 -8q-76 0 -142.5 27.5t-115.5 76.5t-77 115.5t-28 143.5t28 143.5t77 115t115.5 76.5t142.5 28q72 0 135.5 -22.5t111.5 -67.5l-56 -68q-35 33 -84.5 52t-106.5 19q-58 0 -107.5 -21t-85.5 -58.5t-56.5 -88t-20.5 -108.5q0 -59 20.5 -109
t56.5 -87.5t85.5 -58.5t107.5 -21q43 0 85.5 9.5t75.5 29.5v201h-198l39 88h250v-335q-50 -38 -116 -59t-136 -21z" />
    <glyph glyph-name="gcommaaccent" unicode="&#x123;" horiz-adv-x="610" 
d="M341.007 542.997h-99.9941l108.993 178.989h64.9961zM291 -194q-54 0 -111 15t-102 44l45 73q32 -23 76.5 -37.5t94.5 -14.5q33 0 63 6.5t53.5 21.5t37.5 39t14 59q0 13 -3 31t-10 32q-62 -60 -159 -60q-56 0 -101.5 19t-77.5 52t-50 78t-18 97t18 97.5t50 78.5t77.5 52
t101.5 19q48 0 86.5 -15t69.5 -44v51h86v-398q10 -26 14.5 -51t4.5 -47q0 -54 -22.5 -91.5t-59.5 -61.5t-83.5 -34.5t-94.5 -10.5zM292 95q54 0 94 23.5t60 58.5v169q-20 35 -60 58t-94 23q-36 0 -65.5 -12.5t-50.5 -35t-32.5 -52.5t-11.5 -66q0 -35 11.5 -65.5t32.5 -53
t50.5 -35t65.5 -12.5z" />
    <glyph glyph-name="Hcircumflex" unicode="&#x124;" horiz-adv-x="746" 
d="M86 710h91v-303h392v303h91v-710h-91v319h-392v-319h-91v710zM200 826l173 100l173 -100l-35 -60l-138 82l-138 -82z" />
    <glyph glyph-name="hcircumflex" unicode="&#x125;" horiz-adv-x="578" 
d="M77 710h86v-267q29 36 70 50.5t85 14.5q42 0 77.5 -14.5t61 -40.5t40 -64t14.5 -84v-305h-86v300q0 55 -33.5 91t-92.5 36q-53 0 -87.5 -27.5t-48.5 -76.5v-323h-86v710zM121 826l173 100l173 -100l-35 -60l-138 82l-138 -82z" />
    <glyph glyph-name="Hbar" unicode="&#x126;" horiz-adv-x="746" 
d="M23 602h63v108h91v-108h392v108h91v-108h63v-88h-63v-514h-91v319h-392v-319h-91v514h-63v88zM569 407v107h-392v-107h392z" />
    <glyph glyph-name="hbar" unicode="&#x127;" horiz-adv-x="578" 
d="M7 642h70v68h86v-68h171v-74h-171v-125q29 36 70 50.5t85 14.5q42 0 77.5 -14.5t61 -40.5t40 -64t14.5 -84v-305h-86v300q0 55 -33.5 91t-92.5 36q-53 0 -87.5 -27.5t-48.5 -76.5v-323h-86v568h-70v74z" />
    <glyph glyph-name="Itilde" unicode="&#x128;" horiz-adv-x="263" 
d="M86 710h91v-710h-91v710zM201 783q-21 0 -39 7t-33.5 15t-29 15t-26.5 7q-20 0 -30.5 -10.5t-15.5 -32.5h-69l4 18q4 23 14.5 41t25 30t31.5 18.5t34 6.5q21 0 38.5 -7t33 -15t29 -15t25.5 -7q21 0 32 10t16 33h68l-3 -18q-8 -45 -38 -70.5t-67 -25.5z" />
    <glyph glyph-name="itilde" unicode="&#x129;" 
d="M77 500h86v-500h-86v500zM-48 585q9 45 38.5 69.5t64.5 24.5q21 0 38.5 -7t33 -15t29 -15t25.5 -7q21 0 32 11t16 33h66l-3 -18q-8 -42 -36.5 -68t-66.5 -26q-21 0 -39 7t-33.5 15t-29 15t-26.5 7q-20 0 -30.5 -11t-15.5 -34h-66z" />
    <glyph glyph-name="Imacron" unicode="&#x12a;" horiz-adv-x="263" 
d="M86 710h91v-710h-91v710zM-14 868h292v-65h-292v65z" />
    <glyph glyph-name="imacron" unicode="&#x12b;" 
d="M77 500h86v-500h-86v500zM-25 679h292v-65h-292v65z" />
    <glyph glyph-name="Ibreve" unicode="&#x12c;" horiz-adv-x="263" 
d="M86 710h91v-710h-91v710zM131 772q-35 0 -63 11t-48.5 29.5t-32 43.5t-12.5 53h64q2 -31 26 -55t67 -24t67.5 24t26.5 55h64q-2 -28 -13.5 -53t-32 -43.5t-49 -29.5t-64.5 -11z" />
    <glyph glyph-name="ibreve" unicode="&#x12d;" 
d="M120 573q-35 0 -63 11t-48.5 29.5t-32 43.5t-12.5 53h64q2 -31 26 -55t67 -24t67.5 24t26.5 55h64q-2 -28 -13.5 -53t-32 -43.5t-49 -29.5t-64.5 -11zM77 500h86v-500h-86v500z" />
    <glyph glyph-name="Iogonek" unicode="&#x12e;" horiz-adv-x="263" 
d="M121 -190q-19 0 -36.5 6.5t-31 19t-21.5 30t-8 39.5q0 29 18 55t44 40v710h91v-710q-31 -14 -51.5 -34.5t-20.5 -46.5q0 -25 15 -36.5t29 -11.5q8 0 17.5 3t15.5 8v-54q-27 -18 -61 -18z" />
    <glyph glyph-name="iogonek" unicode="&#x12f;" 
d="M77 500h86v-500q-81 -36 -81 -75q0 -16 12.5 -27t37.5 -11q11 0 19 2.5t14 4.5v-59q-14 -8 -29.5 -10.5t-32.5 -2.5q-21 0 -40 5.5t-33.5 17t-23 27.5t-8.5 37q0 32 24 55.5t55 35.5v500zM77 609q-19 17 -19 46q0 26 18 44.5t44 18.5t44 -18.5t18 -44.5q0 -29 -19 -46
h-86z" />
    <glyph glyph-name="Idotaccent" unicode="&#x130;" horiz-adv-x="263" 
d="M86 710h91v-710h-91v710zM130 780q-25 0 -43.5 18.5t-18.5 45.5q0 26 18.5 44t43.5 18q27 0 45.5 -18t18.5 -44q0 -27 -18.5 -45.5t-45.5 -18.5z" />
    <glyph glyph-name="dotlessi" unicode="&#x131;" 
d="M77 500h86v-500h-86v500z" />
    <glyph glyph-name="Jcircumflex" unicode="&#x134;" horiz-adv-x="495" 
d="M217 -8q-43 0 -80.5 13.5t-65.5 39.5t-44.5 64.5t-16.5 88.5h91q0 -30 9 -52.5t25 -37t36.5 -22t44.5 -7.5q51 0 84 29t33 90v512h91v-518q0 -50 -16.5 -87.5t-45 -62.5t-66 -37.5t-79.5 -12.5zM205 826l173 100l173 -100l-35 -60l-138 82l-138 -82z" />
    <glyph glyph-name="jcircumflex" unicode="&#x135;" 
d="M-49 611l170 107l170 -107l-35 -58l-135 86l-136 -86zM-27 -106h30q42 0 58 21t16 59v526h86v-539q0 -72 -39.5 -108.5t-111.5 -36.5h-39v78z" />
    <glyph glyph-name="Kcommaaccent" unicode="&#x136;" horiz-adv-x="653" 
d="M278 -50h100l-109 -179h-65zM86 710h91v-356l324 356h112l-328 -361l355 -349h-121l-342 337v-337h-91v710z" />
    <glyph glyph-name="kcommaaccent" unicode="&#x137;" horiz-adv-x="516" 
d="M234 -50h100l-109 -179h-65zM77 710h86v-436l221 226h108l-233 -236l256 -264h-111l-241 249v-249h-86v710z" />
    <glyph glyph-name="Lacute" unicode="&#x139;" horiz-adv-x="499" 
d="M86 710h91v-621h311v-89h-402v710zM172 913h108l-112 -145h-73z" />
    <glyph glyph-name="lacute" unicode="&#x13a;" 
d="M77 710h86v-710h-86v710zM159 913h108l-112 -145h-73z" />
    <glyph glyph-name="Lcommaaccent" unicode="&#x13b;" horiz-adv-x="499" 
d="M231 -50h100l-109 -179h-65zM86 710h91v-621h311v-89h-402v710z" />
    <glyph glyph-name="lcommaaccent" unicode="&#x13c;" 
d="M77 710h86v-710h-86v710zM77 -50h100l-109 -179h-65z" />
    <glyph glyph-name="Lcaron" unicode="&#x13d;" horiz-adv-x="499" 
d="M86 710h91v-621h311v-89h-402v710zM281 710h87l-51 -165h-61z" />
    <glyph glyph-name="lcaron" unicode="&#x13e;" 
d="M77 710h86v-710h-86v710zM249 710h87l-51 -165h-61z" />
    <glyph glyph-name="Ldot" unicode="&#x13f;" horiz-adv-x="499" 
d="M372 339q-26 0 -44 18t-18 44t18 43.5t44 17.5t44 -17.5t18 -43.5t-18 -44t-44 -18zM86 710h91v-621h311v-89h-402v710z" />
    <glyph glyph-name="ldot" unicode="&#x140;" horiz-adv-x="308" 
d="M274 291q-26 0 -44 18t-18 44t18 43.5t44 17.5t44 -17.5t18 -43.5t-18 -44t-44 -18zM77 710h86v-710h-86v710z" />
    <glyph glyph-name="Lslash" unicode="&#x141;" horiz-adv-x="526" 
d="M-11 268l124 81v361h91v-302l168 110l42 -71l-210 -137v-221h311v-89h-402v250l-82 -53z" />
    <glyph glyph-name="lslash" unicode="&#x142;" horiz-adv-x="314" 
d="M-5 315l119 77v318h86v-262l79 51l39 -65l-118 -77v-357h-86v302l-80 -52z" />
    <glyph glyph-name="Nacute" unicode="&#x143;" horiz-adv-x="769" 
d="M177 505v-505h-91v718l506 -513v505h91v-718zM400 913h108l-112 -145h-73z" />
    <glyph glyph-name="nacute" unicode="&#x144;" horiz-adv-x="578" 
d="M77 500h86v-57q29 36 70 50.5t85 14.5q42 0 77.5 -14.5t61 -40.5t40 -64t14.5 -84v-305h-86v300q0 55 -33.5 91t-92.5 36q-53 0 -87.5 -27.5t-48.5 -76.5v-323h-86v500zM315 710h109l-124 -165h-72z" />
    <glyph glyph-name="Ncommaaccent" unicode="&#x145;" horiz-adv-x="769" 
d="M353 -50h100l-109 -179h-65zM177 505v-505h-91v718l506 -513v505h91v-718z" />
    <glyph glyph-name="ncommaaccent" unicode="&#x146;" horiz-adv-x="578" 
d="M233 -50h100l-109 -179h-65zM77 500h86v-57q29 36 70 50.5t85 14.5q42 0 77.5 -14.5t61 -40.5t40 -64t14.5 -84v-305h-86v300q0 55 -33.5 91t-92.5 36q-53 0 -87.5 -27.5t-48.5 -76.5v-323h-86v500z" />
    <glyph glyph-name="Ncaron" unicode="&#x147;" horiz-adv-x="769" 
d="M177 505v-505h-91v718l506 -513v505h91v-718zM211 866l35 60l138 -82l138 82l35 -60l-173 -100z" />
    <glyph glyph-name="ncaron" unicode="&#x148;" horiz-adv-x="578" 
d="M77 500h86v-57q29 36 70 50.5t85 14.5q42 0 77.5 -14.5t61 -40.5t40 -64t14.5 -84v-305h-86v300q0 55 -33.5 91t-92.5 36q-53 0 -87.5 -27.5t-48.5 -76.5v-323h-86v500zM294 569l-170 107l34 58l136 -86l135 86l35 -58z" />
    <glyph glyph-name="Eng" unicode="&#x14a;" horiz-adv-x="769" 
d="M683 -29q0 -75 -40 -115t-116 -40h-41v75h17q87 0 89 85v108l-415 421v-505h-91v718l506 -513v505h91v-739v0z" />
    <glyph glyph-name="eng" unicode="&#x14b;" horiz-adv-x="578" 
d="M77 500h86v-57q29 36 70 50.5t85 14.5q42 0 77.5 -14.5t61 -40.5t40 -64t14.5 -84v-346q0 -66 -38 -104.5t-105 -38.5h-47v78h30q38 0 56 18t18 57v331q0 55 -33.5 91t-92.5 36q-53 0 -87.5 -27.5t-48.5 -76.5v-323h-86v500z" />
    <glyph glyph-name="Omacron" unicode="&#x14c;" horiz-adv-x="802" 
d="M401 79q58 0 107.5 21t85.5 58.5t56.5 87.5t20.5 109q0 58 -20.5 108.5t-56.5 88t-85.5 58.5t-107.5 21t-107.5 -21t-85.5 -58.5t-56.5 -88t-20.5 -108.5q0 -59 20.5 -109t56.5 -87.5t85.5 -58.5t107.5 -21zM401 -8q-76 0 -142.5 27.5t-115.5 76.5t-77 115.5t-28 143.5
t28 143.5t77 115t115.5 76.5t142.5 28t142.5 -28t115.5 -76.5t77 -115t28 -143.5t-28 -143.5t-77 -115.5t-115.5 -76.5t-142.5 -27.5zM254 868h292v-65h-292v65z" />
    <glyph glyph-name="omacron" unicode="&#x14d;" horiz-adv-x="605" 
d="M303 73q38 0 69.5 13.5t54 37.5t34.5 56.5t12 69.5t-12 69.5t-34.5 56.5t-54 37.5t-69.5 13.5t-69.5 -13.5t-54 -37.5t-35 -56.5t-12.5 -69.5t12.5 -69.5t35 -56.5t54 -37.5t69.5 -13.5zM303 -8q-57 0 -104.5 20t-82 55t-54 82t-19.5 101t19.5 101t54 82t82 55t104.5 20
q56 0 103.5 -20t82 -55t54 -82t19.5 -101t-19.5 -101t-54 -82t-82 -55t-103.5 -20zM155 679h292v-65h-292v65z" />
    <glyph glyph-name="Obreve" unicode="&#x14e;" horiz-adv-x="802" 
d="M401 79q58 0 107.5 21t85.5 58.5t56.5 87.5t20.5 109q0 58 -20.5 108.5t-56.5 88t-85.5 58.5t-107.5 21t-107.5 -21t-85.5 -58.5t-56.5 -88t-20.5 -108.5q0 -59 20.5 -109t56.5 -87.5t85.5 -58.5t107.5 -21zM401 -8q-76 0 -142.5 27.5t-115.5 76.5t-77 115.5t-28 143.5
t28 143.5t77 115t115.5 76.5t142.5 28t142.5 -28t115.5 -76.5t77 -115t28 -143.5t-28 -143.5t-77 -115.5t-115.5 -76.5t-142.5 -27.5zM399 772q-35 0 -63 11t-48.5 29.5t-32 43.5t-12.5 53h64q2 -31 26 -55t67 -24t67.5 24t26.5 55h64q-2 -28 -13.5 -53t-32 -43.5t-49 -29.5
t-64.5 -11z" />
    <glyph glyph-name="obreve" unicode="&#x14f;" horiz-adv-x="605" 
d="M303 73q38 0 69.5 13.5t54 37.5t34.5 56.5t12 69.5t-12 69.5t-34.5 56.5t-54 37.5t-69.5 13.5t-69.5 -13.5t-54 -37.5t-35 -56.5t-12.5 -69.5t12.5 -69.5t35 -56.5t54 -37.5t69.5 -13.5zM303 -8q-57 0 -104.5 20t-82 55t-54 82t-19.5 101t19.5 101t54 82t82 55t104.5 20
q56 0 103.5 -20t82 -55t54 -82t19.5 -101t-19.5 -101t-54 -82t-82 -55t-103.5 -20zM302 573q-35 0 -63 11t-48.5 29.5t-32 43.5t-12.5 53h64q2 -31 26 -55t67 -24t67.5 24t26.5 55h64q-2 -28 -13.5 -53t-32 -43.5t-49 -29.5t-64.5 -11z" />
    <glyph glyph-name="Ohungarumlaut" unicode="&#x150;" horiz-adv-x="802" 
d="M401 79q58 0 107.5 21t85.5 58.5t56.5 87.5t20.5 109q0 58 -20.5 108.5t-56.5 88t-85.5 58.5t-107.5 21t-107.5 -21t-85.5 -58.5t-56.5 -88t-20.5 -108.5q0 -59 20.5 -109t56.5 -87.5t85.5 -58.5t107.5 -21zM401 -8q-76 0 -142.5 27.5t-115.5 76.5t-77 115.5t-28 143.5
t28 143.5t77 115t115.5 76.5t142.5 28t142.5 -28t115.5 -76.5t77 -115t28 -143.5t-28 -143.5t-77 -115.5t-115.5 -76.5t-142.5 -27.5zM328 913h104l-113 -145h-68zM528 913h104l-113 -145h-68z" />
    <glyph glyph-name="ohungarumlaut" unicode="&#x151;" horiz-adv-x="605" 
d="M303 73q38 0 69.5 13.5t54 37.5t34.5 56.5t12 69.5t-12 69.5t-34.5 56.5t-54 37.5t-69.5 13.5t-69.5 -13.5t-54 -37.5t-35 -56.5t-12.5 -69.5t12.5 -69.5t35 -56.5t54 -37.5t69.5 -13.5zM303 -8q-57 0 -104.5 20t-82 55t-54 82t-19.5 101t19.5 101t54 82t82 55t104.5 20
q56 0 103.5 -20t82 -55t54 -82t19.5 -101t-19.5 -101t-54 -82t-82 -55t-103.5 -20zM271 710h101l-125 -165h-63zM440 710h101l-125 -165h-63z" />
    <glyph glyph-name="OE" unicode="&#x152;" horiz-adv-x="1080" 
d="M401 -8q-76 0 -142.5 27.5t-115.5 76.5t-77 115.5t-28 143.5t28 143.5t77 115t115.5 76.5t142.5 28q58 0 110 -16.5t97 -46.5v55h411v-88h-324v-51q26 -35 42.5 -76.5t22.5 -87.5h198v-88h-196q-5 -51 -22 -97t-45 -84v-50h324v-88h-411v54q-45 -29 -97 -45.5t-110 -16.5
zM401 79q58 0 107.5 21t85.5 58.5t56.5 87.5t20.5 109q0 58 -20.5 108.5t-56.5 88t-85.5 58.5t-107.5 21t-107.5 -21t-85.5 -58.5t-56.5 -88t-20.5 -108.5q0 -59 20.5 -109t56.5 -87.5t85.5 -58.5t107.5 -21z" />
    <glyph glyph-name="oe" unicode="&#x153;" horiz-adv-x="1008" 
d="M303 -8q-57 0 -104.5 20t-82 55t-54 82t-19.5 101t19.5 101t54 82t82 55t104.5 20q70 0 125.5 -30t89.5 -81q34 51 87.5 81t119.5 30q52 0 96.5 -18.5t77 -54t51 -87.5t19.5 -119h-407q3 -33 17 -61.5t36.5 -49.5t52 -33t63.5 -12q48 0 85 18t61 42l55 -60
q-32 -34 -83.5 -57.5t-117.5 -23.5q-69 0 -124 30t-89 81q-34 -51 -89.5 -81t-125.5 -30zM303 73q38 0 69.5 13.5t54 37.5t35 56.5t12.5 69.5t-12.5 69.5t-35 56.5t-54 37.5t-69.5 13.5t-69.5 -13.5t-54 -37.5t-35 -56.5t-12.5 -69.5t12.5 -69.5t35 -56.5t54 -37.5
t69.5 -13.5zM872 304q-9 62 -52 94t-100 31q-27 0 -52 -8.5t-45.5 -25t-35 -39.5t-21.5 -52h306z" />
    <glyph glyph-name="Racute" unicode="&#x154;" horiz-adv-x="621" 
d="M255 310h-78v-310h-91v710h211q52 0 94 -14t72 -40.5t46 -63.5t16 -82q0 -76 -45 -127.5t-123 -66.5l245 -316h-110zM291 391q70 0 105 31t35 86q0 56 -35 87t-105 31h-114v-235h114zM297 913h108l-112 -145h-73z" />
    <glyph glyph-name="racute" unicode="&#x155;" horiz-adv-x="359" 
d="M77 500h86v-59q26 32 61 48t77 16q18 0 35 -3v-89q-21 6 -48 6q-41 0 -74.5 -20t-50.5 -59v-340h-86v500zM229 710h109l-124 -165h-72z" />
    <glyph glyph-name="Rcommaaccent" unicode="&#x156;" horiz-adv-x="621" 
d="M260 -50h100l-109 -179h-65zM255 310h-78v-310h-91v710h211q52 0 94 -14t72 -40.5t46 -63.5t16 -82q0 -76 -45 -127.5t-123 -66.5l245 -316h-110zM291 391q70 0 105 31t35 86q0 56 -35 87t-105 31h-114v-235h114z" />
    <glyph glyph-name="rcommaaccent" unicode="&#x157;" horiz-adv-x="359" 
d="M77 500h86v-59q26 32 61 48t77 16q18 0 35 -3v-89q-21 6 -48 6q-41 0 -74.5 -20t-50.5 -59v-340h-86v500zM78 -50h100l-109 -179h-65z" />
    <glyph glyph-name="Rcaron" unicode="&#x158;" horiz-adv-x="621" 
d="M255 310h-78v-310h-91v710h211q52 0 94 -14t72 -40.5t46 -63.5t16 -82q0 -76 -45 -127.5t-123 -66.5l245 -316h-110zM291 391q70 0 105 31t35 86q0 56 -35 87t-105 31h-114v-235h114zM108 866l35 60l138 -82l138 82l35 -60l-173 -100z" />
    <glyph glyph-name="rcaron" unicode="&#x159;" horiz-adv-x="359" 
d="M77 500h86v-59q26 32 61 48t77 16q18 0 35 -3v-89q-21 6 -48 6q-41 0 -74.5 -20t-50.5 -59v-340h-86v500zM206 569l-170 107l34 58l136 -86l135 86l35 -58z" />
    <glyph glyph-name="Sacute" unicode="&#x15a;" horiz-adv-x="519" 
d="M253 -8q-78 0 -138.5 32.5t-92.5 77.5l69 60q26 -33 67.5 -58t93.5 -25q62 0 98 26.5t36 73.5q0 49 -29.5 78t-86.5 54l-65 28q-81 35 -118 84.5t-37 116.5q0 40 17.5 73t46.5 56.5t66.5 36t76.5 12.5q63 0 113 -23.5t86 -67.5l-64 -64q-28 33 -59.5 50.5t-78.5 17.5
q-23 0 -43 -6t-36 -18t-25 -29.5t-9 -39.5q0 -39 24 -67t81 -53l65 -28q36 -16 66.5 -35t53 -43.5t35 -55t12.5 -67.5q0 -44 -15.5 -80t-45 -62t-71 -40.5t-93.5 -14.5zM286 913h108l-112 -145h-73z" />
    <glyph glyph-name="sacute" unicode="&#x15b;" horiz-adv-x="418" 
d="M204 -8q-56 0 -101.5 24.5t-75.5 75.5l68 46q20 -33 45.5 -51t65.5 -18q37 0 63 17t26 46t-20 46.5t-65 33.5l-39 15q-66 25 -92.5 64t-26.5 84q0 28 11.5 52.5t32.5 42.5t49.5 28t62.5 10q48 0 87.5 -22t62.5 -68l-67 -39q-25 52 -83 52q-29 0 -50 -14.5t-21 -40.5
q0 -23 14.5 -41.5t58.5 -34.5l41 -15q64 -23 97 -58.5t33 -91.5q0 -30 -12.5 -56t-35.5 -45.5t-55.5 -30.5t-73.5 -11zM261 710h109l-124 -165h-72z" />
    <glyph glyph-name="Scircumflex" unicode="&#x15c;" horiz-adv-x="519" 
d="M253 -8q-78 0 -138.5 32.5t-92.5 77.5l69 60q26 -33 67.5 -58t93.5 -25q62 0 98 26.5t36 73.5q0 49 -29.5 78t-86.5 54l-65 28q-81 35 -118 84.5t-37 116.5q0 40 17.5 73t46.5 56.5t66.5 36t76.5 12.5q63 0 113 -23.5t86 -67.5l-64 -64q-28 33 -59.5 50.5t-78.5 17.5
q-23 0 -43 -6t-36 -18t-25 -29.5t-9 -39.5q0 -39 24 -67t81 -53l65 -28q36 -16 66.5 -35t53 -43.5t35 -55t12.5 -67.5q0 -44 -15.5 -80t-45 -62t-71 -40.5t-93.5 -14.5zM86 826l173 100l173 -100l-35 -60l-138 82l-138 -82z" />
    <glyph glyph-name="scircumflex" unicode="&#x15d;" horiz-adv-x="418" 
d="M204 -8q-56 0 -101.5 24.5t-75.5 75.5l68 46q20 -33 45.5 -51t65.5 -18q37 0 63 17t26 46t-20 46.5t-65 33.5l-39 15q-66 25 -92.5 64t-26.5 84q0 28 11.5 52.5t32.5 42.5t49.5 28t62.5 10q48 0 87.5 -22t62.5 -68l-67 -39q-25 52 -83 52q-29 0 -50 -14.5t-21 -40.5
q0 -23 14.5 -41.5t58.5 -34.5l41 -15q64 -23 97 -58.5t33 -91.5q0 -30 -12.5 -56t-35.5 -45.5t-55.5 -30.5t-73.5 -11zM40 611l170 107l170 -107l-35 -58l-135 86l-136 -86z" />
    <glyph glyph-name="Scedilla" unicode="&#x15e;" horiz-adv-x="519" 
d="M235 0h59l-38 -135h-98zM253 -8q-78 0 -138.5 32.5t-92.5 77.5l69 60q26 -33 67.5 -58t93.5 -25q62 0 98 26.5t36 73.5q0 49 -29.5 78t-86.5 54l-65 28q-81 35 -118 84.5t-37 116.5q0 40 17.5 73t46.5 56.5t66.5 36t76.5 12.5q63 0 113 -23.5t86 -67.5l-64 -64
q-28 33 -59.5 50.5t-78.5 17.5q-23 0 -43 -6t-36 -18t-25 -29.5t-9 -39.5q0 -39 24 -67t81 -53l65 -28q36 -16 66.5 -35t53 -43.5t35 -55t12.5 -67.5q0 -44 -15.5 -80t-45 -62t-71 -40.5t-93.5 -14.5z" />
    <glyph glyph-name="scedilla" unicode="&#x15f;" horiz-adv-x="418" 
d="M204 -8q-56 0 -101.5 24.5t-75.5 75.5l68 46q20 -33 45.5 -51t65.5 -18q37 0 63 17t26 46t-20 46.5t-65 33.5l-39 15q-66 25 -92.5 64t-26.5 84q0 28 11.5 52.5t32.5 42.5t49.5 28t62.5 10q48 0 87.5 -22t62.5 -68l-67 -39q-25 52 -83 52q-29 0 -50 -14.5t-21 -40.5
q0 -23 14.5 -41.5t58.5 -34.5l41 -15q64 -23 97 -58.5t33 -91.5q0 -30 -12.5 -56t-35.5 -45.5t-55.5 -30.5t-73.5 -11zM176 0h59l-38 -135h-98z" />
    <glyph glyph-name="Scaron" unicode="&#x160;" horiz-adv-x="519" 
d="M253 -8q-78 0 -138.5 32.5t-92.5 77.5l69 60q26 -33 67.5 -58t93.5 -25q62 0 98 26.5t36 73.5q0 49 -29.5 78t-86.5 54l-65 28q-81 35 -118 84.5t-37 116.5q0 40 17.5 73t46.5 56.5t66.5 36t76.5 12.5q63 0 113 -23.5t86 -67.5l-64 -64q-28 33 -59.5 50.5t-78.5 17.5
q-23 0 -43 -6t-36 -18t-25 -29.5t-9 -39.5q0 -39 24 -67t81 -53l65 -28q36 -16 66.5 -35t53 -43.5t35 -55t12.5 -67.5q0 -44 -15.5 -80t-45 -62t-71 -40.5t-93.5 -14.5zM86 866l35 60l138 -82l138 82l35 -60l-173 -100z" />
    <glyph glyph-name="scaron" unicode="&#x161;" horiz-adv-x="418" 
d="M204 -8q-56 0 -101.5 24.5t-75.5 75.5l68 46q20 -33 45.5 -51t65.5 -18q37 0 63 17t26 46t-20 46.5t-65 33.5l-39 15q-66 25 -92.5 64t-26.5 84q0 28 11.5 52.5t32.5 42.5t49.5 28t62.5 10q48 0 87.5 -22t62.5 -68l-67 -39q-25 52 -83 52q-29 0 -50 -14.5t-21 -40.5
q0 -23 14.5 -41.5t58.5 -34.5l41 -15q64 -23 97 -58.5t33 -91.5q0 -30 -12.5 -56t-35.5 -45.5t-55.5 -30.5t-73.5 -11zM210 569l-170 107l34 58l136 -86l135 86l35 -58z" />
    <glyph glyph-name="uni0162" unicode="&#x162;" horiz-adv-x="534" 
d="M218 -50h100l-109 -179h-65zM221 622h-201v88h494v-88h-202v-622h-91v622z" />
    <glyph glyph-name="uni0163" unicode="&#x163;" horiz-adv-x="371" 
d="M0 500h99v107l86 43v-150h151l-19 -78h-132v-264q0 -38 16 -59t58 -21h67v-78h-76q-72 0 -111.5 36.5t-39.5 108.5v277h-80zM170 -50h100l-109 -179h-65z" />
    <glyph glyph-name="Tcaron" unicode="&#x164;" horiz-adv-x="534" 
d="M221 622h-201v88h494v-88h-202v-622h-91v622zM94 866l35 60l138 -82l138 82l35 -60l-173 -100z" />
    <glyph glyph-name="tcaron" unicode="&#x165;" horiz-adv-x="371" 
d="M0 500h99v107l86 43v-150h151l-19 -78h-132v-264q0 -38 16 -59t58 -21h67v-78h-76q-72 0 -111.5 36.5t-39.5 108.5v277h-80zM275 710h87l-51 -165h-61z" />
    <glyph glyph-name="Tbar" unicode="&#x166;" horiz-adv-x="534" 
d="M65 412h156v210h-201v88h494v-88h-202v-210h156v-75h-156v-337h-91v337h-156v75z" />
    <glyph glyph-name="tbar" unicode="&#x167;" horiz-adv-x="371" 
d="M0 500h99v107l86 43v-150h151l-19 -78h-132v-91h143v-75h-143v-98q0 -38 16 -59t58 -21h67v-78h-76q-72 0 -111.5 36.5t-39.5 108.5v111h-91v75h91v91h-80z" />
    <glyph glyph-name="Utilde" unicode="&#x168;" horiz-adv-x="721" 
d="M360 -8q-62 0 -114 19t-89.5 55t-58.5 87.5t-21 116.5v440h91v-444q0 -46 14 -81t39.5 -58.5t60.5 -35.5t78 -12t78 12t60.5 35.5t39.5 58.5t14 81v444h91v-440q0 -65 -21 -116.5t-58.5 -87.5t-89.5 -55t-114 -19zM428 783q-21 0 -39 7t-33.5 15t-29 15t-26.5 7
q-20 0 -30.5 -10.5t-15.5 -32.5h-69l4 18q4 23 14.5 41t25 30t31.5 18.5t34 6.5q21 0 38.5 -7t33 -15t29 -15t25.5 -7q21 0 32 10t16 33h68l-3 -18q-8 -45 -38 -70.5t-67 -25.5z" />
    <glyph glyph-name="utilde" unicode="&#x169;" horiz-adv-x="568" 
d="M405 56q-29 -36 -69.5 -50t-84.5 -14q-43 0 -78.5 14.5t-61 40.5t-39.5 63.5t-14 84.5v305h86v-300q0 -55 33.5 -91t91.5 -36q52 0 86.5 26t49.5 74v327h86v-500h-86v56zM104 585q9 45 38.5 69.5t64.5 24.5q21 0 38.5 -7t33 -15t29 -15t25.5 -7q21 0 32 11t16 33h66
l-3 -18q-8 -42 -36.5 -68t-66.5 -26q-21 0 -39 7t-33.5 15t-29 15t-26.5 7q-20 0 -30.5 -11t-15.5 -34h-66z" />
    <glyph glyph-name="Umacron" unicode="&#x16a;" horiz-adv-x="721" 
d="M360 -8q-62 0 -114 19t-89.5 55t-58.5 87.5t-21 116.5v440h91v-444q0 -46 14 -81t39.5 -58.5t60.5 -35.5t78 -12t78 12t60.5 35.5t39.5 58.5t14 81v444h91v-440q0 -65 -21 -116.5t-58.5 -87.5t-89.5 -55t-114 -19zM213 868h292v-65h-292v65z" />
    <glyph glyph-name="umacron" unicode="&#x16b;" horiz-adv-x="568" 
d="M405 56q-29 -36 -69.5 -50t-84.5 -14q-43 0 -78.5 14.5t-61 40.5t-39.5 63.5t-14 84.5v305h86v-300q0 -55 33.5 -91t91.5 -36q52 0 86.5 26t49.5 74v327h86v-500h-86v56zM127 679h292v-65h-292v65z" />
    <glyph glyph-name="Ubreve" unicode="&#x16c;" horiz-adv-x="721" 
d="M360 -8q-62 0 -114 19t-89.5 55t-58.5 87.5t-21 116.5v440h91v-444q0 -46 14 -81t39.5 -58.5t60.5 -35.5t78 -12t78 12t60.5 35.5t39.5 58.5t14 81v444h91v-440q0 -65 -21 -116.5t-58.5 -87.5t-89.5 -55t-114 -19zM358 772q-35 0 -63 11t-48.5 29.5t-32 43.5t-12.5 53h64
q2 -31 26 -55t67 -24t67.5 24t26.5 55h64q-2 -28 -13.5 -53t-32 -43.5t-49 -29.5t-64.5 -11z" />
    <glyph glyph-name="ubreve" unicode="&#x16d;" horiz-adv-x="568" 
d="M405 56q-29 -36 -69.5 -50t-84.5 -14q-43 0 -78.5 14.5t-61 40.5t-39.5 63.5t-14 84.5v305h86v-300q0 -55 33.5 -91t91.5 -36q52 0 86.5 26t49.5 74v327h86v-500h-86v56zM272 573q-35 0 -63 11t-48.5 29.5t-32 43.5t-12.5 53h64q2 -31 26 -55t67 -24t67.5 24t26.5 55h64
q-2 -28 -13.5 -53t-32 -43.5t-49 -29.5t-64.5 -11z" />
    <glyph glyph-name="Uring" unicode="&#x16e;" horiz-adv-x="721" 
d="M360 -8q-62 0 -114 19t-89.5 55t-58.5 87.5t-21 116.5v440h91v-444q0 -46 14 -81t39.5 -58.5t60.5 -35.5t78 -12t78 12t60.5 35.5t39.5 58.5t14 81v444h91v-440q0 -65 -21 -116.5t-58.5 -87.5t-89.5 -55t-114 -19zM359 798q20 0 34 13t14 34t-14 34.5t-34 13.5t-34 -13.5
t-14 -34.5t14 -34t34 -13zM359 751q-42 0 -70.5 26.5t-28.5 67.5q0 42 29 68.5t70 26.5t70 -26.5t29 -68.5q0 -41 -28.5 -67.5t-70.5 -26.5z" />
    <glyph glyph-name="uring" unicode="&#x16f;" horiz-adv-x="568" 
d="M405 56q-29 -36 -69.5 -50t-84.5 -14q-43 0 -78.5 14.5t-61 40.5t-39.5 63.5t-14 84.5v305h86v-300q0 -55 33.5 -91t91.5 -36q52 0 86.5 26t49.5 74v327h86v-500h-86v56zM273 613q20 0 34 13t14 34q0 22 -14 35t-34 13t-34 -13t-14 -35q0 -21 14 -34t34 -13zM273 566
q-21 0 -39 7t-31.5 20t-21 30t-7.5 37q0 42 29 68.5t70 26.5t70 -26.5t29 -68.5q0 -20 -7.5 -37t-21 -30t-31.5 -20t-39 -7z" />
    <glyph glyph-name="Uhungarumlaut" unicode="&#x170;" horiz-adv-x="721" 
d="M360 -8q-62 0 -114 19t-89.5 55t-58.5 87.5t-21 116.5v440h91v-444q0 -46 14 -81t39.5 -58.5t60.5 -35.5t78 -12t78 12t60.5 35.5t39.5 58.5t14 81v444h91v-440q0 -65 -21 -116.5t-58.5 -87.5t-89.5 -55t-114 -19zM287 913h104l-113 -145h-68zM487 913h104l-113 -145h-68
z" />
    <glyph glyph-name="uhungarumlaut" unicode="&#x171;" horiz-adv-x="568" 
d="M405 56q-29 -36 -69.5 -50t-84.5 -14q-43 0 -78.5 14.5t-61 40.5t-39.5 63.5t-14 84.5v305h86v-300q0 -55 33.5 -91t91.5 -36q52 0 86.5 26t49.5 74v327h86v-500h-86v56zM223 710h101l-125 -165h-63zM392 710h101l-125 -165h-63z" />
    <glyph glyph-name="Uogonek" unicode="&#x172;" horiz-adv-x="721" 
d="M382 -189q-22 0 -41.5 6t-34.5 17.5t-23.5 28t-8.5 37.5q0 28 18.5 53t44.5 40q-57 3 -105 23.5t-82.5 56t-53.5 85.5t-19 112v440h91v-444q0 -46 14 -81t39.5 -58.5t60.5 -35.5t78 -12t78 12t60.5 35.5t39.5 58.5t14 81v444h91v-440q0 -55 -15 -100.5t-42.5 -80
t-66.5 -57t-86 -32.5q-36 -18 -54.5 -41t-18.5 -43q0 -17 13 -28.5t37 -11.5q11 0 20.5 2.5t15.5 4.5v-59q-27 -13 -64 -13z" />
    <glyph glyph-name="uogonek" unicode="&#x173;" horiz-adv-x="570" 
d="M405 56q-29 -36 -69.5 -50t-84.5 -14q-43 0 -78.5 14.5t-61 40.5t-39.5 63.5t-14 84.5v305h86v-300q0 -55 33.5 -91t91.5 -36q52 0 86.5 26t49.5 74v327h86v-500h-86v56zM431 -178q-21 0 -40 5.5t-33.5 17t-23 27.5t-8.5 37q0 32 24 55.5t55 35.5h87q-82 -36 -82 -75
q0 -16 12.5 -27t37.5 -11q11 0 19 2.5t14 4.5v-59q-14 -8 -29.5 -10.5t-32.5 -2.5z" />
    <glyph glyph-name="Wcircumflex" unicode="&#x174;" horiz-adv-x="903" 
d="M15 710h94l157 -474l185 482l186 -482l157 474h94l-244 -718l-193 501l-192 -501zM278 826l173 100l173 -100l-35 -60l-138 82l-138 -82z" />
    <glyph glyph-name="wcircumflex" unicode="&#x175;" horiz-adv-x="720" 
d="M181 611l170 107l170 -107l-35 -58l-135 86l-136 -86zM21 500h89l112 -364l138 372l138 -372l112 364h89l-158 -500h-69l-112 303l-111 -303h-70z" />
    <glyph glyph-name="Ycircumflex" unicode="&#x176;" horiz-adv-x="632" 
d="M270 301l-260 409h106l200 -320l200 320h106l-260 -409v-301h-92v301zM143 826l173 100l173 -100l-35 -60l-138 82l-138 -82z" />
    <glyph glyph-name="ycircumflex" unicode="&#x177;" horiz-adv-x="510" 
d="M210 42l-204 458h93l156 -364l157 364h93l-307 -684h-91zM85 611l170 107l170 -107l-35 -58l-135 86l-136 -86z" />
    <glyph glyph-name="Ydieresis" unicode="&#x178;" horiz-adv-x="632" 
d="M270 301l-260 409h106l200 -320l200 320h106l-260 -409v-301h-92v301zM203 782q-24 0 -42.5 18t-18.5 44q0 25 18.5 42.5t42.5 17.5q26 0 44 -17.5t18 -42.5q0 -26 -18 -44t-44 -18zM428 782q-25 0 -43 18t-18 44q0 25 18 42.5t43 17.5q26 0 44 -17.5t18 -42.5
q0 -26 -18 -44t-44 -18z" />
    <glyph glyph-name="Zacute" unicode="&#x179;" horiz-adv-x="607" 
d="M418 622h-352v88h508l-395 -622h397v-88h-553zM332 913h108l-112 -145h-73z" />
    <glyph glyph-name="zacute" unicode="&#x17a;" horiz-adv-x="504" 
d="M321 422h-262v78h411l-293 -422h283v-78h-433zM285 710h109l-124 -165h-72z" />
    <glyph glyph-name="Zdotaccent" unicode="&#x17b;" horiz-adv-x="607" 
d="M418 622h-352v88h508l-395 -622h397v-88h-553zM320 780q-25 0 -43.5 18.5t-18.5 45.5q0 26 18.5 44t43.5 18q27 0 45.5 -18t18.5 -44q0 -27 -18.5 -45.5t-45.5 -18.5z" />
    <glyph glyph-name="zdotaccent" unicode="&#x17c;" horiz-adv-x="504" 
d="M321 422h-262v78h411l-293 -422h283v-78h-433zM265 569q-26 0 -44 18t-18 44t18 43.5t44 17.5t44 -17.5t18 -43.5t-18 -44t-44 -18z" />
    <glyph glyph-name="Zcaron" unicode="&#x17d;" horiz-adv-x="607" 
d="M418 622h-352v88h508l-395 -622h397v-88h-553zM147 866l35 60l138 -82l138 82l35 -60l-173 -100z" />
    <glyph glyph-name="zcaron" unicode="&#x17e;" horiz-adv-x="504" 
d="M321 422h-262v78h411l-293 -422h283v-78h-433zM264 569l-170 107l34 58l136 -86l135 86l35 -58z" />
    <glyph glyph-name="Scommaaccent" unicode="&#x218;" horiz-adv-x="519" 
d="M208 -50h100l-109 -179h-65zM253 -8q-78 0 -138.5 32.5t-92.5 77.5l69 60q26 -33 67.5 -58t93.5 -25q62 0 98 26.5t36 73.5q0 49 -29.5 78t-86.5 54l-65 28q-81 35 -118 84.5t-37 116.5q0 40 17.5 73t46.5 56.5t66.5 36t76.5 12.5q63 0 113 -23.5t86 -67.5l-64 -64
q-28 33 -59.5 50.5t-78.5 17.5q-23 0 -43 -6t-36 -18t-25 -29.5t-9 -39.5q0 -39 24 -67t81 -53l65 -28q36 -16 66.5 -35t53 -43.5t35 -55t12.5 -67.5q0 -44 -15.5 -80t-45 -62t-71 -40.5t-93.5 -14.5z" />
    <glyph glyph-name="scommaaccent" unicode="&#x219;" horiz-adv-x="418" 
d="M146 -50h100l-109 -179h-65zM204 -8q-56 0 -101.5 24.5t-75.5 75.5l68 46q20 -33 45.5 -51t65.5 -18q37 0 63 17t26 46t-20 46.5t-65 33.5l-39 15q-66 25 -92.5 64t-26.5 84q0 28 11.5 52.5t32.5 42.5t49.5 28t62.5 10q48 0 87.5 -22t62.5 -68l-67 -39q-25 52 -83 52
q-29 0 -50 -14.5t-21 -40.5q0 -23 14.5 -41.5t58.5 -34.5l41 -15q64 -23 97 -58.5t33 -91.5q0 -30 -12.5 -56t-35.5 -45.5t-55.5 -30.5t-73.5 -11z" />
    <glyph glyph-name="Tcommaaccent" unicode="&#x21a;" horiz-adv-x="534" 
d="M218 -50h100l-109 -179h-65zM221 622h-201v88h494v-88h-202v-622h-91v622z" />
    <glyph glyph-name="tcommaaccent" unicode="&#x21b;" horiz-adv-x="371" 
d="M0 500h99v107l86 43v-150h151l-19 -78h-132v-264q0 -38 16 -59t58 -21h67v-78h-76q-72 0 -111.5 36.5t-39.5 108.5v277h-80zM170 -50h100l-109 -179h-65z" />
    <glyph glyph-name="uni0232" unicode="&#x232;" horiz-adv-x="632" 
d="M270 301l-260 409h106l200 -320l200 320h106l-260 -409v-301h-92v301zM169 868h292v-65h-292v65z" />
    <glyph glyph-name="uni0233" unicode="&#x233;" horiz-adv-x="510" 
d="M210 42l-204 458h93l156 -364l157 364h93l-307 -684h-91zM108 679h292v-65h-292v65z" />
    <glyph glyph-name="dotlessj" unicode="&#x237;" 
d="M-27 -106h30q42 0 58 21t16 59v526h86v-539q0 -72 -39.5 -108.5t-111.5 -36.5h-39v78z" />
    <glyph glyph-name="circumflex" unicode="&#x2c6;" horiz-adv-x="396" 
d="M26 611l170 107l170 -107l-35 -58l-135 86l-136 -86z" />
    <glyph glyph-name="caron" unicode="&#x2c7;" horiz-adv-x="404" 
d="M196 569l-170 107l34 58l136 -86l135 86l35 -58z" />
    <glyph glyph-name="breve" unicode="&#x2d8;" horiz-adv-x="379" 
d="M188 573q-35 0 -63 11t-48.5 29.5t-32 43.5t-12.5 53h64q2 -31 26 -55t67 -24t67.5 24t26.5 55h64q-2 -28 -13.5 -53t-32 -43.5t-49 -29.5t-64.5 -11z" />
    <glyph glyph-name="dotaccent" unicode="&#x2d9;" horiz-adv-x="177" 
d="M89 569q-26 0 -44 18t-18 44t18 43.5t44 17.5t44 -17.5t18 -43.5t-18 -44t-44 -18z" />
    <glyph glyph-name="ring" unicode="&#x2da;" horiz-adv-x="264" 
d="M132 613q20 0 34 13t14 34q0 22 -14 35t-34 13t-34 -13t-14 -35q0 -21 14 -34t34 -13zM132 566q-21 0 -39 7t-31.5 20t-21 30t-7.5 37q0 42 29 68.5t70 26.5t70 -26.5t29 -68.5q0 -20 -7.5 -37t-21 -30t-31.5 -20t-39 -7z" />
    <glyph glyph-name="ogonek" unicode="&#x2db;" 
d="M141 -178q-21 0 -40 5.5t-33.5 17t-23 27.5t-8.5 37q0 32 24 55.5t55 35.5h87q-82 -36 -82 -75q0 -16 12.5 -27t37.5 -11q11 0 19 2.5t14 4.5v-59q-14 -8 -29.5 -10.5t-32.5 -2.5z" />
    <glyph glyph-name="tilde" unicode="&#x2dc;" horiz-adv-x="434" 
d="M47 585q9 45 38.5 69.5t64.5 24.5q21 0 38.5 -7t33 -15t29 -15t25.5 -7q21 0 32 11t16 33h66l-3 -18q-8 -42 -36.5 -68t-66.5 -26q-21 0 -39 7t-33.5 15t-29 15t-26.5 7q-20 0 -30.5 -11t-15.5 -34h-66z" />
    <glyph glyph-name="hungarumlaut" unicode="&#x2dd;" horiz-adv-x="425" 
d="M120 710h101l-125 -165h-63zM289 710h101l-125 -165h-63z" />
    <glyph glyph-name="uni032C" unicode="&#x32c;" horiz-adv-x="433" 
d="M221 -177l-170 120l32 53l138 -99l138 99l32 -53z" />
    <glyph glyph-name="Delta" unicode="&#x394;" horiz-adv-x="790" 
d="M633 84l-238 453l-241 -453h479zM395 717l386 -717h-772z" />
    <glyph glyph-name="Delta" unicode="&#x2206;" horiz-adv-x="790" 
d="M633 84l-238 453l-241 -453h479zM395 717l386 -717h-772z" />
    <glyph glyph-name="Omega" unicode="&#x3a9;" horiz-adv-x="842" 
d="M59 83h132q-30 22 -54.5 51.5t-42 65t-27 75t-9.5 80.5q0 76 28 142.5t77 115.5t115.5 77t142.5 28t142.5 -28t115.5 -77t77 -115.5t28 -142.5q0 -41 -9.5 -80.5t-27 -75t-41.5 -65t-54 -51.5h132v-83h-271v90q40 14 73.5 40t57.5 60.5t37.5 76.5t13.5 88q0 58 -20.5 109
t-57 88.5t-87 59.5t-109.5 22t-109 -22t-86.5 -59.5t-57 -88.5t-20.5 -109q0 -46 13.5 -88t37.5 -76.5t57.5 -60.5t73.5 -40v-90h-271v83z" />
    <glyph glyph-name="Omega" unicode="&#x2126;" horiz-adv-x="842" 
d="M59 83h132q-30 22 -54.5 51.5t-42 65t-27 75t-9.5 80.5q0 76 28 142.5t77 115.5t115.5 77t142.5 28t142.5 -28t115.5 -77t77 -115.5t28 -142.5q0 -41 -9.5 -80.5t-27 -75t-41.5 -65t-54 -51.5h132v-83h-271v90q40 14 73.5 40t57.5 60.5t37.5 76.5t13.5 88q0 58 -20.5 109
t-57 88.5t-87 59.5t-109.5 22t-109 -22t-86.5 -59.5t-57 -88.5t-20.5 -109q0 -46 13.5 -88t37.5 -76.5t57.5 -60.5t73.5 -40v-90h-271v83z" />
    <glyph glyph-name="pi" unicode="&#x3c0;" horiz-adv-x="642" 
d="M444 422h-246v-422h-85v422h-75v78h566v-78h-75v-422h-85v422z" />
    <glyph glyph-name="uni0401" unicode="&#x401;" horiz-adv-x="558" 
d="M90 710h410v-88h-319v-215h259v-88h-259v-231h319v-88h-410v710zM182 782q-24 0 -42.5 18t-18.5 44q0 25 18.5 42.5t42.5 17.5q26 0 44 -17.5t18 -42.5q0 -26 -18 -44t-44 -18zM407 782q-25 0 -43 18t-18 44q0 25 18 42.5t43 17.5q26 0 44 -17.5t18 -42.5q0 -26 -18 -44
t-44 -18z" />
    <glyph glyph-name="uni0402" unicode="&#x402;" horiz-adv-x="778" 
d="M627 205q0 68 -37.5 108t-100.5 40q-28 0 -50 -2t-42.5 -6.5t-43 -12.5t-50.5 -19v-313h-91v622h-192v88h475v-88h-192v-222q29 11 53 19t47 13t47.5 7t54.5 2q46 0 85.5 -15t67.5 -44t44 -71t16 -96v-12q0 -73 -22 -129.5t-59.5 -95.5t-87.5 -59t-107 -20h-15v82h12
q22 0 54.5 8.5t62 31.5t50.5 64t21 107v13z" />
    <glyph glyph-name="uni0403" unicode="&#x403;" horiz-adv-x="502" 
d="M181 622v-622h-91v710h388v-88h-297zM293 913h108l-112 -145h-73z" />
    <glyph glyph-name="uni0404" unicode="&#x404;" horiz-adv-x="670" 
d="M142 319q7 -51 30 -94.5t58 -76t80 -51t98 -18.5q54 0 98 18.5t79 47.5l53 -69q-46 -42 -104.5 -63t-125.5 -21q-76 0 -142.5 27.5t-115.5 76.5t-77 115.5t-28 143.5t28 143.5t77 115t115.5 76.5t142.5 28q67 0 125.5 -21t104.5 -63l-53 -69q-35 29 -79 47.5t-98 18.5
q-53 0 -98 -16.5t-80 -46t-58 -70.5t-30 -91h353v-88h-353z" />
    <glyph glyph-name="uni0405" unicode="&#x405;" horiz-adv-x="518" 
d="M253 -8q-78 0 -138.5 32.5t-92.5 77.5l69 60q26 -33 67.5 -58t93.5 -25q62 0 98 26.5t36 73.5q0 49 -29.5 78t-86.5 54l-65 28q-81 35 -118 84.5t-37 116.5q0 40 17.5 73t46.5 56.5t66.5 36t76.5 12.5q63 0 113 -23.5t86 -67.5l-64 -64q-28 33 -59.5 50.5t-78.5 17.5
q-23 0 -43 -6t-36 -18t-25 -29.5t-9 -39.5q0 -39 24 -67t81 -53l65 -28q36 -16 66.5 -35t53 -43.5t35 -55t12.5 -67.5q0 -44 -15.5 -80t-45 -62t-71 -40.5t-93.5 -14.5z" />
    <glyph glyph-name="uni0406" unicode="&#x406;" horiz-adv-x="275" 
d="M92 710h91v-710h-91v710z" />
    <glyph glyph-name="uni0407" unicode="&#x407;" horiz-adv-x="275" 
d="M34 904q26 0 44 -17.5t18 -42.5q0 -26 -18 -44t-44 -18q-24 0 -42.5 18t-18.5 44q0 25 18.5 42.5t42.5 17.5zM239 904q26 0 44 -17.5t18 -42.5q0 -26 -18 -44t-44 -18q-25 0 -43 18t-18 44q0 25 18 42.5t43 17.5zM92 710h91v-710h-91v710z" />
    <glyph glyph-name="uni0408" unicode="&#x408;" horiz-adv-x="509" 
d="M217 -8q-43 0 -80.5 13.5t-65.5 39.5t-44.5 64.5t-16.5 88.5h91q0 -30 9 -52.5t25 -37t36.5 -22t44.5 -7.5q51 0 84 29t33 90v512h91v-518q0 -50 -16.5 -87.5t-45 -62.5t-66 -37.5t-79.5 -12.5z" />
    <glyph glyph-name="uni0409" unicode="&#x409;" horiz-adv-x="964" 
d="M674 428q57 0 103 -15t79 -43t50.5 -67.5t17.5 -88.5q0 -50 -17.5 -89.5t-50.5 -67t-79 -42.5t-103 -15h-71l-248 524l-248 -524h-98l346 718l140 -290h179zM673 84q78 0 119 33.5t41 96.5t-41 96.5t-119 33.5h-139l127 -260h12z" />
    <glyph glyph-name="uni040A" unicode="&#x40a;" horiz-adv-x="1003" 
d="M712 407q58 0 104.5 -14.5t79 -41t50 -62.5t17.5 -78q0 -48 -17.5 -87t-50.5 -66.5t-79.5 -42.5t-103.5 -15h-199v319h-332v-319h-91v710h91v-303h332v303h91v-303h108zM604 84h108q159 0 159 126q0 51 -40 80t-119 29h-108v-235z" />
    <glyph glyph-name="uni040B" unicode="&#x40b;" horiz-adv-x="803" 
d="M303 0h-91v622h-192v88h475v-88h-192v-222q29 11 55 19t51.5 12.5t52 6.5t56.5 2q48 0 87.5 -15.5t68 -43t44 -65t15.5 -81.5v-235h-91v225q0 26 -9 49.5t-25.5 41t-41 27.5t-55.5 10q-56 0 -103.5 -9t-104.5 -31v-313z" />
    <glyph glyph-name="uni040C" unicode="&#x40c;" horiz-adv-x="657" 
d="M90 710h91v-356l324 356h112l-328 -361l355 -349h-121l-342 337v-337h-91v710zM346 913h108l-112 -145h-73z" />
    <glyph glyph-name="uni040E" unicode="&#x40e;" horiz-adv-x="637" 
d="M272 0h-98l85 162l-269 548h100l219 -454l240 454h98zM465 914q-2 -76 -45 -116t-114 -40t-114 40t-45 116h72q1 -48 24.5 -72.5t62.5 -24.5t62.5 24.5t24.5 72.5h72z" />
    <glyph glyph-name="uni040F" unicode="&#x40f;" horiz-adv-x="727" 
d="M408 0v-135h-89v135h-229v710h91v-622h365v622h91v-710h-229z" />
    <glyph glyph-name="uni0410" unicode="&#x410;" horiz-adv-x="710" 
d="M355 718l346 -718h-98l-88 186h-320l-88 -186h-98zM235 270h240l-120 254z" />
    <glyph glyph-name="uni0411" unicode="&#x411;" horiz-adv-x="618" 
d="M181 622v-209h165q53 0 96.5 -15t74.5 -42.5t48 -66t17 -85.5q0 -49 -19 -87t-53 -64t-81.5 -39.5t-103.5 -13.5h-235v710h428v-88h-337zM181 85h160q74 0 112.5 33.5t38.5 87.5t-38.5 89t-112.5 35h-160v-245z" />
    <glyph glyph-name="uni0412" unicode="&#x412;" horiz-adv-x="623" 
d="M90 710h237q51 0 90.5 -15t65.5 -40t39.5 -59t13.5 -71q0 -54 -19.5 -89.5t-54.5 -58.5q53 -20 87 -62.5t34 -114.5q0 -48 -18 -85.5t-50 -63t-77 -38.5t-100 -13h-248v710zM349 84q72 0 107 34t35 86t-35 87t-107 35h-168v-242h168zM325 404q57 0 88.5 31.5t31.5 79.5
q0 22 -8 42.5t-23.5 35.5t-38 24t-50.5 9h-144v-222h144z" />
    <glyph glyph-name="uni0413" unicode="&#x413;" horiz-adv-x="502" 
d="M181 622v-622h-91v710h388v-88h-297z" />
    <glyph glyph-name="uni0414" unicode="&#x414;" horiz-adv-x="753" 
d="M728 -148h-89v148h-525v-148h-89v236h59l292 630l292 -630h60v-236zM376 524l-199 -436h398z" />
    <glyph glyph-name="uni0415" unicode="&#x415;" horiz-adv-x="558" 
d="M90 710h410v-88h-319v-215h259v-88h-259v-231h319v-88h-410v710z" />
    <glyph glyph-name="uni0416" unicode="&#x416;" horiz-adv-x="1043" 
d="M134 0h-121l355 349l-328 361h112l324 -356v356h91v-356l324 356h112l-328 -361l355 -349h-121l-342 337v-337h-91v337z" />
    <glyph glyph-name="uni0417" unicode="&#x417;" horiz-adv-x="545" 
d="M59 628q46 44 96.5 67t112.5 23q51 0 90.5 -15.5t66.5 -42t41 -61.5t14 -74q0 -48 -23 -88t-68 -65q55 -19 85.5 -64.5t30.5 -107.5q0 -51 -20 -89.5t-54 -65t-77.5 -40t-90.5 -13.5q-76 0 -138.5 31t-99.5 77l67 61q29 -35 75 -59t99 -24q34 0 61 9.5t46.5 26.5t30 40
t10.5 50q0 52 -35.5 88t-108.5 36h-69v78h72q57 0 86 33t29 80q0 48 -30.5 80.5t-91.5 32.5q-81 0 -144 -65z" />
    <glyph glyph-name="uni0418" unicode="&#x418;" horiz-adv-x="777" 
d="M90 -8v718h91v-505l506 513v-718h-91v505z" />
    <glyph glyph-name="uni0419" unicode="&#x419;" horiz-adv-x="777" 
d="M549 915q-2 -76 -45 -116t-114 -40t-114 40t-45 116h72q1 -48 24.5 -72.5t62.5 -24.5t62.5 24.5t24.5 72.5h72zM90 -8v718h91v-505l506 513v-718h-91v505z" />
    <glyph glyph-name="uni041A" unicode="&#x41a;" horiz-adv-x="656" 
d="M90 710h91v-356l324 356h112l-328 -361l355 -349h-121l-342 337v-337h-91v710z" />
    <glyph glyph-name="uni041B" unicode="&#x41b;" horiz-adv-x="710" 
d="M355 524l-248 -524h-98l346 718l346 -718h-98z" />
    <glyph glyph-name="uni041C" unicode="&#x41c;" horiz-adv-x="872" 
d="M90 718l346 -381l346 381v-718h-91v494l-255 -285l-255 285v-494h-91v718z" />
    <glyph glyph-name="uni041D" unicode="&#x41d;" horiz-adv-x="754" 
d="M90 710h91v-303h392v303h91v-710h-91v319h-392v-319h-91v710z" />
    <glyph glyph-name="uni041E" unicode="&#x41e;" horiz-adv-x="816" 
d="M408 79q58 0 107.5 21t85.5 58.5t56.5 87.5t20.5 109q0 58 -20.5 108.5t-56.5 88t-85.5 58.5t-107.5 21t-107.5 -21t-85.5 -58.5t-56.5 -88t-20.5 -108.5q0 -59 20.5 -109t56.5 -87.5t85.5 -58.5t107.5 -21zM408 -8q-76 0 -142.5 27.5t-115.5 76.5t-77 115.5t-28 143.5
t28 143.5t77 115t115.5 76.5t142.5 28t142.5 -28t115.5 -76.5t77 -115t28 -143.5t-28 -143.5t-77 -115.5t-115.5 -76.5t-142.5 -27.5z" />
    <glyph glyph-name="uni041F" unicode="&#x41f;" horiz-adv-x="722" 
d="M541 0v622h-360v-622h-91v710h542v-710h-91z" />
    <glyph glyph-name="uni0420" unicode="&#x420;" horiz-adv-x="573" 
d="M90 710h201q56 0 101.5 -15t77.5 -43t49.5 -68.5t17.5 -90.5t-17.5 -90t-49.5 -68t-77.5 -43.5t-101.5 -15.5h-110v-276h-91v710zM288 360q77 0 116.5 35t39.5 98t-39.5 98t-116.5 35h-107v-266h107z" />
    <glyph glyph-name="uni0421" unicode="&#x421;" horiz-adv-x="670" 
d="M408 -8q-76 0 -142.5 27.5t-115.5 76.5t-77 115.5t-28 143.5t28 143.5t77 115t115.5 76.5t142.5 28q67 0 125.5 -21t104.5 -63l-53 -69q-35 29 -79 47.5t-98 18.5q-58 0 -107.5 -21t-85.5 -58.5t-56.5 -88t-20.5 -108.5q0 -59 20.5 -109t56.5 -87.5t85.5 -58.5t107.5 -21
q54 0 98 18.5t79 47.5l53 -69q-46 -42 -104.5 -63t-125.5 -21z" />
    <glyph glyph-name="uni0422" unicode="&#x422;" horiz-adv-x="534" 
d="M221 622h-201v88h494v-88h-202v-622h-91v622z" />
    <glyph glyph-name="uni0423" unicode="&#x423;" horiz-adv-x="637" 
d="M272 0h-98l85 162l-269 548h100l219 -454l240 454h98z" />
    <glyph glyph-name="uni0424" unicode="&#x424;" horiz-adv-x="897" 
d="M534 655q74 0 133 -20.5t100 -57t63 -88t22 -114.5t-22 -115t-63 -89.5t-100 -58t-133 -20.5h-40v-92h-91v92h-40q-74 0 -133 20.5t-100 58t-63 89.5t-22 115t22 114.5t63 88t100 57t133 20.5h40v97h91v-97h40zM359 567q-111 0 -166 -52t-55 -140q0 -91 55 -143t166 -52
h44v387h-44zM538 180q111 0 166 52t55 143q0 88 -55 140t-166 52h-44v-387h44z" />
    <glyph glyph-name="uni0425" unicode="&#x425;" horiz-adv-x="668" 
d="M277 362l-243 348h105l195 -279l195 279h105l-241 -348l255 -362h-103l-210 295l-208 -295h-106z" />
    <glyph glyph-name="uni0426" unicode="&#x426;" horiz-adv-x="747" 
d="M712 88v-236h-89v148h-533v710h91v-622h352v622h91v-622h88z" />
    <glyph glyph-name="uni0427" unicode="&#x427;" horiz-adv-x="702" 
d="M612 0h-91v310q-46 -18 -101 -29t-115 -11q-111 0 -175.5 52.5t-64.5 162.5v225h91v-205q0 -45 12.5 -74t34 -45.5t51.5 -22.5t65 -6q49 0 100 9t102 31v313h91v-710z" />
    <glyph glyph-name="uni0428" unicode="&#x428;" horiz-adv-x="971" 
d="M90 0v710h91v-622h259v622h91v-622h259v622h91v-710h-791z" />
    <glyph glyph-name="uni0429" unicode="&#x429;" horiz-adv-x="1004" 
d="M969 88v-236h-89v148h-790v710h91v-622h259v622h91v-622h259v622h91v-622h88z" />
    <glyph glyph-name="uni042A" unicode="&#x42a;" horiz-adv-x="712" 
d="M422 428q57 0 103 -15t79 -43t50.5 -67.5t17.5 -88.5q0 -50 -17.5 -89.5t-50.5 -67t-79 -42.5t-103 -15h-211v622h-191v88h282v-282h120zM421 84q78 0 119 33.5t41 96.5t-41 96.5t-119 33.5h-119v-260h119z" />
    <glyph glyph-name="uni042B" unicode="&#x42b;" horiz-adv-x="840" 
d="M659 710h91v-710h-91v710zM301 428q57 0 103 -15t79 -43t50.5 -67.5t17.5 -88.5q0 -50 -17.5 -89.5t-50.5 -67t-79 -42.5t-103 -15h-211v710h91v-282h120zM181 84h119q78 0 119 33.5t41 96.5t-41 96.5t-119 33.5h-119v-260z" />
    <glyph glyph-name="uni042C" unicode="&#x42c;" horiz-adv-x="591" 
d="M301 428q57 0 103 -15t79 -43t50.5 -67.5t17.5 -88.5q0 -50 -17.5 -89.5t-50.5 -67t-79 -42.5t-103 -15h-211v710h91v-282h120zM181 84h119q78 0 119 33.5t41 96.5t-41 96.5t-119 33.5h-119v-260z" />
    <glyph glyph-name="uni042D" unicode="&#x42d;" horiz-adv-x="670" 
d="M32 635q46 42 104.5 63t125.5 21q76 0 142.5 -28t115.5 -76.5t77 -115t28 -143.5t-28 -143.5t-77 -115.5t-115.5 -76.5t-142.5 -27.5q-67 0 -125.5 21t-104.5 63l53 69q35 -29 79 -47.5t98 -18.5q52 0 97.5 18.5t81 50.5t58 76t30.5 94h-337v88h337q-8 50 -30.5 91.5
t-58 71t-81 46t-97.5 16.5q-54 0 -98 -18.5t-79 -47.5z" />
    <glyph glyph-name="uni042E" unicode="&#x42e;" horiz-adv-x="1087" 
d="M319 407q9 67 40.5 124.5t79 98.5t109 64.5t131.5 23.5q76 0 142.5 -28t115.5 -76.5t77 -115t28 -143.5t-28 -143.5t-77 -115.5t-115.5 -76.5t-142.5 -27.5q-72 0 -135 24.5t-111 68.5t-78.5 103.5t-36.5 130.5h-137v-319h-91v710h91v-303h138zM679 79q58 0 107.5 21
t85.5 58.5t56.5 87.5t20.5 109q0 58 -20.5 108.5t-56.5 88t-85.5 58.5t-107.5 21t-107.5 -21t-85.5 -58.5t-56.5 -88t-20.5 -108.5q0 -59 20.5 -109t56.5 -87.5t85.5 -58.5t107.5 -21z" />
    <glyph glyph-name="uni042F" unicode="&#x42f;" horiz-adv-x="631" 
d="M450 0v276h-120h-6l-182 -276h-107l194 291h-1q-45 16 -77 44t-49.5 68t-17.5 90t17.5 90.5t49.5 68.5t77.5 43t101.5 15h211v-710h-91zM450 626h-117q-77 0 -116.5 -35t-39.5 -98t39.5 -98t116.5 -35h117v266z" />
    <glyph glyph-name="uni0430" unicode="&#x430;" horiz-adv-x="631" 
d="M460 50q-32 -29 -72.5 -43.5t-86.5 -14.5q-55 0 -102 20t-81 54.5t-53 82t-19 101.5t19 101.5t53 82t81 54.5t102 20q46 0 86.5 -14.5t72.5 -43.5v50h86v-500h-86v50zM303 73q54 0 94.5 23t62.5 58v192q-22 35 -62.5 58t-94.5 23q-37 0 -67.5 -13.5t-53 -37.5t-35 -56.5
t-12.5 -69.5t12.5 -69.5t35 -56.5t53 -37.5t67.5 -13.5z" />
    <glyph glyph-name="uni0431" unicode="&#x431;" horiz-adv-x="613" 
d="M312 417q-38 0 -69 -12.5t-53.5 -35t-34.5 -53t-12 -66.5q0 -38 12.5 -70.5t34.5 -56.5t53 -38t69 -14q37 0 68.5 14t53.5 38t34.5 56.5t12.5 70.5q0 36 -12 66.5t-34.5 53t-53.5 35t-69 12.5zM356 617q-60 -15 -99 -36t-63 -48t-36.5 -59.5t-21.5 -68.5q34 44 80.5 67
t103.5 23t102.5 -20.5t78 -54t49.5 -78t17 -92.5q0 -54 -19 -101t-53 -82t-81 -55t-102 -20q-57 0 -104 20.5t-81 57.5t-52.5 86.5t-18.5 108.5v51q0 84 20.5 147.5t57.5 109.5t89.5 75t116.5 45l185 46v-81z" />
    <glyph glyph-name="uni0432" unicode="&#x432;" horiz-adv-x="554" 
d="M171 424v-133h146q27 0 50.5 15t23.5 51t-23.5 51.5t-50.5 15.5h-146zM171 224v-148h166q36 0 61 18.5t25 55.5t-25 55.5t-61 18.5h-166zM85 500h222q85 0 129.5 -36t44.5 -99q0 -29 -13 -56t-40 -44q41 -15 63.5 -45.5t22.5 -75.5q0 -31 -11 -57t-33.5 -45.5
t-57.5 -30.5t-82 -11h-245v500z" />
    <glyph glyph-name="uni0433" unicode="&#x433;" horiz-adv-x="412" 
d="M170 422v-422h-85v500h307v-78h-222z" />
    <glyph glyph-name="uni0434" unicode="&#x434;" horiz-adv-x="586" 
d="M571 -126h-81v126h-394v-126h-81v204h55l223 430l224 -430h54v-204zM291 332l-126 -254h254z" />
    <glyph glyph-name="uni0435" unicode="&#x435;" horiz-adv-x="580" 
d="M303 -8q-56 0 -103 20t-81 55t-53.5 82t-19.5 101t19.5 101.5t53.5 82t79.5 54.5t98.5 20q52 0 96.5 -18.5t77 -54t51 -87.5t19.5 -119h-406q3 -33 17 -61.5t36 -49.5t51.5 -33t63.5 -12q48 0 85 18t61 42l55 -60q-32 -34 -83.5 -57.5t-117.5 -23.5zM292 429
q-55 0 -97 -34t-56 -91h305q-9 62 -52 94t-100 31z" />
    <glyph glyph-name="uni0436" unicode="&#x436;" horiz-adv-x="790" 
d="M110 0h-108l254 249l-230 251h101l225 -248v248h86v-248l225 248h101l-230 -251l254 -249h-108l-242 240v-240h-86v240z" />
    <glyph glyph-name="uni0437" unicode="&#x437;" horiz-adv-x="460" 
d="M45 418q29 42 74.5 66t106.5 24q38 0 70 -10t55 -28t35.5 -43.5t12.5 -56.5q0 -35 -17.5 -63.5t-49.5 -45.5q41 -16 64.5 -48.5t23.5 -74.5q0 -28 -12 -54.5t-36 -46.5t-60.5 -32.5t-84.5 -12.5q-65 0 -114.5 24t-82.5 76l68 45q20 -34 49.5 -52.5t79.5 -18.5
q60 0 83 23.5t23 56.5q0 37 -29.5 58t-81.5 21h-65v68h62q18 0 35.5 4t31 12.5t22 22t8.5 33.5q0 18 -7.5 31t-20.5 21.5t-29 12.5t-34 4q-39 0 -68.5 -14.5t-45.5 -43.5z" />
    <glyph glyph-name="uni0438" unicode="&#x438;" horiz-adv-x="617" 
d="M447 0v329l-362 -337v508h85v-334l362 342v-508h-85z" />
    <glyph glyph-name="uni0439" unicode="&#x439;" horiz-adv-x="617" 
d="M447 0v329l-362 -337v508h85v-334l362 342v-508h-85zM482 710q-2 -77 -45.5 -116.5t-113.5 -39.5q-71 0 -114 40t-45 116h68q1 -51 26.5 -75.5t64.5 -24.5q38 0 63 24.5t27 75.5h69z" />
    <glyph glyph-name="uni043A" unicode="&#x43a;" horiz-adv-x="523" 
d="M85 500h86v-248l225 248h101l-230 -251l254 -249h-108l-242 240v-240h-86v500z" />
    <glyph glyph-name="uni043B" unicode="&#x43b;" horiz-adv-x="539" 
d="M270 332l-169 -332h-96l264 508l265 -508h-98z" />
    <glyph glyph-name="uni043C" unicode="&#x43c;" horiz-adv-x="727" 
d="M642 0h-85v343l-193 -351l-194 353v-345h-85v500h85l194 -355l193 355h85v-500z" />
    <glyph glyph-name="uni043D" unicode="&#x43d;" horiz-adv-x="610" 
d="M440 0v216h-270v-216h-85v500h85v-206h270v206h85v-500h-85z" />
    <glyph glyph-name="uni043E" unicode="&#x43e;" horiz-adv-x="611" 
d="M306 73q38 0 69.5 13.5t54 37.5t34.5 56.5t12 69.5t-12 69.5t-34.5 56.5t-54 37.5t-69.5 13.5t-69.5 -13.5t-54 -37.5t-35 -56.5t-12.5 -69.5t12.5 -69.5t35 -56.5t54 -37.5t69.5 -13.5zM306 -8q-57 0 -104.5 20t-82 55t-54 82t-19.5 101t19.5 101t54 82t82 55t104.5 20
q56 0 103.5 -20t82 -55t54 -82t19.5 -101t-19.5 -101t-54 -82t-82 -55t-103.5 -20z" />
    <glyph glyph-name="uni043F" unicode="&#x43f;" horiz-adv-x="599" 
d="M428 0v422h-257v-422h-86v500h429v-500h-86z" />
    <glyph glyph-name="uni0440" unicode="&#x440;" horiz-adv-x="631" 
d="M85 500h86v-50q31 29 71.5 43.5t87.5 14.5q55 0 102 -20t81 -54.5t53 -82t19 -101.5t-19 -101.5t-53 -82t-81 -54.5t-102 -20q-47 0 -87.5 14.5t-71.5 43.5v-234h-86v684zM328 427q-54 0 -95 -23t-62 -58v-192q21 -35 62 -58t95 -23q37 0 67.5 13.5t53 37.5t35 56.5
t12.5 69.5t-12.5 69.5t-35 56.5t-53 37.5t-67.5 13.5z" />
    <glyph glyph-name="uni0441" unicode="&#x441;" horiz-adv-x="536" 
d="M303 -8q-56 0 -103 20t-81 55t-53.5 82t-19.5 101t19.5 101t53.5 82t81 55t103 20q63 0 110.5 -22.5t80.5 -56.5l-55 -60q-24 24 -57.5 41t-78.5 17q-37 0 -67.5 -13.5t-53 -37.5t-35 -56.5t-12.5 -69.5t12.5 -69.5t35 -56.5t53 -37.5t67.5 -13.5q45 0 78.5 17t57.5 41
l55 -60q-33 -34 -80.5 -56.5t-110.5 -22.5z" />
    <glyph glyph-name="uni0442" unicode="&#x442;" horiz-adv-x="440" 
d="M259 422v-422h-85v422h-158v78h408v-78h-165z" />
    <glyph glyph-name="uni0443" unicode="&#x443;" horiz-adv-x="511" 
d="M210 42l-204 458h93l156 -364l157 364h93l-307 -684h-91z" />
    <glyph glyph-name="uni0444" unicode="&#x444;" horiz-adv-x="754" 
d="M447 508q59 0 107.5 -20.5t82.5 -55.5t52.5 -82t18.5 -100t-18.5 -100t-52.5 -82t-82.5 -55.5t-107.5 -20.5h-27v-176h-85v176h-27q-59 0 -107.5 20.5t-83 55.5t-53 82t-18.5 100t18.5 100t53 82t83 55.5t107.5 20.5h27v202h85v-202h27zM308 430q-40 0 -72.5 -14.5
t-55 -39t-35 -57t-12.5 -69.5t12.5 -69.5t35 -57t55 -39t72.5 -14.5h27v360h-27zM447 70q40 0 72.5 14.5t55 39t35 57t12.5 69.5t-12.5 69.5t-35 57t-55 39t-72.5 14.5h-27v-360h27z" />
    <glyph glyph-name="uni0445" unicode="&#x445;" horiz-adv-x="540" 
d="M218 254l-185 246h99l139 -184l137 184h99l-185 -246l195 -254h-100l-147 194l-147 -194h-100z" />
    <glyph glyph-name="uni0446" unicode="&#x446;" horiz-adv-x="629" 
d="M589 -127h-80v127h-424v500h86v-422h252v422h86v-422h80v-205z" />
    <glyph glyph-name="uni0447" unicode="&#x447;" horiz-adv-x="550" 
d="M465 0h-86v200q-37 -14 -70 -21.5t-71 -7.5q-87 0 -140 49t-53 141v139h86v-127q0 -35 10 -58t26.5 -37t38.5 -20t46 -6q26 0 60.5 7t66.5 24v217h86v-500z" />
    <glyph glyph-name="uni0448" unicode="&#x448;" horiz-adv-x="817" 
d="M85 0v500h85v-422h196v422h85v-422h196v422h85v-500h-647z" />
    <glyph glyph-name="uni0449" unicode="&#x449;" horiz-adv-x="852" 
d="M812 -127h-80v127h-647v500h85v-422h196v422h85v-422h196v422h85v-422h80v-205z" />
    <glyph glyph-name="uni044A" unicode="&#x44a;" horiz-adv-x="556" 
d="M156 0v422h-140v78h226v-186h90q49 0 85.5 -13t59.5 -34.5t34.5 -49.5t11.5 -59t-11.5 -59.5t-34.5 -50.5t-59.5 -35t-85.5 -13h-176zM335 78q48 0 75.5 20.5t27.5 59.5q0 40 -27.5 59t-73.5 19h-95v-158h93z" />
    <glyph glyph-name="uni044B" unicode="&#x44b;" horiz-adv-x="687" 
d="M250 314q49 0 85 -13t59 -34.5t34 -49.5t11 -59t-11 -59.5t-34 -50.5t-59 -35t-85 -13h-165v500h86v-186h79zM253 77q48 0 75.5 21t27.5 60q0 40 -27.5 61.5t-73.5 21.5h-84v-164h82zM516 500h86v-500h-86v500z" />
    <glyph glyph-name="uni044C" unicode="&#x44c;" horiz-adv-x="495" 
d="M271 314q49 0 85.5 -13t59.5 -34.5t34.5 -49.5t11.5 -59t-11.5 -59.5t-34.5 -50.5t-59.5 -35t-85.5 -13h-186v500h86v-186h100zM274 78q48 0 75.5 20.5t27.5 59.5q0 40 -27.5 59t-73.5 19h-105v-158h103z" />
    <glyph glyph-name="uni044D" unicode="&#x44d;" horiz-adv-x="530" 
d="M36 429q33 34 80.5 56.5t110.5 22.5q55 0 102.5 -20t81.5 -55t53.5 -82t19.5 -101t-19.5 -101t-53.5 -82t-81.5 -55t-102.5 -20q-63 0 -110.5 22.5t-80.5 56.5l55 60q24 -24 57.5 -41t78.5 -17q66 0 110.5 40t54.5 103h-223v77h221q-14 57 -57.5 95.5t-105.5 38.5
q-45 0 -78.5 -17t-57.5 -41z" />
    <glyph glyph-name="uni044E" unicode="&#x44e;" horiz-adv-x="847" 
d="M285 293q7 46 29 85.5t56 68t77.5 45t94.5 16.5q56 0 103.5 -20t82 -55t54 -82t19.5 -101t-19.5 -101t-54 -82t-82 -55t-103.5 -20q-52 0 -96.5 17t-78.5 47t-55.5 71t-27.5 89h-113v-216h-86v500h86v-207h114zM542 73q38 0 69.5 13.5t54 37.5t34.5 56.5t12 69.5
t-12 69.5t-34.5 56.5t-54 37.5t-69.5 13.5t-69.5 -13.5t-54 -37.5t-35 -56.5t-12.5 -69.5t12.5 -69.5t35 -56.5t54 -37.5t69.5 -13.5z" />
    <glyph glyph-name="uni044F" unicode="&#x44f;" horiz-adv-x="537" 
d="M452 0h-86v189h-91l-138 -189h-97l146 196l-12 4q-31 12 -53 33t-33.5 50t-11.5 63q0 68 45.5 111t143.5 43h187v-500zM260 426q-101 0 -101 -82q0 -42 26.5 -61.5t74.5 -19.5h106v163h-106z" />
    <glyph glyph-name="uni0451" unicode="&#x451;" horiz-adv-x="580" 
d="M303 -8q-56 0 -103 20t-81 55t-53.5 82t-19.5 101t19.5 101.5t53.5 82t79.5 54.5t98.5 20q52 0 96.5 -18.5t77 -54t51 -87.5t19.5 -119h-406q3 -33 17 -61.5t36 -49.5t51.5 -33t63.5 -12q48 0 85 18t61 42l55 -60q-32 -34 -83.5 -57.5t-117.5 -23.5zM292 429
q-55 0 -97 -34t-56 -91h305q-9 62 -52 94t-100 31zM185 571q-24 0 -42 17t-18 43q0 25 18 42t42 17q26 0 43.5 -17t17.5 -42q0 -26 -17.5 -43t-43.5 -17zM410 571q-25 0 -42.5 17t-17.5 43q0 25 17.5 42t42.5 17q26 0 43 -17t17 -42q0 -26 -17 -43t-43 -17z" />
    <glyph glyph-name="uni0452" unicode="&#x452;" horiz-adv-x="586" 
d="M403 590v-78h-211v-170q28 38 69 53t86 15q94 0 144 -54t50 -148v-27q0 -68 -16.5 -133t-47.5 -117t-76 -83.5t-102 -31.5h-14v81h11q31 0 59.5 18.5t50.5 52.5t35.5 82.5t13.5 108.5v34q0 66 -33.5 102.5t-92.5 36.5q-52 0 -87 -27.5t-50 -71.5v-233h-86v512h-96v78h96
v120h86v-120h211z" />
    <glyph glyph-name="uni0453" unicode="&#x453;" horiz-adv-x="425" 
d="M170 422v-422h-85v500h307v-78h-222zM296 710h109l-124 -165h-72z" />
    <glyph glyph-name="uni0454" unicode="&#x454;" horiz-adv-x="536" 
d="M138 216q5 -31 19.5 -57t36 -45t49.5 -30t60 -11q45 0 78.5 17t57.5 41l55 -60q-33 -34 -80.5 -56.5t-110.5 -22.5q-56 0 -103 20t-81 55t-53.5 82t-19.5 101t19.5 101t53.5 82t81 55t103 20q63 0 110.5 -22.5t80.5 -56.5l-55 -60q-24 24 -57.5 41t-78.5 17
q-63 0 -106.5 -37.5t-56.5 -96.5h233v-77h-235z" />
    <glyph glyph-name="uni0455" unicode="&#x455;" horiz-adv-x="417" 
d="M204 -8q-56 0 -101.5 24.5t-75.5 75.5l68 46q20 -33 45.5 -51t65.5 -18q37 0 63 17t26 46t-20 46.5t-65 33.5l-39 15q-66 25 -92.5 64t-26.5 84q0 28 11.5 52.5t32.5 42.5t49.5 28t62.5 10q48 0 87.5 -22t62.5 -68l-67 -39q-25 52 -83 52q-29 0 -50 -14.5t-21 -40.5
q0 -23 14.5 -41.5t58.5 -34.5l41 -15q64 -23 97 -58.5t33 -91.5q0 -30 -12.5 -56t-35.5 -45.5t-55.5 -30.5t-73.5 -11z" />
    <glyph glyph-name="uni0456" unicode="&#x456;" 
d="M77 609q-19 17 -19 46q0 26 18 44.5t44 18.5t44 -18.5t18 -44.5q0 -29 -19 -46h-86zM77 500h86v-500h-86v500z" />
    <glyph glyph-name="uni0457" unicode="&#x457;" horiz-adv-x="239" 
d="M22 690q26 0 43.5 -17t17.5 -42q0 -26 -17.5 -43t-43.5 -17q-24 0 -42 17t-18 43q0 25 18 42t42 17zM217 690q26 0 43 -17t17 -42q0 -26 -17 -43t-43 -17q-25 0 -42.5 17t-17.5 43q0 25 17.5 42t42.5 17zM77 500h86v-500h-86v500z" />
    <glyph glyph-name="uni0458" unicode="&#x458;" horiz-adv-x="244" 
d="M77 609q-19 17 -19 46q0 26 18 44.5t44 18.5t44 -18.5t18 -44.5q0 -29 -19 -46h-86zM-27 -106h30q42 0 58 21t16 59v526h86v-539q0 -72 -39.5 -108.5t-111.5 -36.5h-39v78z" />
    <glyph glyph-name="uni0459" unicode="&#x459;" horiz-adv-x="738" 
d="M517 314q51 0 87 -13t58.5 -34.5t33 -49.5t9.5 -59q1 -31 -9.5 -59.5t-34 -50.5t-59.5 -35t-86 -13h-81l-168 329l-167 -329h-95l264 508l101 -194h147zM410 236l82 -158h27q49 0 77 20.5t26 59.5q2 40 -25.5 59t-75.5 19h-111z" />
    <glyph glyph-name="uni045A" unicode="&#x45a;" horiz-adv-x="787" 
d="M565 314q49 0 85 -13t59 -34.5t34 -49.5t11 -59t-11 -59.5t-34 -50.5t-59 -35t-85 -13h-166v216h-229v-216h-85v500h85v-207h229v207h85v-186h81zM568 77q48 0 75.5 21t27.5 60q0 40 -27.5 59.5t-73.5 19.5h-86v-160h84z" />
    <glyph glyph-name="uni045B" unicode="&#x45b;" horiz-adv-x="598" 
d="M192 342q28 37 69 52.5t86 15.5q43 0 79 -14.5t61 -40.5t39 -64t14 -84v-207h-85v193q0 66 -33 102.5t-93 36.5q-52 0 -87 -27.5t-50 -71.5v-233h-86v512h-96v78h96v120h86v-120h212v-78h-212v-170z" />
    <glyph glyph-name="uni045C" unicode="&#x45c;" horiz-adv-x="522" 
d="M85 500h86v-248l225 248h101l-230 -251l254 -249h-108l-242 240v-240h-86v500zM307 710h109l-124 -165h-72z" />
    <glyph glyph-name="uni045E" unicode="&#x45e;" horiz-adv-x="511" 
d="M414 710q-2 -77 -45.5 -116.5t-113.5 -39.5q-71 0 -114 40t-45 116h68q1 -51 26.5 -75.5t64.5 -24.5q38 0 63 24.5t27 75.5h69zM210 42l-204 458h93l156 -364l157 364h93l-307 -684h-91z" />
    <glyph glyph-name="uni045F" unicode="&#x45f;" horiz-adv-x="605" 
d="M346 0v-127h-83v127h-178v500h85v-422h265v422h85v-500h-174z" />
    <glyph glyph-name="uni0462" unicode="&#x462;" horiz-adv-x="615" 
d="M330 428q57 0 103 -15t79 -43t50.5 -67.5t17.5 -88.5q0 -50 -17.5 -89.5t-50.5 -67t-79 -42.5t-103 -15h-211v530h-104v77h104v103h91v-103h228v-77h-228v-102h120zM329 84q78 0 119 33.5t41 96.5t-41 96.5t-119 33.5h-119v-260h119z" />
    <glyph glyph-name="uni0463" unicode="&#x463;" horiz-adv-x="526" 
d="M401 500v-78h-209v-93h97q52 0 90.5 -12.5t63.5 -34t37.5 -50t12.5 -61.5t-12.5 -63.5t-37.5 -54.5t-63.5 -38.5t-90.5 -14.5h-182v422h-97v78h97v210h85v-210h209zM192 77h107q50 0 80.5 25t30.5 70q0 44 -30 64t-79 20h-109v-179z" />
    <glyph glyph-name="uni0472" unicode="&#x472;" horiz-adv-x="816" 
d="M408 718q76 0 142.5 -28t115.5 -76.5t77 -115t28 -143.5t-28 -143.5t-77 -115.5t-115.5 -76.5t-142.5 -27.5t-142.5 27.5t-115.5 76.5t-77 115.5t-28 143.5t28 143.5t77 115t115.5 76.5t142.5 28zM408 631q-56 0 -103.5 -19.5t-83 -54t-57.5 -81t-25 -101.5
q37 20 75 29.5t72 9.5q31 0 59 -7t56 -15t58.5 -15t67.5 -7q38 0 77 8t70 25q-8 49 -31 91t-58 72.5t-80 47.5t-97 17zM408 79q54 0 100.5 18.5t82 51t58 77t27.5 97.5q-36 -14 -70 -21.5t-69 -7.5q-36 0 -71.5 7t-69 15t-64.5 15t-58 7q-32 0 -65 -11t-65 -34
q10 -47 33.5 -86t58 -67.5t78.5 -44.5t94 -16z" />
    <glyph glyph-name="uni0473" unicode="&#x473;" horiz-adv-x="611" 
d="M306 508q56 0 103.5 -20t82 -55t54 -82t19.5 -101t-19.5 -101t-54 -82t-82 -55t-103.5 -20q-57 0 -104.5 20t-82 55t-54 82t-19.5 101t19.5 101t54 82t82 55t104.5 20zM472 289q-6 30 -20 55.5t-35.5 43.5t-49.5 28.5t-61 10.5t-61 -10.5t-50 -28.5t-36 -43.5t-20 -55.5
h333zM137 224q4 -32 18 -60t36 -48t51 -31.5t64 -11.5t64 11.5t51 31.5t35.5 48t17.5 60h-337z" />
    <glyph glyph-name="uni0474" unicode="&#x474;" horiz-adv-x="669" 
d="M504 604q21 54 55 80t86 26v-92q-22 0 -34.5 -11t-24.5 -39l-251 -576l-328 718h100l228 -509z" />
    <glyph glyph-name="uni0475" unicode="&#x475;" horiz-adv-x="538" 
d="M388 405q24 51 56 73t74 22v-79q-15 0 -29 -10.5t-28 -38.5l-195 -380l-264 508h100l165 -337z" />
    <glyph glyph-name="uni0490" unicode="&#x490;" horiz-adv-x="502" 
d="M181 622v-622h-91v710h299v133h89v-221h-297z" />
    <glyph glyph-name="uni0491" unicode="&#x491;" horiz-adv-x="414" 
d="M171 422v-422h-86v500h228v127h81v-205h-223z" />
    <glyph glyph-name="uni0492" unicode="&#x492;" horiz-adv-x="511" 
d="M203 321v-321h-91v321h-92v77h92v312h375v-88h-284v-224h180v-77h-180z" />
    <glyph glyph-name="uni0493" unicode="&#x493;" horiz-adv-x="420" 
d="M178 301h128v-78h-128v-223h-85v223h-78v78h78v199h307v-78h-222v-121z" />
    <glyph glyph-name="uni0496" unicode="&#x496;" horiz-adv-x="1044" 
d="M1024 -148h-85v148h-35l-340 342v-342h-91v342l-340 -342h-121l348 349l-319 361h111l321 -362v362h91v-362l320 362h112l-320 -361l260 -261h88v-236z" />
    <glyph glyph-name="uni0497" unicode="&#x497;" horiz-adv-x="807" 
d="M787 -127h-75v127h-32l-244 255v-255h-84v257l-244 -257h-108l255 268l-226 232h105l218 -225v225h84v-223l218 223h105l-227 -232l181 -190h74v-205z" />
    <glyph glyph-name="uni049A" unicode="&#x49a;" horiz-adv-x="669" 
d="M649 -148h-85v148h-45l-342 345v-345h-91v710h91v-365l324 365h112l-320 -361l260 -261h96v-236z" />
    <glyph glyph-name="uni049B" unicode="&#x49b;" horiz-adv-x="543" 
d="M523 -127h-80v127h-30v1l-243 252v-253h-86v500h86v-223l222 223h108l-234 -232l182 -190h75v-205z" />
    <glyph glyph-name="uni04A2" unicode="&#x4a2;" horiz-adv-x="787" 
d="M752 -148h-85v148h-94v319h-392v-319h-91v710h91v-303h392v303h91v-622h88v-236z" />
    <glyph glyph-name="uni04A3" unicode="&#x4a3;" horiz-adv-x="645" 
d="M605 -127h-80v127h-86v216h-268v-216h-86v500h86v-207h268v207h86v-422h80v-205z" />
    <glyph glyph-name="uni04AE" unicode="&#x4ae;" horiz-adv-x="632" 
d="M270 301l-260 409h106l200 -320l200 320h106l-260 -409v-301h-92v301z" />
    <glyph glyph-name="uni04AF" unicode="&#x4af;" horiz-adv-x="535" 
d="M3 500h97l167 -411l168 411h97l-222 -500v-184h-86v184z" />
    <glyph glyph-name="uni04B0" unicode="&#x4b0;" horiz-adv-x="632" 
d="M362 207v-207h-92v207h-153v77h153v17l-260 409h106l200 -320l200 320h106l-260 -409v-17h153v-77h-153z" />
    <glyph glyph-name="uni04B1" unicode="&#x4b1;" horiz-adv-x="535" 
d="M413 -78h-103v-106h-86v106h-103v78h103l-221 500h97l167 -411l168 411h97l-222 -500h103v-78z" />
    <glyph glyph-name="uni04B2" unicode="&#x4b2;" horiz-adv-x="695" 
d="M675 -148h-85v148h-45l-210 295l-208 -295h-106l256 362l-243 348h105l195 -279l195 279h105l-241 -348l193 -274h89v-236z" />
    <glyph glyph-name="uni04B3" unicode="&#x4b3;" horiz-adv-x="560" 
d="M540 -127h-75v127h-48l-147 194l-147 -194h-100l195 254l-185 246h99l139 -184l139 184h98l-185 -245l135 -177h82v-205z" />
    <glyph glyph-name="uni04B6" unicode="&#x4b6;" horiz-adv-x="735" 
d="M615 -148v148h-95l1 1v309q-46 -18 -101 -29t-115 -11q-111 0 -175.5 52.5t-64.5 162.5v225h91v-205q0 -45 12.5 -74t34 -45.5t51.5 -22.5t65 -6q49 0 100 9t102 31v313h91v-622h88v-236h-85z" />
    <glyph glyph-name="uni04B7" unicode="&#x4b7;" horiz-adv-x="585" 
d="M470 -127v127h-91v200q-37 -14 -70 -21.5t-71 -7.5q-87 0 -140 49t-53 141v139h86v-122q0 -35 9 -59t25.5 -39t38.5 -21.5t48 -6.5t60.5 7t66.5 24v217h86v-422h80v-205h-75z" />
    <glyph glyph-name="uni04BA" unicode="&#x4ba;" horiz-adv-x="701" 
d="M89.0371 710h90.9951v-309.981q45.9971 17.999 100.993 28.999q54.9971 10.999 114.993 10.999q110.993 0 175.489 -52.4971t64.4961 -162.49v-224.986h-90.9941v204.988q0 44.9971 -12.499 73.9951q-12.5 28.998 -33.998 45.4971q-21.499 16.499 -51.4971 22.499
q-29.998 5.99902 -64.9961 5.99902q-48.9971 0 -99.9941 -8.99902q-50.9971 -9 -101.993 -30.998v-312.981h-90.9951v709.957z" />
    <glyph glyph-name="uni04BB" unicode="&#x4bb;" horiz-adv-x="589" 
d="M85 710h86v-267q29 36 70 50.5t85 14.5q42 0 77.5 -14.5t61 -40.5t40 -64t14.5 -84v-305h-86v300q0 55 -33.5 91t-92.5 36q-53 0 -87.5 -27.5t-48.5 -76.5v-323h-86v710z" />
    <glyph glyph-name="uni04C0" unicode="&#x4c0;" horiz-adv-x="275" 
d="M92 710h91v-710h-91v710z" />
    <glyph glyph-name="uni04CF" unicode="&#x4cf;" horiz-adv-x="264" 
d="M86 710h91v-710h-91v710z" />
    <glyph glyph-name="uni04D8" unicode="&#x4d8;" horiz-adv-x="781" 
d="M143 635q93 84 241 84q72 0 136 -28t112 -76.5t76 -115t28 -143.5t-26.5 -143.5t-74 -115.5t-112 -76.5t-140.5 -27.5q-83 0 -148.5 29.5t-111 83t-69.5 128.5t-24 165h607q-9 54 -32 97t-56 73t-75 46.5t-90 16.5q-62 0 -107.5 -18.5t-80.5 -47.5zM125 319
q5 -52 24.5 -95.5t52.5 -75.5t78.5 -50t102.5 -18q54 0 98.5 18t77.5 50t53.5 75.5t26.5 95.5h-514z" />
    <glyph glyph-name="uni04D9" unicode="&#x4d9;" horiz-adv-x="584" 
d="M281 508q55 0 102.5 -20t81.5 -55t53.5 -82t19.5 -101t-19.5 -101.5t-53.5 -82t-80 -54.5t-98 -20q-53 0 -97 18.5t-76.5 54t-51 87.5t-19.5 119h406q-3 33 -17 61.5t-36 49.5t-51.5 33t-63.5 12q-48 0 -85 -18t-61 -42l-55 60q32 34 83.5 57.5t117.5 23.5zM292 71
q55 0 97 34t56 91h-305q9 -62 52 -94t100 -31z" />
    <glyph glyph-name="uni04E2" unicode="&#x4e2;" horiz-adv-x="777" 
d="M90 -8v718h91v-505l506 513v-718h-91v505zM249 868h292v-65h-292v65z" />
    <glyph glyph-name="uni04E3" unicode="&#x4e3;" horiz-adv-x="617" 
d="M447 0v329l-362 -337v508h85v-334l362 342v-508h-85zM179 679h292v-65h-292v65z" />
    <glyph glyph-name="uni04E8" unicode="&#x4e8;" horiz-adv-x="816" 
d="M408 718q76 0 142.5 -28t115.5 -76.5t77 -115t28 -143.5t-28 -143.5t-77 -115.5t-115.5 -76.5t-142.5 -27.5t-142.5 27.5t-115.5 76.5t-77 115.5t-28 143.5t28 143.5t77 115t115.5 76.5t142.5 28zM674 407q-9 49 -32 90t-58 71t-80 46.5t-96 16.5t-96 -16.5t-80 -46.5
t-58 -71t-32 -90h532zM140 319q6 -52 28.5 -96t58 -76t81.5 -50t100 -18t100 18t81.5 50t58 76t28.5 96h-536z" />
    <glyph glyph-name="uni04E9" unicode="&#x4e9;" horiz-adv-x="611" 
d="M306 508q56 0 103.5 -20t82 -55t54 -82t19.5 -101t-19.5 -101t-54 -82t-82 -55t-103.5 -20q-57 0 -104.5 20t-82 55t-54 82t-19.5 101t19.5 101t54 82t82 55t104.5 20zM472 289q-6 30 -20 55.5t-35.5 43.5t-49.5 28.5t-61 10.5t-61 -10.5t-50 -28.5t-36 -43.5t-20 -55.5
h333zM137 224q4 -32 18 -60t36 -48t51 -31.5t64 -11.5t64 11.5t51 31.5t35.5 48t17.5 60h-337z" />
    <glyph glyph-name="uni04EE" unicode="&#x4ee;" horiz-adv-x="637" 
d="M272 0h-98l85 162l-269 548h100l219 -454l240 454h98zM166 868h292v-65h-292v65z" />
    <glyph glyph-name="uni04EF" unicode="&#x4ef;" horiz-adv-x="511" 
d="M210 42l-204 458h93l156 -364l157 364h93l-307 -684h-91zM111 679h292v-65h-292v65z" />
    <glyph glyph-name="Wgrave" unicode="&#x1e80;" horiz-adv-x="903" 
d="M15 710h94l157 -474l185 482l186 -482l157 474h94l-244 -718l-193 501l-192 -501zM301 913h109l77 -145h-73z" />
    <glyph glyph-name="wgrave" unicode="&#x1e81;" horiz-adv-x="720" 
d="M21 500h89l112 -364l138 372l138 -372l112 364h89l-158 -500h-69l-112 303l-111 -303h-70zM202 710h109l87 -165h-71z" />
    <glyph glyph-name="Wacute" unicode="&#x1e82;" horiz-adv-x="903" 
d="M15 710h94l157 -474l185 482l186 -482l157 474h94l-244 -718l-193 501l-192 -501zM492 913h108l-112 -145h-73z" />
    <glyph glyph-name="wacute" unicode="&#x1e83;" horiz-adv-x="720" 
d="M404 710h109l-124 -165h-72zM21 500h89l112 -364l138 372l138 -372l112 364h89l-158 -500h-69l-112 303l-111 -303h-70z" />
    <glyph glyph-name="Wdieresis" unicode="&#x1e84;" horiz-adv-x="903" 
d="M15 710h94l157 -474l185 482l186 -482l157 474h94l-244 -718l-193 501l-192 -501zM338 782q-24 0 -42.5 18t-18.5 44q0 25 18.5 42.5t42.5 17.5q26 0 44 -17.5t18 -42.5q0 -26 -18 -44t-44 -18zM563 782q-25 0 -43 18t-18 44q0 25 18 42.5t43 17.5q26 0 44 -17.5
t18 -42.5q0 -26 -18 -44t-44 -18z" />
    <glyph glyph-name="wdieresis" unicode="&#x1e85;" horiz-adv-x="720" 
d="M249 571q-24 0 -42 17t-18 43q0 25 18 42t42 17q26 0 43.5 -17t17.5 -42q0 -26 -17.5 -43t-43.5 -17zM474 571q-25 0 -42.5 17t-17.5 43q0 25 17.5 42t42.5 17q26 0 43 -17t17 -42q0 -26 -17 -43t-43 -17zM21 500h89l112 -364l138 372l138 -372l112 364h89l-158 -500h-69
l-112 303l-111 -303h-70z" />
    <glyph glyph-name="uni1ECA" unicode="&#x1eca;" horiz-adv-x="263" 
d="M86 710h91v-710h-91v710zM131 -192q-26 0 -44 18t-18 44t18 43.5t44 17.5t44 -17.5t18 -43.5t-18 -44t-44 -18z" />
    <glyph glyph-name="uni1ECB" unicode="&#x1ecb;" 
d="M77 609q-19 17 -19 46q0 26 18 44.5t44 18.5t44 -18.5t18 -44.5q0 -29 -19 -46h-86zM77 500h86v-500h-86v500zM118 -192q-26 0 -44 18t-18 44t18 43.5t44 17.5t44 -17.5t18 -43.5t-18 -44t-44 -18z" />
    <glyph glyph-name="uni1ECC" unicode="&#x1ecc;" horiz-adv-x="802" 
d="M401 79q58 0 107.5 21t85.5 58.5t56.5 87.5t20.5 109q0 58 -20.5 108.5t-56.5 88t-85.5 58.5t-107.5 21t-107.5 -21t-85.5 -58.5t-56.5 -88t-20.5 -108.5q0 -59 20.5 -109t56.5 -87.5t85.5 -58.5t107.5 -21zM401 -8q-76 0 -142.5 27.5t-115.5 76.5t-77 115.5t-28 143.5
t28 143.5t77 115t115.5 76.5t142.5 28t142.5 -28t115.5 -76.5t77 -115t28 -143.5t-28 -143.5t-77 -115.5t-115.5 -76.5t-142.5 -27.5zM401 -192q-26 0 -44 18t-18 44t18 43.5t44 17.5t44 -17.5t18 -43.5t-18 -44t-44 -18z" />
    <glyph glyph-name="uni1ECD" unicode="&#x1ecd;" horiz-adv-x="605" 
d="M303 73q38 0 69.5 13.5t54 37.5t34.5 56.5t12 69.5t-12 69.5t-34.5 56.5t-54 37.5t-69.5 13.5t-69.5 -13.5t-54 -37.5t-35 -56.5t-12.5 -69.5t12.5 -69.5t35 -56.5t54 -37.5t69.5 -13.5zM303 -8q-57 0 -104.5 20t-82 55t-54 82t-19.5 101t19.5 101t54 82t82 55t104.5 20
q56 0 103.5 -20t82 -55t54 -82t19.5 -101t-19.5 -101t-54 -82t-82 -55t-103.5 -20zM302 -192q-26 0 -44 18t-18 44t18 43.5t44 17.5t44 -17.5t18 -43.5t-18 -44t-44 -18z" />
    <glyph glyph-name="uni1EE4" unicode="&#x1ee4;" horiz-adv-x="721" 
d="M360 -8q-62 0 -114 19t-89.5 55t-58.5 87.5t-21 116.5v440h91v-444q0 -46 14 -81t39.5 -58.5t60.5 -35.5t78 -12t78 12t60.5 35.5t39.5 58.5t14 81v444h91v-440q0 -65 -21 -116.5t-58.5 -87.5t-89.5 -55t-114 -19zM360 -192q-26 0 -44 18t-18 44t18 43.5t44 17.5
t44 -17.5t18 -43.5t-18 -44t-44 -18z" />
    <glyph glyph-name="uni1EE5" unicode="&#x1ee5;" horiz-adv-x="568" 
d="M405 56q-29 -36 -69.5 -50t-84.5 -14q-43 0 -78.5 14.5t-61 40.5t-39.5 63.5t-14 84.5v305h86v-300q0 -55 33.5 -91t91.5 -36q52 0 86.5 26t49.5 74v327h86v-500h-86v56zM274 -192q-26 0 -44 18t-18 44t18 43.5t44 17.5t44 -17.5t18 -43.5t-18 -44t-44 -18z" />
    <glyph glyph-name="Ygrave" unicode="&#x1ef2;" horiz-adv-x="632" 
d="M270 301l-260 409h106l200 -320l200 320h106l-260 -409v-301h-92v301zM177 913h109l77 -145h-73z" />
    <glyph glyph-name="ygrave" unicode="&#x1ef3;" horiz-adv-x="510" 
d="M210 42l-204 458h93l156 -364l157 364h93l-307 -684h-91zM125 710h109l87 -165h-71z" />
    <glyph glyph-name="endash" unicode="&#x2013;" horiz-adv-x="526" 
d="M46 314h434v-81h-434v81z" />
    <glyph glyph-name="emdash" unicode="&#x2014;" horiz-adv-x="823" 
d="M46 314h731v-81h-731v81z" />
    <glyph glyph-name="quoteleft" unicode="&#x2018;" horiz-adv-x="256" 
d="M138 568h51v-123h-122v124l57 141h57z" />
    <glyph glyph-name="quoteright" unicode="&#x2019;" horiz-adv-x="256" 
d="M118 587h-51v123h122v-124l-57 -141h-57z" />
    <glyph glyph-name="quotesinglbase" unicode="&#x201a;" horiz-adv-x="256" 
d="M118 0h-51v123h122v-124l-57 -141h-57z" />
    <glyph glyph-name="quotedblleft" unicode="&#x201c;" horiz-adv-x="451" 
d="M138 568h51v-123h-122v124l57 141h57zM333 568h51v-123h-122v124l57 141h57z" />
    <glyph glyph-name="quotedblright" unicode="&#x201d;" horiz-adv-x="451" 
d="M118 587h-51v123h122v-124l-57 -141h-57zM313 587h-51v123h122v-124l-57 -141h-57z" />
    <glyph glyph-name="quotedblbase" unicode="&#x201e;" horiz-adv-x="451" 
d="M118 0h-51v123h122v-124l-57 -141h-57zM313 0h-51v123h122v-124l-57 -141h-57z" />
    <glyph glyph-name="dagger" unicode="&#x2020;" horiz-adv-x="567" 
d="M243 419h-184v81h184v210h81v-210h184v-81h-184v-517h-81v517z" />
    <glyph glyph-name="daggerdbl" unicode="&#x2021;" horiz-adv-x="567" 
d="M243 112h-184v81h184v226h-184v81h184v210h81v-210h184v-81h-184v-226h184v-81h-184v-210h-81v210z" />
    <glyph glyph-name="bullet" unicode="&#x2022;" horiz-adv-x="402" 
d="M201 166q-28 0 -53 10.5t-43.5 29t-29 43.5t-10.5 53t10.5 53t29 43.5t43.5 29t53 10.5t53 -10.5t43.5 -29t29 -43.5t10.5 -53t-10.5 -53t-29 -43.5t-43.5 -29t-53 -10.5z" />
    <glyph glyph-name="ellipsis" unicode="&#x2026;" horiz-adv-x="654" 
d="M110 -8q-30 0 -52 21.5t-22 52.5t22 52.5t52 21.5q31 0 52.5 -21.5t21.5 -52.5t-21.5 -52.5t-52.5 -21.5zM326 -8q-30 0 -52 21.5t-22 52.5t22 52.5t52 21.5q31 0 52.5 -21.5t21.5 -52.5t-21.5 -52.5t-52.5 -21.5zM544 -8q-30 0 -52 21.5t-22 52.5t22 52.5t52 21.5
q31 0 52.5 -21.5t21.5 -52.5t-21.5 -52.5t-52.5 -21.5z" />
    <glyph glyph-name="perthousand" unicode="&#x2030;" horiz-adv-x="1413" 
d="M1185 -8q-41 0 -77 15.5t-62.5 42.5t-42 62.5t-15.5 76.5t15.5 77t42 62.5t62.5 42t77 15.5q40 0 76 -15.5t63 -42t42.5 -62.5t15.5 -77t-15.5 -76.5t-42.5 -62.5t-63 -42.5t-76 -15.5zM1185 70q24 0 45.5 9.5t37.5 26t25.5 38t9.5 45.5t-9.5 45.5t-25.5 38t-37.5 26
t-45.5 9.5q-25 0 -46.5 -9.5t-37.5 -26t-25.5 -38t-9.5 -45.5t9.5 -45.5t25.5 -38t37.5 -26t46.5 -9.5zM224 0l450 710h93l-450 -710h-93zM762 -8q-41 0 -77 15.5t-62.5 42.5t-42 62.5t-15.5 76.5t15.5 77t42 62.5t62.5 42t77 15.5q40 0 76 -15.5t63 -42t42.5 -62.5
t15.5 -77t-15.5 -76.5t-42.5 -62.5t-63 -42.5t-76 -15.5zM762 70q24 0 45.5 9.5t37.5 26t25.5 38t9.5 45.5t-9.5 45.5t-25.5 38t-37.5 26t-45.5 9.5q-25 0 -46.5 -9.5t-37.5 -26t-25 -38t-9 -45.5t9 -45.5t25 -38t37.5 -26t46.5 -9.5zM229 324q-41 0 -77 15.5t-62.5 42.5
t-42 62.5t-15.5 76.5t15.5 77t42 62.5t62.5 42t77 15.5q40 0 76 -15.5t63 -42t42.5 -62.5t15.5 -77t-15.5 -76.5t-42.5 -62.5t-63 -42.5t-76 -15.5zM229 402q24 0 45.5 9.5t37.5 26t25.5 38t9.5 45.5t-9.5 45.5t-25.5 38t-37.5 26t-45.5 9.5q-25 0 -46.5 -9.5t-37.5 -26
t-25 -38t-9 -45.5t9 -45.5t25 -38t37.5 -26t46.5 -9.5z" />
    <glyph glyph-name="guilsinglleft" unicode="&#x2039;" horiz-adv-x="289" 
d="M29 250l152 221l62 -42l-123 -179l123 -179l-62 -42z" />
    <glyph glyph-name="guilsinglright" unicode="&#x203a;" horiz-adv-x="289" 
d="M108 29l-62 42l123 179l-123 179l62 42l152 -221z" />
    <glyph glyph-name="fraction" unicode="&#x2044;" horiz-adv-x="180" 
d="M-200 0l500 710h80l-500 -710h-80z" />
    <glyph glyph-name="zero.superior" unicode="&#x2070;" horiz-adv-x="383" 
d="M192 405q-36 0 -65 12.5t-49.5 34.5t-31.5 52.5t-11 66.5v103q0 37 11 67.5t31.5 52.5t49.5 34.5t65 12.5q35 0 64 -12.5t49.5 -34.5t31.5 -52.5t11 -67.5v-103q0 -36 -11 -66.5t-31.5 -52.5t-49.5 -34.5t-64 -12.5zM192 469q38 0 62.5 26t24.5 72v112q0 47 -24.5 72.5
t-62.5 25.5q-39 0 -63.5 -25.5t-24.5 -72.5v-112q0 -46 24.5 -72t63.5 -26z" />
    <glyph glyph-name="four.superior" unicode="&#x2074;" horiz-adv-x="353" 
d="M223 518h-229l297 328v-267h49v-61h-49v-108h-68v108zM223 579v109l-99 -109h99z" />
    <glyph glyph-name="five.superior" unicode="&#x2075;" horiz-adv-x="326" 
d="M155 405q-38 0 -73 16t-55 45l52 44q10 -17 29 -29t45 -12q35 0 55.5 22t20.5 54t-20.5 55t-56.5 23q-23 0 -38.5 -10t-24.5 -24l-44 20v227h222v-65h-153v-91q10 3 19.5 5t21.5 2q67 0 106 -39.5t39 -102.5q0 -62 -39.5 -101t-105.5 -39z" />
    <glyph glyph-name="six.superior" unicode="&#x2076;" horiz-adv-x="317" 
d="M159 469q34 0 54 22.5t20 53.5q0 30 -20 52.5t-54 22.5t-54 -22.5t-20 -52.5q0 -31 20 -53.5t54 -22.5zM159 405q-31 0 -57 11t-45.5 29.5t-30.5 44t-11 55.5q0 22 7.5 41.5t18.5 37.5l121 212h77l-90 -154q8 2 17 2q28 0 53 -11t44 -30t29.5 -44.5t10.5 -53.5
q0 -30 -11 -55.5t-30.5 -44t-45.5 -29.5t-57 -11z" />
    <glyph glyph-name="seven.superior" unicode="&#x2077;" horiz-adv-x="307" 
d="M201 771h-182v65h286l-199 -426h-75z" />
    <glyph glyph-name="eight.superior" unicode="&#x2078;" horiz-adv-x="345" 
d="M172 405q-31 0 -57.5 10.5t-46 29t-30.5 43.5t-11 54q0 37 17 65.5t46 45.5q-31 29 -31 75q0 24 8.5 44.5t24 35.5t36 24t44.5 9t45 -9t36.5 -24t24 -35.5t8.5 -44.5q0 -23 -8.5 -42t-22.5 -33q29 -17 46 -45.5t17 -65.5q0 -29 -11 -54t-30.5 -43.5t-46.5 -29t-58 -10.5z
M172 469q35 0 55.5 21.5t20.5 51.5q0 31 -20.5 52.5t-55.5 21.5q-34 0 -54.5 -21.5t-20.5 -52.5q0 -30 20.5 -51.5t54.5 -21.5zM172 680q22 0 35 14t13 34q0 21 -13 35t-35 14q-21 0 -34 -14t-13 -35q0 -20 13 -34t34 -14z" />
    <glyph glyph-name="nine.superior" unicode="&#x2079;" horiz-adv-x="316" 
d="M159 627q33 0 53.5 22.5t20.5 52.5q0 31 -20.5 53t-53.5 22q-35 0 -55 -22t-20 -53q0 -30 20 -52.5t55 -22.5zM169 565q-8 -2 -17 -2q-29 0 -53.5 11t-43.5 30t-29.5 44.5t-10.5 53.5q0 29 11 54.5t30 44t45.5 29.5t57.5 11t57 -11t45 -29.5t30 -44t11 -54.5
q0 -22 -7.5 -42t-18.5 -38l-121 -212h-77z" />
    <glyph glyph-name="plus.superior" unicode="&#x207a;" horiz-adv-x="319" 
d="M29 644h103v101h55v-101h103v-55h-103v-103h-55v103h-103v55z" />
    <glyph glyph-name="minus.superior" unicode="&#x207b;" horiz-adv-x="319" 
d="M29 644h261v-55h-261v55z" />
    <glyph glyph-name="equal.superior" unicode="&#x207c;" horiz-adv-x="322" 
d="M29 581h264v-55h-264v55zM29 707h264v-54h-264v54z" />
    <glyph glyph-name="parenleft.superior" unicode="&#x207d;" horiz-adv-x="156" 
d="M98 304q-33 65 -49.5 131t-16.5 146t16.5 146t49.5 131l52 -23q-28 -63 -43 -125.5t-15 -128.5t15 -128.5t43 -125.5l-52 -23v0z" />
    <glyph glyph-name="parenright.superior" unicode="&#x207e;" horiz-adv-x="156" 
d="M61 304l-53 23q29 63 43.5 125.5t14.5 128.5t-14.5 128.5t-43.5 125.5l53 23q33 -65 49 -131t16 -146t-16 -146t-49 -131z" />
    <glyph glyph-name="n.superior" unicode="&#x207f;" horiz-adv-x="350" 
d="M41 710h69v-26q16 16 37.5 23.5t44.5 7.5q57 0 90 -36t33 -95v-174h-69v173q0 11 -4.5 23t-12.5 21.5t-21 15.5t-29 6q-24 0 -42 -12.5t-27 -38.5v-188h-69v300z" />
    <glyph glyph-name="zero.inferior" unicode="&#x2080;" horiz-adv-x="383" 
d="M192 -119q-36 0 -65 12.5t-49.5 34.5t-31.5 52.5t-11 66.5v103q0 37 11 67.5t31.5 52.5t49.5 34.5t65 12.5q35 0 64 -12.5t49.5 -34.5t31.5 -52.5t11 -67.5v-103q0 -36 -11 -66.5t-31.5 -52.5t-49.5 -34.5t-64 -12.5zM192 -55q38 0 62.5 26t24.5 72v112q0 47 -24.5 72.5
t-62.5 25.5q-39 0 -63.5 -25.5t-24.5 -72.5v-112q0 -46 24.5 -72t63.5 -26z" />
    <glyph glyph-name="one.inferior" unicode="&#x2081;" horiz-adv-x="176" 
d="M54 250l69 72v-436h-69v364z" />
    <glyph glyph-name="two.inferior" unicode="&#x2082;" horiz-adv-x="344" 
d="M27 -54l165 154q19 17 33.5 39.5t14.5 46.5q0 29 -18.5 48t-49.5 19q-29 0 -50.5 -21.5t-26.5 -50.5l-66 16q12 55 51.5 87.5t93.5 32.5q29 0 53.5 -10t42.5 -27t28.5 -41t10.5 -52q0 -44 -22.5 -76t-54.5 -63l-103 -97h182v-65h-284v60z" />
    <glyph glyph-name="three.inferior" unicode="&#x2083;" horiz-adv-x="310" 
d="M139 -119q-38 0 -71.5 16t-53.5 45l50 42q11 -17 29.5 -28t43.5 -11q35 0 57.5 21t22.5 58q0 35 -22.5 57.5t-60.5 22.5h-40l77 143h-139v65h242l-82 -155q45 -14 70 -48.5t25 -84.5q0 -65 -40.5 -104t-107.5 -39z" />
    <glyph glyph-name="four.inferior" unicode="&#x2084;" horiz-adv-x="353" 
d="M223 -6h-229l297 328v-267h49v-61h-49v-108h-68v108zM223 55v109l-99 -109h99z" />
    <glyph glyph-name="five.inferior" unicode="&#x2085;" horiz-adv-x="326" 
d="M155 -119q-38 0 -73 16t-55 45l52 44q10 -17 29 -29t45 -12q35 0 55.5 22t20.5 54t-20.5 55t-56.5 23q-23 0 -38.5 -10t-24.5 -24l-44 20v227h222v-65h-153v-91q10 3 19.5 5t21.5 2q67 0 106 -39.5t39 -102.5q0 -62 -39.5 -101t-105.5 -39z" />
    <glyph glyph-name="six.inferior" unicode="&#x2086;" horiz-adv-x="317" 
d="M159 -55q34 0 54 22.5t20 53.5q0 30 -20 52.5t-54 22.5t-54 -22.5t-20 -52.5q0 -31 20 -53.5t54 -22.5zM159 -119q-31 0 -57 11t-45.5 29.5t-30.5 44t-11 55.5q0 22 7.5 41.5t18.5 37.5l121 212h77l-90 -154q8 2 17 2q28 0 53 -11t44 -30t29.5 -44.5t10.5 -53.5
q0 -30 -11 -55.5t-30.5 -44t-45.5 -29.5t-57 -11z" />
    <glyph glyph-name="seven.inferior" unicode="&#x2087;" horiz-adv-x="307" 
d="M201 247h-182v65h286l-199 -426h-75z" />
    <glyph glyph-name="eight.inferior" unicode="&#x2088;" horiz-adv-x="345" 
d="M172 -119q-31 0 -57.5 10.5t-46 29t-30.5 43.5t-11 54q0 37 17 65.5t46 45.5q-31 29 -31 75q0 24 8.5 44.5t24 35.5t36 24t44.5 9t45 -9t36.5 -24t24 -35.5t8.5 -44.5q0 -23 -8.5 -42t-22.5 -33q29 -17 46 -45.5t17 -65.5q0 -29 -11 -54t-30.5 -43.5t-46.5 -29t-58 -10.5
zM172 -55q35 0 55.5 21.5t20.5 51.5q0 31 -20.5 52.5t-55.5 21.5q-34 0 -54.5 -21.5t-20.5 -52.5q0 -30 20.5 -51.5t54.5 -21.5zM172 156q22 0 35 14t13 34q0 21 -13 35t-35 14q-21 0 -34 -14t-13 -35q0 -20 13 -34t34 -14z" />
    <glyph glyph-name="nine.inferior" unicode="&#x2089;" horiz-adv-x="316" 
d="M159 103q33 0 53.5 22.5t20.5 52.5q0 31 -20.5 53t-53.5 22q-35 0 -55 -22t-20 -53q0 -30 20 -52.5t55 -22.5zM169 41q-8 -2 -17 -2q-29 0 -53.5 11t-43.5 30t-29.5 44.5t-10.5 53.5q0 29 11 54.5t30 44t45.5 29.5t57.5 11t57 -11t45 -29.5t30 -44t11 -54.5
q0 -22 -7.5 -42t-18.5 -38l-121 -212h-77z" />
    <glyph glyph-name="parenleft.inferior" unicode="&#x208d;" horiz-adv-x="156" 
d="M98 -220q-33 65 -49.5 131t-16.5 146t16.5 146t49.5 131l52 -23q-28 -63 -43 -125.5t-15 -128.5t15 -128.5t43 -125.5l-52 -23v0z" />
    <glyph glyph-name="parenright.inferior" unicode="&#x208e;" horiz-adv-x="156" 
d="M61 -220l-53 23q29 63 43.5 125.5t14.5 128.5t-14.5 128.5t-43.5 125.5l53 23q33 -65 49 -131t16 -146t-16 -146t-49 -131z" />
    <glyph glyph-name="Euro" unicode="&#x20ac;" horiz-adv-x="713" 
d="M37 458h99q16 57 48 104.5t77 82t101 54t119 19.5q66 0 115 -16t93 -45l-33 -76q-33 25 -75.5 41.5t-99.5 16.5q-45 0 -85.5 -13t-73.5 -36.5t-58 -57t-39 -74.5h373l-28 -61h-360q-1 -11 -1.5 -21t-0.5 -21t0.5 -21t1.5 -20h316l-28 -60h-274q14 -42 39 -75.5t58 -57.5
t74 -37t86 -13q39 0 73 9.5t63 26.5v-89q-63 -26 -136 -26q-63 0 -119 19.5t-101 54t-77.5 83t-47.5 105.5h-127l28 60h88q-2 10 -2 20v21v21t2 21h-116z" />
    <glyph glyph-name="uni20B4" unicode="&#x20b4;" horiz-adv-x="621" 
d="M318 -8q-105 0 -165 51t-60 139q0 24 6 48q2 8 5 15h-49v73h501v-73h-352q-4 -6 -7 -13q-12 -22 -12 -53q0 -47 36 -73.5t98 -26.5q52 0 93.5 25t67.5 58l69 -60q-32 -45 -92.5 -77.5t-138.5 -32.5zM55 465h338l6 6q24 28 24 67q0 45 -33 69t-84 24q-47 0 -81.5 -17.5
t-62.5 -50.5l-64 64q38 45 91 68t116 23q43 0 81 -12.5t66.5 -36t45 -56.5t16.5 -73q0 -41 -24 -75h66v-73h-501v73z" />
    <glyph glyph-name="uni20B8" unicode="&#x20b8;" horiz-adv-x="534" 
d="M221 491h-201v72h494v-72h-202v-491h-91v491zM20 710h494v-73h-494v73z" />
    <glyph glyph-name="uni20BD" unicode="&#x20bd;" horiz-adv-x="568" 
d="M294 360q77 0 116.5 35t39.5 98t-39.5 98t-116.5 35h-107v-266h107zM187 118v-118h-91v118h-76v84h76v74h-76v84h76v350h201q56 0 101.5 -15t77.5 -43t49.5 -68.5t17.5 -90.5t-17.5 -90t-49.5 -68t-77.5 -43.5t-101.5 -15.5h-110v-74h198v-84h-198z" />
    <glyph glyph-name="afii61289" unicode="&#x2113;" horiz-adv-x="472" 
d="M243 -8q-58 0 -88.5 34.5t-30.5 116.5v30l-59 -55l-45 60l104 94v219q0 120 37.5 173.5t109.5 53.5q35 0 60 -15t41.5 -38.5t24.5 -52.5t8 -58q0 -41 -12 -76.5t-35 -69t-56 -67t-75 -70.5l-17 -16v-88q0 -48 11 -72t44 -24q7 0 19.5 4t26.5 10.5t27.5 15.5t23.5 19
l36 -55q-26 -28 -67.5 -50.5t-87.5 -22.5zM210 350l8 8q52 47 80.5 92t28.5 101q0 18 -3 34.5t-9.5 30t-17 21.5t-25.5 8q-30 0 -46 -26.5t-16 -86.5v-182z" />
    <glyph glyph-name="afii61352" unicode="&#x2116;" horiz-adv-x="1153" 
d="M781 265v76h291v-76h-291zM927 471q37 0 60.5 25.5t23.5 63.5t-23.5 63.5t-60.5 25.5q-38 0 -61.5 -25.5t-23.5 -63.5t23.5 -63.5t61.5 -25.5zM927 405q-33 0 -61.5 12t-49.5 32.5t-33 49t-12 61.5t12 61.5t33 49t49.5 32.5t61.5 12t61.5 -12t49 -32.5t32.5 -49t12 -61.5
t-12 -61.5t-32.5 -49t-49 -32.5t-61.5 -12zM177 505v-505h-91v718l506 -513v505h91v-718z" />
    <glyph glyph-name="uni2117" unicode="&#x2117;" horiz-adv-x="802" 
d="M401 -9q-75 0 -141 28.5t-115.5 78t-78 115.5t-28.5 141t28.5 141t78 115.5t115.5 78.5t141 29t141 -29t115.5 -78.5t78 -115.5t28.5 -141t-28.5 -141t-78 -115.5t-115.5 -78t-141 -28.5zM400 61q61 0 114.5 23t93.5 63t63 93.5t23 113.5q0 61 -23 114.5t-63 93.5
t-93.5 63t-114.5 23q-60 0 -113.5 -23t-93.5 -63t-63 -93.5t-23 -114.5q0 -60 23 -113.5t63 -93.5t93.5 -63t113.5 -23zM300 548h137q24 0 45.5 -9.5t38 -25.5t26.5 -37.5t10 -45.5q0 -26 -10.5 -48.5t-28 -39t-41 -26t-48.5 -9.5h-61v-143h-68v384zM425 370q27 0 43 17
t16 39q0 23 -16 39.5t-43 16.5h-56v-112h56z" />
    <glyph glyph-name="trademark" unicode="&#x2122;" horiz-adv-x="814" 
d="M369 726l183 -180l183 180v-371h-65v228l-118 -116l-119 116v-228h-64v371zM145 650h-96v60h260v-60h-98v-295h-66v295z" />
    <glyph glyph-name="estimated" unicode="&#x212e;" horiz-adv-x="580" 
d="M297 -8q-58 0 -105 20t-80 55.5t-51 83t-18 101.5q0 57 19.5 104t53 81t79 52.5t98.5 18.5q58 0 103.5 -20t76.5 -54.5t47.5 -80.5t16.5 -98h-382v-194q21 -22 62 -36.5t88 -14.5q65 0 118.5 34.5t76.5 98.5h24q-11 -32 -31 -59.5t-48.5 -48t-65.5 -32t-82 -11.5z
M155 273h270v167q-23 23 -55.5 36.5t-77.5 13.5q-43 0 -78.5 -15t-58.5 -35v-167z" />
    <glyph glyph-name="onethird" unicode="&#x2153;" horiz-adv-x="743" 
d="M68 650l69 70v-436h-69v366zM31 0l500 710h80l-500 -710h-80zM571 -5q-38 0 -71.5 16t-53.5 45l50 42q11 -17 29.5 -28t43.5 -11q35 0 57.5 21t22.5 58q0 35 -22.5 57.5t-60.5 22.5h-40l77 143h-139v65h242l-82 -155q45 -14 70 -48.5t25 -84.5q0 -65 -40.5 -104
t-107.5 -39z" />
    <glyph glyph-name="twothirds" unicode="&#x2154;" horiz-adv-x="891" 
d="M30 344l165 154q19 17 33.5 39.5t14.5 46.5q0 29 -18.5 48t-49.5 19q-29 0 -50.5 -21.5t-26.5 -50.5l-66 16q12 55 51.5 87.5t93.5 32.5q29 0 53.5 -10t42.5 -27t28.5 -41t10.5 -52q0 -44 -22.5 -76t-54.5 -63l-103 -97h182v-65h-284v60zM180 0l500 710h80l-500 -710h-80
zM720 -5q-38 0 -71.5 16t-53.5 45l50 42q11 -17 29.5 -28t43.5 -11q35 0 57.5 21t22.5 58q0 35 -22.5 57.5t-60.5 22.5h-40l77 143h-139v65h242l-82 -155q45 -14 70 -48.5t25 -84.5q0 -65 -40.5 -104t-107.5 -39z" />
    <glyph glyph-name="uni2155" unicode="&#x2155;" horiz-adv-x="755" 
d="M68 650l69 70v-436h-69v366zM31 0l500 710h80l-500 -710h-80zM584 -5q-38 0 -73.5 16t-54.5 45l51 44q11 -17 30 -29t44 -12q35 0 56 22t21 54t-20.5 55t-57.5 23q-23 0 -38.5 -10t-23.5 -24l-45 20v227h223v-65h-154v-91q9 3 19.5 5t22.5 2q33 0 59.5 -10.5t45.5 -29.5
t29 -45t10 -57q0 -62 -39 -101t-105 -39z" />
    <glyph glyph-name="uni2156" unicode="&#x2156;" horiz-adv-x="903" 
d="M30 344l165 154q19 17 33.5 39.5t14.5 46.5q0 29 -18.5 48t-49.5 19q-29 0 -50.5 -21.5t-26.5 -50.5l-66 16q12 55 51.5 87.5t93.5 32.5q29 0 53.5 -10t42.5 -27t28.5 -41t10.5 -52q0 -44 -22.5 -76t-54.5 -63l-103 -97h182v-65h-284v60zM180 0l500 710h80l-500 -710h-80
zM733 -5q-38 0 -73.5 16t-54.5 45l51 44q11 -17 30 -29t44 -12q35 0 56 22t21 54t-20.5 55t-57.5 23q-23 0 -38.5 -10t-23.5 -24l-45 20v227h223v-65h-154v-91q9 3 19.5 5t22.5 2q33 0 59.5 -10.5t45.5 -29.5t29 -45t10 -57q0 -62 -39 -101t-105 -39z" />
    <glyph glyph-name="uni2157" unicode="&#x2157;" horiz-adv-x="854" 
d="M160 279q-38 0 -71.5 16t-53.5 45l50 42q11 -17 29.5 -28t43.5 -11q35 0 57.5 21t22.5 58q0 35 -22.5 57.5t-60.5 22.5h-40l77 143h-139v65h242l-82 -155q45 -14 70 -48.5t25 -84.5q0 -65 -40.5 -104t-107.5 -39zM130 0l500 710h80l-500 -710h-80zM683 -5q-38 0 -73.5 16
t-54.5 45l51 44q11 -17 30 -29t44 -12q35 0 56 22t21 54t-20.5 55t-57.5 23q-23 0 -38.5 -10t-23.5 -24l-45 20v227h223v-65h-154v-91q9 3 19.5 5t22.5 2q33 0 59.5 -10.5t45.5 -29.5t29 -45t10 -57q0 -62 -39 -101t-105 -39z" />
    <glyph glyph-name="uni2158" unicode="&#x2158;" horiz-adv-x="847" 
d="M194 392h-229l297 328v-267h49v-61h-49v-108h-68v108zM194 453v104l-94 -104h94zM124 0l500 710h80l-500 -710h-80zM677 -5q-38 0 -73.5 16t-54.5 45l51 44q11 -17 30 -29t44 -12q35 0 56 22t21 54t-20.5 55t-57.5 23q-23 0 -38.5 -10t-23.5 -24l-45 20v227h223v-65h-154
v-91q9 3 19.5 5t22.5 2q33 0 59.5 -10.5t45.5 -29.5t29 -45t10 -57q0 -62 -39 -101t-105 -39z" />
    <glyph glyph-name="uni2159" unicode="&#x2159;" horiz-adv-x="746" 
d="M68 650l69 70v-436h-69v366zM31 0l500 710h80l-500 -710h-80zM578 -5q-31 0 -57 11t-45.5 29.5t-30.5 44t-11 55.5q0 22 7.5 41.5t18.5 37.5l121 212h77l-90 -154q8 2 17 2q28 0 53 -11t44 -30t29.5 -44.5t10.5 -53.5q0 -30 -11 -55.5t-30.5 -44t-45.5 -29.5t-57 -11z
M578 59q34 0 54 22.5t20 53.5q0 30 -20 52.5t-54 22.5t-54 -22.5t-20 -52.5q0 -31 20 -53.5t54 -22.5z" />
    <glyph glyph-name="uni215A" unicode="&#x215a;" horiz-adv-x="857" 
d="M173 279q-38 0 -73.5 16t-54.5 45l51 44q11 -17 30 -29t44 -12q35 0 56 22t21 54t-20.5 55t-57.5 23q-23 0 -38.5 -10t-23.5 -24l-45 20v227h223v-65h-154v-91q9 3 19.5 5t22.5 2q33 0 59.5 -10.5t45.5 -29.5t29 -45t10 -57q0 -62 -39 -101t-105 -39zM143 0l500 710h80
l-500 -710h-80zM690 -5q-31 0 -57 11t-45.5 29.5t-30.5 44t-11 55.5q0 22 7.5 41.5t18.5 37.5l121 212h77l-90 -154q8 2 17 2q28 0 53 -11t44 -30t29.5 -44.5t10.5 -53.5q0 -30 -11 -55.5t-30.5 -44t-45.5 -29.5t-57 -11zM690 59q34 0 54 22.5t20 53.5q0 30 -20 52.5
t-54 22.5t-54 -22.5t-20 -52.5q0 -31 20 -53.5t54 -22.5z" />
    <glyph glyph-name="oneeighth" unicode="&#x215b;" horiz-adv-x="779" 
d="M68 650l69 70v-436h-69v366zM31 0l500 710h80l-500 -710h-80zM594 -5q-31 0 -57.5 10.5t-46 29t-30.5 43.5t-11 54q0 37 17 66t46 46q-30 28 -30 74q0 24 8.5 44.5t23.5 35.5t35.5 24t44.5 9t45 -9t36.5 -24t24 -35.5t8.5 -44.5q0 -23 -8.5 -42t-22.5 -33
q29 -17 46 -45.5t17 -65.5q0 -29 -11 -54t-30.5 -43.5t-46.5 -29t-58 -10.5zM594 59q35 0 56 21.5t21 51.5q0 31 -21 52.5t-56 21.5q-34 0 -54.5 -21.5t-20.5 -52.5q0 -30 20.5 -51.5t54.5 -21.5zM594 270q22 0 35.5 14t13.5 34q0 21 -13.5 35t-35.5 14q-21 0 -34 -14
t-13 -35q0 -20 13 -34t34 -14z" />
    <glyph glyph-name="threeeighths" unicode="&#x215c;" horiz-adv-x="878" 
d="M160 279q-38 0 -71.5 16t-53.5 45l50 42q11 -17 29.5 -28t43.5 -11q35 0 57.5 21t22.5 58q0 35 -22.5 57.5t-60.5 22.5h-40l77 143h-139v65h242l-82 -155q45 -14 70 -48.5t25 -84.5q0 -65 -40.5 -104t-107.5 -39zM130 0l500 710h80l-500 -710h-80zM693 -5
q-31 0 -57.5 10.5t-46 29t-30.5 43.5t-11 54q0 37 17 66t46 46q-30 28 -30 74q0 24 8.5 44.5t23.5 35.5t35.5 24t44.5 9t45 -9t36.5 -24t24 -35.5t8.5 -44.5q0 -23 -8.5 -42t-22.5 -33q29 -17 46 -45.5t17 -65.5q0 -29 -11 -54t-30.5 -43.5t-46.5 -29t-58 -10.5zM693 59
q35 0 56 21.5t21 51.5q0 31 -21 52.5t-56 21.5q-34 0 -54.5 -21.5t-20.5 -52.5q0 -30 20.5 -51.5t54.5 -21.5zM693 270q22 0 35.5 14t13.5 34q0 21 -13.5 35t-35.5 14q-21 0 -34 -14t-13 -35q0 -20 13 -34t34 -14z" />
    <glyph glyph-name="fiveeighths" unicode="&#x215d;" horiz-adv-x="890" 
d="M173 279q-38 0 -73.5 16t-54.5 45l51 44q11 -17 30 -29t44 -12q35 0 56 22t21 54t-20.5 55t-57.5 23q-23 0 -38.5 -10t-23.5 -24l-45 20v227h223v-65h-154v-91q9 3 19.5 5t22.5 2q33 0 59.5 -10.5t45.5 -29.5t29 -45t10 -57q0 -62 -39 -101t-105 -39zM143 0l500 710h80
l-500 -710h-80zM706 -5q-31 0 -57.5 10.5t-46 29t-30.5 43.5t-11 54q0 37 17 66t46 46q-30 28 -30 74q0 24 8.5 44.5t23.5 35.5t35.5 24t44.5 9t45 -9t36.5 -24t24 -35.5t8.5 -44.5q0 -23 -8.5 -42t-22.5 -33q29 -17 46 -45.5t17 -65.5q0 -29 -11 -54t-30.5 -43.5t-46.5 -29
t-58 -10.5zM706 59q35 0 56 21.5t21 51.5q0 31 -21 52.5t-56 21.5q-34 0 -54.5 -21.5t-20.5 -52.5q0 -30 20.5 -51.5t54.5 -21.5zM706 270q22 0 35.5 14t13.5 34q0 21 -13.5 35t-35.5 14q-21 0 -34 -14t-13 -35q0 -20 13 -34t34 -14z" />
    <glyph glyph-name="seveneighths" unicode="&#x215e;" horiz-adv-x="813" 
d="M197 645h-182v65h286l-199 -426h-75zM65 0l500 710h80l-500 -710h-80zM628 -5q-31 0 -57.5 10.5t-46 29t-30.5 43.5t-11 54q0 37 17 66t46 46q-30 28 -30 74q0 24 8.5 44.5t23.5 35.5t35.5 24t44.5 9t45 -9t36.5 -24t24 -35.5t8.5 -44.5q0 -23 -8.5 -42t-22.5 -33
q29 -17 46 -45.5t17 -65.5q0 -29 -11 -54t-30.5 -43.5t-46.5 -29t-58 -10.5zM628 59q35 0 56 21.5t21 51.5q0 31 -21 52.5t-56 21.5q-34 0 -54.5 -21.5t-20.5 -52.5q0 -30 20.5 -51.5t54.5 -21.5zM628 270q22 0 35.5 14t13.5 34q0 21 -13.5 35t-35.5 14q-21 0 -34 -14
t-13 -35q0 -20 13 -34t34 -14z" />
    <glyph glyph-name="uni215F" unicode="&#x215f;" horiz-adv-x="412" 
d="M68 650l69 70v-436h-69v366zM31 0l500 710h80l-500 -710h-80z" />
    <glyph glyph-name="uni2190" unicode="&#x2190;" horiz-adv-x="800" 
d="M40 251l306 306l48 -50l-220 -220h586v-72h-586l220 -221l-48 -49z" />
    <glyph glyph-name="uni2191" unicode="&#x2191;" horiz-adv-x="800" 
d="M364 586l-221 -220l-49 48l306 306l306 -306l-50 -48l-220 220v-586h-72v586z" />
    <glyph glyph-name="uni2192" unicode="&#x2192;" horiz-adv-x="800" 
d="M406 -5l220 220h-586v72h586l-220 221l48 49l306 -306l-306 -306z" />
    <glyph glyph-name="uni2193" unicode="&#x2193;" horiz-adv-x="800" 
d="M400 -10l-306 306l49 48l221 -220v586h72v-586l220 220l50 -48z" />
    <glyph glyph-name="uni2196" unicode="&#x2196;" horiz-adv-x="800" 
d="M660 10l-444 443v-314h-69v433h433v-70h-314l443 -442z" />
    <glyph glyph-name="uni2197" unicode="&#x2197;" horiz-adv-x="800" 
d="M91 60l443 442h-314v70h433v-433h-69v314l-444 -443z" />
    <glyph glyph-name="uni2198" unicode="&#x2198;" horiz-adv-x="800" 
d="M220 0v70h314l-443 442l49 50l444 -443v314h69v-433h-433z" />
    <glyph glyph-name="uni2199" unicode="&#x2199;" horiz-adv-x="800" 
d="M151 433h69v-314l444 443l49 -50l-443 -442h314v-70h-433v433z" />
    <glyph glyph-name="uni219E" unicode="&#x219e;" horiz-adv-x="800" 
d="M324 215h-168l220 -221l-48 -49l-306 306l306 306l48 -50l-220 -220h168l270 270l48 -50l-220 -220h320v-72h-320l220 -221l-48 -49z" />
    <glyph glyph-name="uni219F" unicode="&#x219f;" horiz-adv-x="800" 
d="M94 148l270 270v168l-221 -220l-49 48l306 306l306 -306l-50 -48l-220 220v-168l270 -270l-50 -48l-220 220v-320h-72v320l-221 -220z" />
    <glyph glyph-name="uni21A0" unicode="&#x21a0;" horiz-adv-x="800" 
d="M188 -56l-48 49l220 221h-320v72h320l-220 220l48 50l270 -270h168l-220 220l48 50l306 -306l-306 -306l-48 49l220 221h-168z" />
    <glyph glyph-name="uni21A1" unicode="&#x21a1;" horiz-adv-x="800" 
d="M400 -10l-306 306l49 48l221 -220v168l-270 270l49 48l221 -220v320h72v-320l220 220l50 -48l-270 -270v-168l220 220l50 -48z" />
    <glyph glyph-name="uni21A2" unicode="&#x21a2;" horiz-adv-x="800" 
d="M742 -56l-270 270h-352l221 -220l-49 -50l-306 306l306 306l49 -49l-221 -221h352l270 270l49 -49l-257 -257l257 -256z" />
    <glyph glyph-name="uni21A3" unicode="&#x21a3;" horiz-adv-x="800" 
d="M-3 -6l257 256l-257 257l49 49l270 -270h352l-221 221l49 49l306 -306l-306 -306l-49 50l221 220h-352l-270 -270z" />
    <glyph glyph-name="uni21A4" unicode="&#x21a4;" horiz-adv-x="800" 
d="M666 214h-516l220 -221l-48 -49l-306 306l306 306l48 -50l-220 -220h516v214h70v-500h-70v214z" />
    <glyph glyph-name="uni21A5" unicode="&#x21a5;" horiz-adv-x="800" 
d="M150 70h214v516l-221 -220l-49 48l306 306l306 -306l-50 -48l-220 220v-516h214v-70h-500v70z" />
    <glyph glyph-name="uni21A6" unicode="&#x21a6;" horiz-adv-x="800" 
d="M66 0v500h70v-214h516l-220 220l48 50l306 -306l-306 -306l-48 49l220 221h-516v-214h-70z" />
    <glyph glyph-name="uni21A7" unicode="&#x21a7;" horiz-adv-x="800" 
d="M150 640v70h500v-70h-214v-516l220 220l50 -48l-306 -306l-306 306l49 48l221 -220v516h-214z" />
    <glyph glyph-name="uni21B0" unicode="&#x21b0;" horiz-adv-x="800" 
d="M664 -184v397h-514l220 -220l-48 -50l-306 306l306 306l48 -49l-220 -221h586v-469h-72z" />
    <glyph glyph-name="uni21B1" unicode="&#x21b1;" horiz-adv-x="800" 
d="M64 285h586l-220 221l48 49l306 -306l-306 -306l-48 50l220 220h-514v-397h-72v469z" />
    <glyph glyph-name="uni21B2" unicode="&#x21b2;" horiz-adv-x="800" 
d="M16 249l306 306l48 -50l-220 -220h514v397h72v-469h-586l220 -221l-48 -49z" />
    <glyph glyph-name="uni21B3" unicode="&#x21b3;" horiz-adv-x="800" 
d="M478 -57l-48 49l220 221h-586v469h72v-397h514l-220 220l48 50l306 -306z" />
    <glyph glyph-name="partialdiff" unicode="&#x2202;" horiz-adv-x="591" 
d="M295 -8q-54 0 -100.5 19.5t-80 53.5t-52.5 80t-19 98q0 51 18.5 96.5t51.5 80t78.5 54.5t98.5 20q51 0 95 -20.5t70 -57.5q-12 48 -36.5 89t-60.5 71t-84.5 47t-109.5 17h-7v75h6q102 0 175 -36t119.5 -95.5t68.5 -136.5t22 -159q0 -65 -16.5 -119.5t-48.5 -93.5t-79 -61
t-109 -22zM295 64q39 0 71 14t55.5 38.5t36 57t12.5 69.5t-12.5 69.5t-36 57t-55.5 38.5t-71 14t-71 -14t-55.5 -38.5t-36.5 -57t-13 -69.5t13 -69.5t36.5 -57t55.5 -38.5t71 -14z" />
    <glyph glyph-name="product" unicode="&#x220f;" horiz-adv-x="644" 
d="M96 710h452v-894h-74v824h-304v-824h-74v894z" />
    <glyph glyph-name="summation" unicode="&#x2211;" horiz-adv-x="589" 
d="M59 -118l266 381l-266 381v66h466v-70h-374l263 -377l-263 -377h374v-70h-466v66z" />
    <glyph glyph-name="minus" unicode="&#x2212;" horiz-adv-x="630" 
d="M96 310h438v-70h-438v70z" />
    <glyph glyph-name="radical" unicode="&#x221a;" horiz-adv-x="698" 
d="M138 249h-89v70h129l91 -176l260 655h140v-70h-89l-298 -745z" />
    <glyph glyph-name="infinity" unicode="&#x221e;" horiz-adv-x="811" 
d="M542 112q-43 0 -78.5 18t-58.5 49q-23 -31 -58.5 -49t-77.5 -18q-36 0 -68 13.5t-55 36.5t-36.5 54t-13.5 67t13.5 67t36.5 54t55 36.5t68 13.5q42 0 77.5 -18t58.5 -49q23 31 58.5 49t78.5 18q36 0 68 -13.5t55 -36.5t36.5 -54t13.5 -67t-13.5 -67t-36.5 -54t-55 -36.5
t-68 -13.5zM542 181q45 0 73.5 30t28.5 72t-28.5 72t-73.5 30q-22 0 -40.5 -8t-32 -22t-21 -32.5t-7.5 -39.5t7.5 -39.5t21 -32.5t32 -22t40.5 -8zM269 181q22 0 41 8t32.5 22t21 32.5t7.5 39.5t-7.5 39.5t-21 32.5t-32.5 22t-41 8q-45 0 -73 -30t-28 -72t28 -72t73 -30z
" />
    <glyph glyph-name="integral" unicode="&#x222b;" horiz-adv-x="405" 
d="M58 -118h26q24 0 40 4.5t25.5 14.5t13 26.5t3.5 41.5v595q0 77 35 113t122 36h24v-70h-28q-24 0 -40 -4.5t-25 -14.5t-12.5 -26.5t-3.5 -41.5v-594q0 -78 -35 -114t-121 -36h-24v70z" />
    <glyph glyph-name="approxequal" unicode="&#x2248;" horiz-adv-x="610" 
d="M96 199l108 73l198 -75l112 74v-82l-108 -75l-199 75l-111 -76v86zM96 386l108 73l198 -75l112 74v-82l-108 -75l-199 75l-111 -76v86z" />
    <glyph glyph-name="notequal" unicode="&#x2260;" horiz-adv-x="636" 
d="M96 420h281l86 119l55 -40l-57 -79h79v-70h-130l-108 -149h238v-70h-288l-86 -119l-55 40l57 79h-72v70h122l108 149h-230v70z" />
    <glyph glyph-name="lessequal" unicode="&#x2264;" horiz-adv-x="652" 
d="M79 327l460 210v-77l-293 -133l293 -131v-78zM79 70h460v-70h-460v70z" />
    <glyph glyph-name="greaterequal" unicode="&#x2265;" horiz-adv-x="653" 
d="M113 196l293 131l-293 133v77l461 -210l-461 -209v78zM113 70h461v-70h-461v70z" />
    <glyph glyph-name="uni25A0" unicode="&#x25a0;" horiz-adv-x="654" 
d="M77 500h500v-500h-500v500z" />
    <glyph glyph-name="uni25A1" unicode="&#x25a1;" horiz-adv-x="655" 
d="M77 500h501v-500h-501v500zM163 83h329v334h-329v-334z" />
    <glyph glyph-name="square" unicode="&#x25ab;" horiz-adv-x="655" 
d="M77 500h501v-500h-501v500zM163 83h329v334h-329v-334z" />
    <glyph glyph-name="Triangle.up" unicode="&#x25b3;" horiz-adv-x="782" 
d="M629 84l-238 453l-241 -453h479zM391 717l386 -717h-772z" />
    <glyph glyph-name="triangle.up" unicode="&#x25b5;" horiz-adv-x="567" 
d="M433 77l-150 280l-149 -280h299zM283 514l281 -514h-561z" />
    <glyph glyph-name="Triangle.down" unicode="&#x25bd;" horiz-adv-x="782" 
d="M629 626h-479l241 -453zM5 710h772l-386 -717z" />
    <glyph glyph-name="triangle.down" unicode="&#x25bf;" horiz-adv-x="567" 
d="M433 423h-299l149 -280zM3 500h561l-281 -514z" />
    <glyph glyph-name="lozenge" unicode="&#x25ca;" horiz-adv-x="676" 
d="M524 355l-186 243l-186 -243l186 -243zM59 355l279 365l279 -365l-279 -364z" />
    <glyph glyph-name="uni25CB" unicode="&#x25cb;" horiz-adv-x="602" 
d="M301 74q39 0 70.5 14t54 38t35 56t12.5 68t-12.5 68t-35 56t-54 38t-70.5 14q-38 0 -69.5 -14t-54.5 -38t-35.5 -56t-12.5 -68t12.5 -68t35.5 -56t54.5 -38t69.5 -14zM301 -8q-56 0 -103.5 20.5t-82 55.5t-54 82t-19.5 100t19.5 100t54 82t82 55.5t103.5 20.5
t103.5 -20.5t82 -55.5t54 -82t19.5 -100t-19.5 -100t-54 -82t-82 -55.5t-103.5 -20.5z" />
    <glyph glyph-name="uni25CF" unicode="&#x25cf;" horiz-adv-x="614" 
d="M307 -10q-55 0 -103 21t-84 57t-57 84t-21 103t21 103t57 84t84 57t103 21t103 -21t84 -57t57 -84t21 -103t-21 -103t-57 -84t-84 -57t-103 -21z" />
    <glyph glyph-name="Circle" unicode="&#x25ef;" horiz-adv-x="802" 
d="M401 81q58 0 107.5 21t85.5 58t56.5 87t20.5 108t-20.5 108t-56.5 87t-85.5 58t-107.5 21t-107.5 -21t-85.5 -58t-56.5 -87t-20.5 -108t20.5 -108t56.5 -87t85.5 -58t107.5 -21zM401 -8q-76 0 -142 28t-115 77t-77.5 115t-28.5 143q0 76 28.5 142.5t77.5 115.5t115 77
t142 28t142.5 -28t115.5 -77t77 -115.5t28 -142.5q0 -77 -28 -143t-77 -115t-115.5 -77t-142.5 -28z" />
    <glyph glyph-name="Square" unicode="&#x25fb;" horiz-adv-x="883" 
d="M704 89v532h-527v-532h527zM86 710h710v-710h-710v710z" />
    <glyph glyph-name="uniF6D1" unicode="&#xf6d1;" horiz-adv-x="460" 
d="M389 914q-2 -76 -45 -116t-114 -40t-114 40t-45 116h72q1 -48 24.5 -72.5t62.5 -24.5t62.5 24.5t24.5 72.5h72z" />
    <glyph glyph-name="uniF6D4" unicode="&#xf6d4;" horiz-adv-x="460" 
d="M389 710q-2 -77 -45.5 -116.5t-113.5 -39.5q-71 0 -114 40t-45 116h68q1 -51 26.5 -75.5t64.5 -24.5q38 0 63 24.5t27 75.5h69z" />
    <glyph glyph-name="fi" unicode="&#xfb01;" horiz-adv-x="597" 
d="M22 500h84q-17 17 -27 39.5t-10 48.5t10.5 48.5t29.5 39t46 25.5t60 9h118v-78h-104q-32 0 -54 -15.5t-22 -47.5q0 -33 22 -50t47 -19h111v-78h-139v-422h-86v422h-86v78zM433 609q-19 17 -19 46q0 26 18 44.5t44 18.5t44 -18.5t18 -44.5q0 -29 -19 -46h-86zM433 500h86
v-500h-86v500z" />
    <glyph glyph-name="fl" unicode="&#xfb02;" horiz-adv-x="597" 
d="M22 500h84q-17 17 -27 39.5t-10 48.5t10.5 48.5t29.5 39t46 25.5t60 9h118v-78h-104q-32 0 -54 -15.5t-22 -47.5q0 -33 22 -50t47 -19h111v-78h-139v-422h-86v422h-86v78zM433 710h86v-710h-86v710z" />
    <glyph glyph-name="uni0432.loclBGR" horiz-adv-x="557" 
d="M80 524q0 44 11 79.5t34.5 61t60 39.5t86.5 14q48 0 85 -15t62.5 -40.5t38.5 -58t13 -68.5q0 -48 -18 -86.5t-53 -58.5q24 -10 44.5 -28t35.5 -42t23 -53.5t8 -60.5q0 -102 -55.5 -156.5t-149.5 -54.5h-32q-101 0 -147.5 51t-46.5 136v341zM311 77q27 0 48 10.5t35 28.5
t21 41.5t7 49.5q0 23 -6.5 47.5t-21.5 44.5t-39 33t-59 13h-130v-171q0 -48 29.5 -72.5t78.5 -24.5h37zM269 426q55 0 84 29t29 80q0 43 -28 72.5t-82 29.5q-49 0 -77.5 -24.5t-28.5 -72.5v-114h103z" />
    <glyph glyph-name="uni0433.loclBGR" horiz-adv-x="418" 
d="M214 -8q-41 0 -73.5 11t-55.5 30.5t-35.5 45.5t-12.5 56q0 56 33 91.5t97 58.5l41 15q44 16 58.5 34.5t14.5 41.5q0 26 -21 40.5t-50 14.5q-58 0 -83 -52l-67 39q23 46 62.5 68t87.5 22q34 0 62.5 -10t49.5 -28t32.5 -42.5t11.5 -52.5q0 -45 -26.5 -84t-92.5 -64l-39 -15
q-45 -16 -65 -33.5t-20 -46.5t26 -46t63 -17q40 0 65.5 18t45.5 51l68 -46q-30 -51 -75.5 -75.5t-101.5 -24.5z" />
    <glyph glyph-name="uni0434.loclBGR" horiz-adv-x="610" 
d="M291 -194q-54 0 -111 15t-102 44l45 73q32 -23 76.5 -37.5t94.5 -14.5q33 0 63 6.5t53.5 21.5t37.5 39t14 59q0 13 -3 31t-10 32q-62 -60 -159 -60q-56 0 -101.5 19t-77.5 52t-50 78t-18 97t18 97.5t50 78.5t77.5 52t101.5 19q48 0 86.5 -15t69.5 -44v51h86v-398
q10 -26 14.5 -51t4.5 -47q0 -54 -22.5 -91.5t-59.5 -61.5t-83.5 -34.5t-94.5 -10.5zM292 95q54 0 94 23.5t60 58.5v169q-20 35 -60 58t-94 23q-36 0 -65.5 -12.5t-50.5 -35t-32.5 -52.5t-11.5 -66q0 -35 11.5 -65.5t32.5 -53t50.5 -35t65.5 -12.5z" />
    <glyph glyph-name="uni0437.loclBGR" horiz-adv-x="461" 
d="M56 -24q8 -13 21 -28.5t31.5 -29t42 -22.5t52.5 -9q31 0 55.5 10t42 26.5t27 38.5t9.5 46q0 20 -6.5 42.5t-20.5 41t-37.5 31t-56.5 12.5h-84v81h82q21 0 39.5 10t32 25.5t21.5 35t8 38.5t-8 37.5t-22.5 33t-35 23t-46.5 8.5q-45 0 -78.5 -24.5t-52.5 -51.5l-64 52
q13 19 32 38t44 34t56 24t69 9q45 0 81 -14.5t61.5 -39t39 -56t13.5 -65.5q0 -60 -22.5 -96t-57.5 -58q54 -26 78 -72t24 -101q0 -43 -16 -79.5t-44.5 -63.5t-68.5 -42t-88 -15q-86 1 -139.5 34t-84.5 82z" />
    <glyph glyph-name="uni0438.loclBGR" horiz-adv-x="568" 
d="M405 56q-29 -36 -69.5 -50t-84.5 -14q-43 0 -78.5 14.5t-61 40.5t-39.5 63.5t-14 84.5v305h86v-300q0 -55 33.5 -91t91.5 -36q52 0 86.5 26t49.5 74v327h86v-500h-86v56z" />
    <glyph glyph-name="uni0439.loclBGR" horiz-adv-x="568" 
d="M405 56q-29 -36 -69.5 -50t-84.5 -14q-43 0 -78.5 14.5t-61 40.5t-39.5 63.5t-14 84.5v305h86v-300q0 -55 33.5 -91t91.5 -36q52 0 86.5 26t49.5 74v327h86v-500h-86v56zM432 710q-2 -77 -45.5 -116.5t-113.5 -39.5q-71 0 -114 40t-45 116h68q1 -51 26.5 -75.5
t64.5 -24.5q38 0 63 24.5t27 75.5h69z" />
    <glyph glyph-name="uni043F.loclBGR" horiz-adv-x="578" 
d="M77 500h86v-57q29 36 70 50.5t85 14.5q42 0 77.5 -14.5t61 -40.5t40 -64t14.5 -84v-305h-86v300q0 55 -33.5 91t-92.5 36q-53 0 -87.5 -27.5t-48.5 -76.5v-323h-86v500z" />
    <glyph glyph-name="uni0442.loclBGR" horiz-adv-x="875" 
d="M722 300q0 55 -30 91t-84 36q-47 0 -78 -27t-45 -75q1 -5 1 -10v-10v-305h-86v300q0 55 -30.5 91t-84.5 36q-44 0 -75.5 -24.5t-46.5 -69.5v-333h-86v500h86v-55q28 35 65.5 49t75.5 14q50 0 89 -21.5t62 -60.5q18 24 39 40t43 25.5t44 13t41 3.5q43 0 77.5 -14.5
t58.5 -40.5t37 -64t13 -84v-305h-86v300z" />
    <glyph glyph-name="uni0446.loclBGR" horiz-adv-x="611" 
d="M491 118q0 -17 9.5 -28.5t29.5 -11.5h41v-205h-80v127q-9 0 -20.5 5t-21 13.5t-17 20.5t-9.5 27q-29 -36 -73.5 -55t-98.5 -19q-43 0 -78.5 14.5t-61 40.5t-39.5 63.5t-14 84.5v305h86v-300q0 -55 33.5 -91t91.5 -36q52 0 86.5 26t49.5 74v327h86v-382z" />
    <glyph glyph-name="uni0448.loclBGR" horiz-adv-x="875" 
d="M153 200q0 -55 30 -91t84 -36q47 0 78 27t45 75q-1 5 -1 10v315h86v-300q0 -55 30.5 -91t84.5 -36q44 0 75.5 24.5t46.5 69.5v333h86v-500h-86v55q-28 -35 -65.5 -49t-75.5 -14q-50 0 -89 21.5t-62 60.5q-18 -24 -39 -40t-43 -25.5t-44 -13t-41 -3.5q-43 0 -77.5 14.5
t-58.5 40.5t-37 63.5t-13 84.5v305h86v-300z" />
    <glyph glyph-name="uni0449.loclBGR" horiz-adv-x="918" 
d="M735 49q-24 -30 -66.5 -43.5t-87.5 -13.5q-50 0 -92.5 18.5t-68.5 63.5q-18 -24 -39 -40t-43 -25.5t-44 -13t-41 -3.5q-43 0 -77.5 14.5t-58.5 40.5t-37 63.5t-13 84.5v305h86v-300q0 -55 30 -91t84 -36q47 0 78 27t45 75q-1 5 -1 10v315h86v-300q0 -55 30.5 -91
t84.5 -36q44 0 75.5 24.5t46.5 69.5v333h86v-382q0 -17 9.5 -28.5t29.5 -11.5h41v-205h-80v127q-16 0 -35 13t-28 36z" />
    <glyph glyph-name="uni044E.loclBGR" horiz-adv-x="847" 
d="M285 293q7 46 29 85.5t56 68t77.5 45t94.5 16.5q56 0 103.5 -20t82 -55t54 -82t19.5 -101t-19.5 -101t-54 -82t-82 -55t-103.5 -20q-52 0 -96.5 17t-78.5 47t-55.5 71t-27.5 89h-113v-216h-86v710h86v-417h114zM542 73q38 0 69.5 13.5t54 37.5t34.5 56.5t12 69.5
t-12 69.5t-34.5 56.5t-54 37.5t-69.5 13.5t-69.5 -13.5t-54 -37.5t-35 -56.5t-12.5 -69.5t12.5 -69.5t35 -56.5t54 -37.5t69.5 -13.5z" />
    <glyph glyph-name="uni044C.loclBGR" horiz-adv-x="490" 
d="M80 500h86v-186h100q50 0 86 -13t59.5 -35t34.5 -51t11 -61t-11 -61t-33.5 -51.5t-57.5 -36t-83 -13.5q-50 0 -86 13t-59.5 35t-35 50.5t-11.5 59.5v350zM166 150q0 -39 27.5 -59.5t75.5 -20.5q49 0 76 21t27 63t-26.5 62t-74.5 20h-105v-86z" />
    <glyph glyph-name="uni044A.loclBGR" horiz-adv-x="566" 
d="M242 150q0 -39 27.5 -59.5t75.5 -20.5q49 0 76 21t27 63t-26.5 62t-74.5 20h-105v-86zM16 422v78h226v-186h100q50 0 86 -13t59.5 -35t34.5 -51t11 -61t-11 -61t-33.5 -51.5t-57.5 -36t-83 -13.5q-50 0 -86 13t-59.5 35t-35 50.5t-11.5 59.5v272h-140z" />
    <glyph glyph-name="uni0431.loclSRB" horiz-adv-x="602" 
d="M150 461q-14 11 -26 27.5t-20 39t-8 49.5t9.5 51t28.5 42t48.5 29t68.5 11h244l-19 -78h-212q-45 0 -66 -19t-21 -49t21 -49.5t66 -19.5h45q57 0 102.5 -20.5t78 -54t49.5 -78t17 -92.5q0 -54 -19 -101t-53 -82t-81 -55t-102 -20q-56 0 -102.5 20t-80.5 55t-53 82
t-19 101q0 39 11.5 75.5t33 67.5t52.5 54q7 5 14 9q-3 2 -7 5zM301 417q-38 0 -69 -12.5t-53.5 -35t-34.5 -53t-12 -66.5q0 -38 12.5 -70.5t34.5 -56.5t53 -38t69 -14q37 0 68.5 14t53.5 38t34.5 56.5t12.5 70.5q0 36 -12 66.5t-34.5 53t-53.5 35t-69 12.5z" />
    <glyph glyph-name="apple" horiz-adv-x="602" 
d="M301 -8q-53 0 -100 20.5t-82 55.5t-55.5 82t-20.5 100t20.5 100t55.5 82t82 55.5t100 20.5l-60 -151h88l-52 -137l188 194h-117l33 81q39 -13 71.5 -36.5t56 -56t37 -71t13.5 -81.5q0 -53 -20.5 -100t-55.5 -82t-82 -55.5t-100 -20.5z" />
    <glyph glyph-name="dotaccent.low" horiz-adv-x="177" 
d="M89 -192q-26 0 -44 18t-18 44t18 43.5t44 17.5t44 -17.5t18 -43.5t-18 -44t-44 -18z" />
    <glyph glyph-name="commaaccent" horiz-adv-x="249" 
d="M106 -50h100l-109 -179h-65z" />
    <glyph glyph-name="caron.slovak" horiz-adv-x="500" 
d="M233 710h87l-51 -165h-61z" />
    <glyph glyph-name="zero.slashed" horiz-adv-x="590" 
d="M295 -8q-55 0 -101 19.5t-79.5 54.5t-52 84.5t-18.5 108.5v192q0 59 18.5 108t52 84.5t79.5 55t101 19.5t101 -19.5t79.5 -55t52.5 -84.5t19 -108v-192q0 -59 -19 -108.5t-52.5 -84.5t-79.5 -54.5t-101 -19.5zM130 289l327 212q-12 66 -55.5 102t-106.5 36
q-36 0 -66.5 -12.5t-52 -36t-34 -57.5t-12.5 -77v-167zM295 71q73 0 119.5 48t46.5 135v165l-327 -212q12 -65 55.5 -100.5t105.5 -35.5z" />
    <glyph glyph-name="one.pof" horiz-adv-x="259" 
d="M87 468l85 86v-554h-85v468z" />
    <glyph glyph-name="two.pof" horiz-adv-x="505" 
d="M52 68l228 186q29 24 51 54.5t22 68.5q0 39 -28 66.5t-74 27.5q-42 0 -72 -26.5t-38 -65.5l-82 16q7 34 24 62t42.5 48.5t58 31.5t70.5 11q39 0 72 -12t58 -34t39 -53t14 -70q0 -57 -28 -100.5t-76 -81.5l-152 -120h264v-77h-393v68z" />
    <glyph glyph-name="three.pof" horiz-adv-x="502" 
d="M214 -142q-69 0 -118 25.5t-78 57.5l56 59q23 -25 56.5 -44t81.5 -19q36 0 66.5 11t52.5 31.5t34 49.5t12 65q0 67 -45 108.5t-127 37.5h-21l116 222h-253v78h384l-123 -236q70 -23 113 -76t43 -134q0 -54 -18 -97.5t-51 -74t-79 -47.5t-102 -17z" />
    <glyph glyph-name="four.pof" horiz-adv-x="552" 
d="M360 50h-390l475 498v-420h95v-78h-95v-183h-85v183zM360 128v218l-208 -218h208z" />
    <glyph glyph-name="five.pof" horiz-adv-x="530" 
d="M243 -142q-33 0 -63.5 8t-56 20.5t-46 28.5t-33.5 32l56 59q26 -28 60 -48.5t80 -20.5q36 0 64 12t47.5 32t29.5 46.5t10 55.5q0 30 -10 57t-29.5 47t-47.5 31.5t-64 11.5q-39 0 -67.5 -13.5t-45.5 -31.5l-51 27v328h356v-78h-271v-170q39 17 86 17q54 0 97 -17.5t73 -48
t45.5 -71.5t15.5 -89q0 -47 -16 -87.5t-46 -71.5t-74 -48.5t-99 -17.5z" />
    <glyph glyph-name="six.pof" horiz-adv-x="505" 
d="M252 -8q-48 0 -88.5 17.5t-70 47t-46 69.5t-16.5 85q0 30 8 57t21 53l182 353h92l-129 -252q14 5 26.5 6.5t28.5 1.5q46 -2 85 -20t67.5 -47.5t44.5 -68.5t16 -83q0 -45 -17 -85t-46.5 -69.5t-70 -47t-87.5 -17.5zM252 71q30 0 54.5 11t42.5 30.5t27.5 44.5t9.5 54
q0 28 -9.5 53.5t-27.5 45t-42.5 31t-54.5 11.5t-55 -11.5t-42.5 -31t-27.5 -45t-10 -53.5q0 -29 10 -54t27.5 -44.5t42.5 -30.5t55 -11z" />
    <glyph glyph-name="seven.pof" horiz-adv-x="500" 
d="M363 462h-334v78h461l-319 -674h-91z" />
    <glyph glyph-name="eight.pof" horiz-adv-x="556" 
d="M278 -8q-45 0 -85.5 17t-70.5 46.5t-47.5 69t-17.5 83.5q0 59 28 107t75 77q-26 22 -41 53t-15 69q0 36 13.5 66.5t37.5 53t55.5 35.5t67.5 13t67.5 -13t55 -35.5t37.5 -53t14 -66.5q0 -38 -15.5 -69t-41.5 -53q47 -29 75.5 -76.5t28.5 -107.5q0 -44 -17.5 -83.5
t-47.5 -69t-70 -46.5t-86 -17zM278 71q28 0 52.5 11t42.5 29.5t28.5 43.5t10.5 53t-10.5 53t-28.5 44t-42.5 30t-52.5 11t-52.5 -11t-42.5 -30t-28.5 -44t-10.5 -53t10.5 -53t28.5 -43.5t42.5 -29.5t52.5 -11zM278 425h3q36 2 61 27.5t25 61.5q0 37 -26 63t-63 26t-63 -26
t-26 -63q0 -36 25 -61.5t60 -27.5h4z" />
    <glyph glyph-name="nine.pof" horiz-adv-x="505" 
d="M253.016 549q47.9971 0 88.4941 -17.499q40.498 -17.499 69.9961 -46.9971q29.498 -29.499 45.9971 -69.4961q16.499 -39.998 16.499 -84.9951q0 -29.998 -8 -56.9961q-7.99902 -26.999 -20.998 -52.9971l-181.989 -352.979h-91.9941l128.992 251.984
q-13.999 -4.99902 -26.499 -6.49902q-12.499 -1.5 -28.498 -1.5q-45.9971 2 -84.9941 19.999q-38.998 17.998 -67.4961 47.4971q-28.498 29.498 -44.4971 68.4951q-15.999 38.998 -15.999 82.9951q0 44.9971 16.998 84.9951q16.999 39.9971 46.498 69.4961
q29.498 29.498 69.9951 46.9971q40.498 17.499 87.4951 17.499zM253.016 470.004q-29.998 0 -54.4971 -10.999q-24.498 -10.999 -42.4971 -30.498t-27.498 -44.4971q-9.5 -24.999 -9.5 -53.9971q0 -27.998 9.5 -53.4961q9.49902 -25.499 27.498 -44.998
q17.999 -19.498 42.4971 -30.998q24.499 -11.499 54.4971 -11.499t54.9961 11.499q24.999 11.5 42.498 30.998q17.499 19.499 27.498 44.998q9.99902 25.498 9.99902 53.4961q0 28.998 -9.99902 53.9971q-9.99902 24.998 -27.498 44.4971t-42.498 30.498
q-24.998 10.999 -54.9961 10.999z" />
    <glyph glyph-name="zero.pof" horiz-adv-x="564" 
d="M282 -8q-47 0 -86 15.5t-67.5 44t-44 68t-15.5 87.5v127q0 47 15.5 86.5t44 68t67.5 44t86 15.5q46 0 85.5 -15.5t67.5 -44t44 -68t16 -86.5v-127q0 -48 -16 -87.5t-44 -68t-67.5 -44t-85.5 -15.5zM282 71q56 0 92 36t36 101v125q0 64 -36 100t-92 36q-57 0 -92.5 -36
t-35.5 -100v-125q0 -65 35.5 -101t92.5 -36z" />
    <glyph glyph-name="zero.slashed.pof" horiz-adv-x="564" 
d="M282 -8q-47 0 -86 15.5t-67.5 44t-44 68t-15.5 87.5v127q0 47 15.5 86.5t44 68t67.5 44t86 15.5q46 0 85.5 -15.5t67.5 -44t44 -68t16 -86.5v-127q0 -48 -16 -87.5t-44 -68t-67.5 -44t-85.5 -15.5zM282 71q56 0 92 36t36 101v125q0 16 -3 31l-232 -238q17 -26 44.5 -40.5
t62.5 -14.5zM154 208v-10t1 -10l229 232q-17 23 -43.5 36t-58.5 13q-57 0 -92.5 -36t-35.5 -100v-125z" />
    <glyph glyph-name="one.case" horiz-adv-x="300" 
d="M105 628l90 90v-718h-90v628z" />
    <glyph glyph-name="two.case" horiz-adv-x="590" 
d="M59 72l274 266q18 17 34.5 36t30 40t21.5 43.5t8 47.5q0 28 -10.5 52t-28.5 41.5t-42.5 27t-52.5 9.5q-54 0 -91.5 -33.5t-45.5 -86.5l-86 18q7 41 26.5 75t48.5 58.5t67.5 38t83.5 13.5q48 0 88.5 -16t70 -43.5t46 -66t16.5 -83.5q0 -35 -8.5 -65t-24.5 -57.5
t-39.5 -54.5t-53.5 -56l-199 -192h333v-84h-466v72z" />
    <glyph glyph-name="three.case" horiz-adv-x="538" 
d="M244 -8q-63 0 -118 29t-87 79l69 54q18 -33 53 -56t81 -23q32 0 59.5 11t48 30.5t32 47.5t11.5 62q0 68 -42 111t-114 43h-63l140 246h-246v84h386l-148 -258q42 -9 75.5 -30t57 -51t35.5 -67t12 -78q0 -50 -17.5 -92.5t-49.5 -74t-76.5 -49.5t-98.5 -18z" />
    <glyph glyph-name="four.case" horiz-adv-x="606" 
d="M400 193h-398l487 525v-443h92v-82h-92v-193h-89v193zM400 275v233l-216 -233h216z" />
    <glyph glyph-name="five.case" horiz-adv-x="560" 
d="M267 -8q-64 0 -121 29t-87 79l70 55q17 -33 53 -56.5t82 -23.5q33 0 60 11t46.5 31t30.5 47t11 59q0 33 -10.5 60.5t-30.5 48t-48 32t-62 11.5q-41 0 -68 -17.5t-42 -37.5l-62 26v364h360v-84h-269v-187q17 8 39 13.5t45 5.5q56 0 100.5 -18.5t75.5 -50t47.5 -74.5
t16.5 -92q0 -48 -17 -90.5t-48.5 -73.5t-75 -49t-96.5 -18z" />
    <glyph glyph-name="six.case" horiz-adv-x="564" 
d="M281 -8q-50 0 -93 18t-75 49.5t-50 73.5t-18 90q0 37 12.5 70t29.5 62l210 355h100l-156 -262q11 3 22 5t24 2q48 -1 90 -19t73.5 -49.5t49.5 -73.5t18 -90t-18.5 -90t-50.5 -73.5t-75 -49.5t-93 -18zM281 75q32 0 58.5 11.5t45.5 32t29.5 47.5t10.5 57t-10.5 57.5
t-29.5 47.5t-45.5 32t-58.5 12t-58.5 -12t-45.5 -32t-29.5 -47.5t-10.5 -57.5t10.5 -57t29.5 -47.5t45.5 -32t58.5 -11.5z" />
    <glyph glyph-name="seven.case" horiz-adv-x="524" 
d="M369 626h-331v84h466l-338 -710h-96z" />
    <glyph glyph-name="eight.case" horiz-adv-x="571" 
d="M286 -8q-48 0 -90 17.5t-73.5 48t-49.5 72t-18 90.5q0 63 29 113.5t77 79.5q-25 23 -39 55.5t-14 71.5q0 38 14 70.5t38 56.5t56.5 37.5t69.5 13.5t69.5 -13.5t56.5 -37.5t38 -56.5t14 -70.5q0 -39 -14.5 -71.5t-39.5 -55.5q48 -29 77 -79.5t29 -113.5q0 -49 -18 -90.5
t-49 -72t-73 -48t-90 -17.5zM286 77q29 0 54 11t43.5 30.5t29 45.5t10.5 56t-10.5 56.5t-29 46t-43.5 30.5t-54 11t-54.5 -11t-44 -30.5t-29 -46t-10.5 -56.5t10.5 -56t29 -45.5t44 -30.5t54.5 -11zM286 448q37 0 63 26t26 66q0 41 -26 67t-63 26q-38 0 -63.5 -26t-25.5 -67
q0 -40 25.5 -66t63.5 -26z" />
    <glyph glyph-name="nine.case" horiz-adv-x="562" 
d="M323 262q-11 -3 -23 -5t-24 -2q-48 1 -90 19t-73 49.5t-49 73.5t-18 90t18 90t50 73.5t75 49.5t93 18q49 0 92 -18t75 -49.5t50 -73.5t18 -90q0 -37 -12 -70t-29 -62l-210 -355h-100zM282 338q32 0 58.5 12t45.5 32t29.5 47.5t10.5 57.5t-10.5 57t-29.5 47.5t-45.5 32
t-58.5 11.5t-58.5 -11.5t-45.5 -32t-29.5 -47.5t-10.5 -57t10.5 -57.5t29.5 -47.5t45.5 -32t58.5 -12z" />
    <glyph glyph-name="zero.case" horiz-adv-x="647" 
d="M323 -8q-56 0 -102 19.5t-80 54.5t-52.5 84.5t-18.5 108.5v192q0 59 18.5 108t52.5 84.5t80 55t102 19.5q55 0 102 -19.5t80.5 -55t52.5 -84.5t19 -108v-192q0 -59 -19 -108.5t-52.5 -84.5t-80.5 -54.5t-102 -19.5zM323 75q73 0 118.5 48t45.5 135v194q0 87 -45.5 135
t-118.5 48q-36 0 -66 -12.5t-51.5 -36t-33.5 -57.5t-12 -77v-194q0 -43 12 -77t33.5 -57.5t51.5 -36t66 -12.5z" />
    <glyph glyph-name="zero.slashed.case" horiz-adv-x="647" 
d="M323 -8q-56 0 -102 19.5t-80 54.5t-52.5 84.5t-18.5 108.5v192q0 59 18.5 108t52.5 84.5t80 55t102 19.5q55 0 102 -19.5t80.5 -55t52.5 -84.5t19 -108v-192q0 -59 -19 -108.5t-52.5 -84.5t-80.5 -54.5t-102 -19.5zM323 75q73 0 118.5 48t45.5 135v166l-324 -210
q11 -66 54 -102.5t106 -36.5zM160 299l321 208q-14 61 -56 94.5t-102 33.5q-36 0 -66 -12.5t-51.5 -36t-33.5 -57.5t-12 -77v-153z" />
    <glyph glyph-name="a.superior" horiz-adv-x="365" 
d="M255 429q-32 -24 -77 -24q-33 0 -61.5 12t-49.5 32.5t-32.5 49t-11.5 61.5t11.5 61.5t32.5 49t49.5 32.5t61.5 12q23 0 42.5 -7t34.5 -18v20h69v-300h-69v19zM179 471q23 0 43.5 10.5t32.5 27.5v101q-12 18 -32.5 28.5t-43.5 10.5q-38 0 -61.5 -25.5t-23.5 -63.5
t23.5 -63.5t61.5 -25.5z" />
    <glyph glyph-name="b.superior" horiz-adv-x="365" 
d="M41 836h69v-146q15 11 34.5 18t42.5 7q33 0 61.5 -12t49 -32.5t32 -49t11.5 -61.5t-11.5 -61.5t-32 -49t-49 -32.5t-61.5 -12q-45 0 -77 24v-19h-69v426zM186 649q-23 0 -43.5 -10.5t-32.5 -27.5v-102q12 -17 32.5 -27.5t43.5 -10.5q38 0 61.5 25.5t23.5 63.5t-23.5 63.5
t-61.5 25.5z" />
    <glyph glyph-name="c.superior" horiz-adv-x="314" 
d="M179 405q-33 0 -61.5 12t-49.5 32.5t-33 49t-12 61.5t12 61.5t33 49t49.5 32.5t61.5 12q35 0 64 -14t50 -37l-47 -48q-11 14 -27.5 22.5t-39.5 8.5q-38 0 -61.5 -24.5t-23.5 -62.5t23.5 -62.5t61.5 -24.5q23 0 39.5 8.5t27.5 22.5l47 -48q-21 -23 -50 -37t-64 -14z" />
    <glyph glyph-name="d.superior" horiz-adv-x="365" 
d="M255 429q-32 -24 -77 -24q-33 0 -61.5 12t-49.5 32.5t-32.5 49t-11.5 61.5t11.5 61.5t32.5 49t49.5 32.5t61.5 12q23 0 42.5 -7t34.5 -18v146h69v-426h-69v19zM179 471q23 0 43.5 10.5t32.5 27.5v101q-12 18 -32.5 28.5t-43.5 10.5q-38 0 -61.5 -25.5t-23.5 -63.5
t23.5 -63.5t61.5 -25.5z" />
    <glyph glyph-name="e.superior" horiz-adv-x="344" 
d="M179 405q-33 0 -61.5 12t-49.5 32.5t-33 49t-12 61.5t11.5 61.5t32.5 49t49.5 32.5t61.5 12q68 0 106.5 -47.5t36.5 -127.5h-226q5 -30 28.5 -48t55.5 -18q26 0 45.5 10.5t30.5 23.5l47 -50q-20 -23 -52 -38t-71 -15zM173 651q-26 0 -47 -15.5t-29 -42.5h148
q-6 29 -24.5 43.5t-47.5 14.5z" />
    <glyph glyph-name="f.superior" horiz-adv-x="216" 
d="M12 710h47q-21 21 -21 51q0 32 23 53.5t61 21.5h81v-61h-61q-17 0 -27.5 -8.5t-10.5 -23.5t9 -23.5t21 -9.5h69v-61h-76v-239h-70v239h-45v61z" />
    <glyph glyph-name="g.superior" horiz-adv-x="361" 
d="M173 294q-31 0 -65.5 8t-63.5 28l36 60q20 -14 42 -22t51 -8q16 0 31.5 3t27.5 9.5t19.5 18t7.5 29.5q0 6 -1.5 14t-4.5 15q-15 -11 -35.5 -18.5t-44.5 -7.5q-33 0 -61 11t-47.5 30.5t-30.5 46t-11 58.5t11 58.5t30.5 46t47.5 30.5t61 11q23 0 42.5 -7t34.5 -18v20h69
v-240q7 -16 9.5 -31t2.5 -28q0 -32 -13.5 -54.5t-36 -36.5t-51 -20t-57.5 -6zM174 489q23 0 43.5 10t32.5 28v83q-12 18 -32.5 28.5t-43.5 10.5q-33 0 -56.5 -22.5t-23.5 -57.5q0 -36 23.5 -58t56.5 -22z" />
    <glyph glyph-name="h.superior" horiz-adv-x="350" 
d="M41 836h69v-152q16 16 37.5 23.5t44.5 7.5q57 0 90 -36t33 -95v-174h-69v173q0 11 -4.5 23t-12.5 21.5t-21 15.5t-29 6q-24 0 -42 -12.5t-27 -38.5v-188h-69v426z" />
    <glyph glyph-name="i.superior" horiz-adv-x="152" 
d="M41 767q-10 13 -10 29q0 18 13 31.5t32 13.5q18 0 31.5 -13.5t13.5 -31.5q0 -17 -10 -29h-70zM41 710h69v-300h-69v300z" />
    <glyph glyph-name="j.superior" horiz-adv-x="155" 
d="M-19 365h18q22 0 33.5 8.5t11.5 31.5v305h69v-309q0 -57 -28.5 -79t-82.5 -22h-21v65zM44 767q-10 11 -10 29t13 31.5t31 13.5q19 0 32 -13.5t13 -31.5t-10 -29h-69z" />
    <glyph glyph-name="k.superior" horiz-adv-x="321" 
d="M41 836h69v-261l117 135h81l-122 -142l137 -158h-84l-129 149v-149h-69v426z" />
    <glyph glyph-name="l.superior" horiz-adv-x="151" 
d="M41 836h69v-426h-69v426z" />
    <glyph glyph-name="m.superior" horiz-adv-x="531" 
d="M426 583q0 11 -3.5 23t-10.5 21.5t-18.5 15.5t-27.5 6q-46 0 -64 -51q1 -5 1 -14v-174h-69v173q0 11 -3.5 23t-11 21.5t-19 15.5t-27.5 6q-21 0 -37.5 -12.5t-25.5 -38.5v-188h-69v300h69v-27q15 17 35 24.5t41 7.5q32 0 55.5 -12t38.5 -34q21 28 49 37t50 9q56 0 86 -36
t30 -95v-174h-69v173z" />
    <glyph glyph-name="o.superior" horiz-adv-x="357" 
d="M179 471q37 0 60.5 25.5t23.5 63.5t-23.5 63.5t-60.5 25.5q-38 0 -61.5 -25.5t-23.5 -63.5t23.5 -63.5t61.5 -25.5zM179 405q-33 0 -61.5 12t-49.5 32.5t-33 49t-12 61.5t12 61.5t33 49t49.5 32.5t61.5 12t61.5 -12t49 -32.5t32.5 -49t12 -61.5t-12 -61.5t-32.5 -49
t-49 -32.5t-61.5 -12z" />
    <glyph glyph-name="p.superior" horiz-adv-x="365" 
d="M41 710h69v-20q15 11 34.5 18t42.5 7q33 0 61.5 -12t49 -32.5t32 -49t11.5 -61.5t-11.5 -61.5t-32 -49t-49 -32.5t-61.5 -12q-46 0 -77 25v-130h-69v410zM186 649q-23 0 -43.5 -10.5t-32.5 -27.5v-102q12 -17 32.5 -27.5t43.5 -10.5q38 0 61.5 25.5t23.5 63.5t-23.5 63.5
t-61.5 25.5z" />
    <glyph glyph-name="q.superior" horiz-adv-x="365" 
d="M255 429q-32 -24 -77 -24q-33 0 -61.5 12t-49.5 32.5t-32.5 49t-11.5 61.5t11.5 61.5t32.5 49t49.5 32.5t61.5 12q23 0 42.5 -7t34.5 -18v20h69v-410h-69v129zM179 471q23 0 43.5 10.5t32.5 27.5v101q-12 18 -32.5 28.5t-43.5 10.5q-38 0 -61.5 -25.5t-23.5 -63.5
t23.5 -63.5t61.5 -25.5z" />
    <glyph glyph-name="r.superior" horiz-adv-x="221" 
d="M41 710h69v-28q28 32 76 32h11.5t10.5 -1v-73q-15 5 -34 5q-20 0 -37 -8t-27 -26v-201h-69v300z" />
    <glyph glyph-name="s.superior" horiz-adv-x="250" 
d="M123 405q-36 0 -65 15t-48 47l53 37q11 -18 24 -27.5t36 -9.5q16 0 25.5 7t9.5 18q0 12 -9 20t-29 16l-20 8q-74 29 -74 93q0 38 27.5 62t69.5 24q29 0 53.5 -12t41.5 -40l-51 -36q-14 26 -42 26q-12 0 -21.5 -5.5t-9.5 -16.5t8.5 -18.5t28.5 -15.5l21 -8
q38 -15 58.5 -36.5t20.5 -57.5q0 -40 -30 -65t-78 -25z" />
    <glyph glyph-name="t.superior" horiz-adv-x="233" 
d="M-2 710h58v56l69 36v-92h77l-10 -61h-67v-131q0 -23 8.5 -34t34.5 -11h41v-63h-61q-43 0 -67.5 24.5t-24.5 67.5v147h-46z" />
    <glyph glyph-name="u.superior" horiz-adv-x="350" 
d="M239 435q-16 -16 -37.5 -23t-44.5 -7q-57 0 -90 36t-33 95v174h69v-173q0 -11 4.5 -23t13 -21.5t21 -15.5t28.5 -6q48 0 69 47v192h69v-300h-69v25z" />
    <glyph glyph-name="v.superior" horiz-adv-x="326" 
d="M-2 710h77l88 -171l87 171h79l-166 -305z" />
    <glyph glyph-name="w.superior" horiz-adv-x="435" 
d="M7 710h72l60 -196l78 201l79 -201l59 196h73l-95 -300h-52l-64 157l-62 -157h-53z" />
    <glyph glyph-name="x.superior" horiz-adv-x="327" 
d="M119 562l-106 148h80l71 -100l71 100h79l-107 -148l113 -152h-80l-77 105l-76 -105h-80z" />
    <glyph glyph-name="y.superior" horiz-adv-x="308" 
d="M118 424l-117 286h74l79 -205l80 205h73l-169 -410h-72z" />
    <glyph glyph-name="z.superior" horiz-adv-x="304" 
d="M171 649h-141v61h260l-160 -239h151v-61h-270z" />
    <glyph glyph-name="zero.slashed.superior" horiz-adv-x="383" 
d="M192 405q-36 0 -65 12.5t-49.5 34.5t-31.5 52.5t-11 66.5v103q0 37 11 67.5t31.5 52.5t49.5 34.5t65 12.5q35 0 64 -12.5t49.5 -34.5t31.5 -52.5t11 -67.5v-103q0 -36 -11 -66.5t-31.5 -52.5t-49.5 -34.5t-64 -12.5zM192 469q38 0 62.5 26t24.5 72v80l-173 -106
q7 -35 30 -53.5t56 -18.5zM104 601l172 106q-8 34 -30.5 52t-53.5 18q-39 0 -63.5 -25.5t-24.5 -72.5v-78z" />
    <glyph glyph-name="period.superior" horiz-adv-x="174" 
d="M87 405q-23 0 -38.5 15.5t-15.5 38.5q0 22 15.5 37.5t38.5 15.5q22 0 37.5 -15.5t15.5 -37.5q0 -23 -15.5 -38.5t-37.5 -15.5z" />
    <glyph glyph-name="hyphen.superior" horiz-adv-x="209" 
d="M26 650h157v-68h-157v68z" />
    <glyph glyph-name="comma.superior" horiz-adv-x="163" 
d="M74 410h-36v87h87v-87l-36 -88h-42z" />
    <glyph glyph-name="a.inferior" horiz-adv-x="365" 
d="M255 -95q-32 -24 -77 -24q-33 0 -61.5 12t-49.5 32.5t-32.5 49t-11.5 61.5t11.5 61.5t32.5 49t49.5 32.5t61.5 12q23 0 42.5 -7t34.5 -18v20h69v-300h-69v19zM179 -53q23 0 43.5 10.5t32.5 27.5v101q-12 18 -32.5 28.5t-43.5 10.5q-38 0 -61.5 -25.5t-23.5 -63.5
t23.5 -63.5t61.5 -25.5z" />
    <glyph glyph-name="b.inferior" horiz-adv-x="365" 
d="M41 312h69v-146q15 11 34.5 18t42.5 7q33 0 61.5 -12t49 -32.5t32 -49t11.5 -61.5t-11.5 -61.5t-32 -49t-49 -32.5t-61.5 -12q-45 0 -77 24v-19h-69v426zM186 125q-23 0 -43.5 -10.5t-32.5 -27.5v-102q12 -17 32.5 -27.5t43.5 -10.5q38 0 61.5 25.5t23.5 63.5t-23.5 63.5
t-61.5 25.5z" />
    <glyph glyph-name="c.inferior" horiz-adv-x="314" 
d="M179 -119q-33 0 -61.5 12t-49.5 32.5t-33 49t-12 61.5t12 61.5t33 49t49.5 32.5t61.5 12q35 0 64 -14t50 -37l-47 -48q-11 14 -27.5 22.5t-39.5 8.5q-38 0 -61.5 -24.5t-23.5 -62.5t23.5 -62.5t61.5 -24.5q23 0 39.5 8.5t27.5 22.5l47 -48q-21 -23 -50 -37t-64 -14z" />
    <glyph glyph-name="d.inferior" horiz-adv-x="365" 
d="M255 -95q-32 -24 -77 -24q-33 0 -61.5 12t-49.5 32.5t-32.5 49t-11.5 61.5t11.5 61.5t32.5 49t49.5 32.5t61.5 12q23 0 42.5 -7t34.5 -18v146h69v-426h-69v19zM179 -53q23 0 43.5 10.5t32.5 27.5v101q-12 18 -32.5 28.5t-43.5 10.5q-38 0 -61.5 -25.5t-23.5 -63.5
t23.5 -63.5t61.5 -25.5z" />
    <glyph glyph-name="e.inferior" horiz-adv-x="344" 
d="M179 -119q-33 0 -61.5 12t-49.5 32.5t-33 49t-12 61.5t11.5 61.5t32.5 49t49.5 32.5t61.5 12q68 0 106.5 -47.5t36.5 -127.5h-226q5 -30 28.5 -48t55.5 -18q26 0 45.5 10.5t30.5 23.5l47 -50q-20 -23 -52 -38t-71 -15zM173 127q-26 0 -47 -15.5t-29 -42.5h148
q-6 29 -24.5 43.5t-47.5 14.5z" />
    <glyph glyph-name="f.inferior" horiz-adv-x="216" 
d="M12 186h47q-21 21 -21 51q0 32 23 53.5t61 21.5h81v-61h-61q-17 0 -27.5 -8.5t-10.5 -23.5t9 -23.5t21 -9.5h69v-61h-76v-239h-70v239h-45v61z" />
    <glyph glyph-name="g.inferior" horiz-adv-x="361" 
d="M173 -230q-31 0 -65.5 8t-63.5 28l36 60q20 -14 42 -22t51 -8q16 0 31.5 3t27.5 9.5t19.5 18t7.5 29.5q0 6 -1.5 14t-4.5 15q-15 -11 -35.5 -18.5t-44.5 -7.5q-33 0 -61 11t-47.5 30.5t-30.5 46t-11 58.5t11 58.5t30.5 46t47.5 30.5t61 11q23 0 42.5 -7t34.5 -18v20h69
v-240q7 -16 9.5 -31t2.5 -28q0 -32 -13.5 -54.5t-36 -36.5t-51 -20t-57.5 -6zM174 -35q23 0 43.5 10t32.5 28v83q-12 18 -32.5 28.5t-43.5 10.5q-33 0 -56.5 -22.5t-23.5 -57.5q0 -36 23.5 -58t56.5 -22z" />
    <glyph glyph-name="h.inferior" horiz-adv-x="350" 
d="M41 312h69v-152q16 16 37.5 23.5t44.5 7.5q57 0 90 -36t33 -95v-174h-69v173q0 11 -4.5 23t-12.5 21.5t-21 15.5t-29 6q-24 0 -42 -12.5t-27 -38.5v-188h-69v426z" />
    <glyph glyph-name="i.inferior" horiz-adv-x="152" 
d="M41 243q-10 13 -10 29q0 18 13 31.5t32 13.5q18 0 31.5 -13.5t13.5 -31.5q0 -17 -10 -29h-70zM41 186h69v-300h-69v300z" />
    <glyph glyph-name="j.inferior" horiz-adv-x="155" 
d="M-19 -159h18q22 0 33.5 8.5t11.5 31.5v305h69v-309q0 -57 -28.5 -79t-82.5 -22h-21v65zM44 243q-10 11 -10 29t13 31.5t31 13.5q19 0 32 -13.5t13 -31.5t-10 -29h-69z" />
    <glyph glyph-name="k.inferior" horiz-adv-x="321" 
d="M41 312h69v-261l117 135h81l-122 -142l137 -158h-84l-129 149v-149h-69v426z" />
    <glyph glyph-name="l.inferior" horiz-adv-x="151" 
d="M41 312h69v-426h-69v426z" />
    <glyph glyph-name="m.inferior" horiz-adv-x="531" 
d="M426 59q0 11 -3.5 23t-10.5 21.5t-18.5 15.5t-27.5 6q-46 0 -64 -51q1 -5 1 -14v-174h-69v173q0 11 -3.5 23t-11 21.5t-19 15.5t-27.5 6q-21 0 -37.5 -12.5t-25.5 -38.5v-188h-69v300h69v-27q15 17 35 24.5t41 7.5q32 0 55.5 -12t38.5 -34q21 28 49 37t50 9q56 0 86 -36
t30 -95v-174h-69v173z" />
    <glyph glyph-name="n.inferior" horiz-adv-x="350" 
d="M41 186h69v-26q16 16 37.5 23.5t44.5 7.5q57 0 90 -36t33 -95v-174h-69v173q0 11 -4.5 23t-12.5 21.5t-21 15.5t-29 6q-24 0 -42 -12.5t-27 -38.5v-188h-69v300z" />
    <glyph glyph-name="o.inferior" horiz-adv-x="357" 
d="M179 -53q37 0 60.5 25.5t23.5 63.5t-23.5 63.5t-60.5 25.5q-38 0 -61.5 -25.5t-23.5 -63.5t23.5 -63.5t61.5 -25.5zM179 -119q-33 0 -61.5 12t-49.5 32.5t-33 49t-12 61.5t12 61.5t33 49t49.5 32.5t61.5 12t61.5 -12t49 -32.5t32.5 -49t12 -61.5t-12 -61.5t-32.5 -49
t-49 -32.5t-61.5 -12z" />
    <glyph glyph-name="p.inferior" horiz-adv-x="365" 
d="M41 186h69v-20q15 11 34.5 18t42.5 7q33 0 61.5 -12t49 -32.5t32 -49t11.5 -61.5t-11.5 -61.5t-32 -49t-49 -32.5t-61.5 -12q-46 0 -77 25v-130h-69v410zM186 125q-23 0 -43.5 -10.5t-32.5 -27.5v-102q12 -17 32.5 -27.5t43.5 -10.5q38 0 61.5 25.5t23.5 63.5t-23.5 63.5
t-61.5 25.5z" />
    <glyph glyph-name="q.inferior" horiz-adv-x="365" 
d="M255 -95q-32 -24 -77 -24q-33 0 -61.5 12t-49.5 32.5t-32.5 49t-11.5 61.5t11.5 61.5t32.5 49t49.5 32.5t61.5 12q23 0 42.5 -7t34.5 -18v20h69v-410h-69v129zM179 -53q23 0 43.5 10.5t32.5 27.5v101q-12 18 -32.5 28.5t-43.5 10.5q-38 0 -61.5 -25.5t-23.5 -63.5
t23.5 -63.5t61.5 -25.5z" />
    <glyph glyph-name="r.inferior" horiz-adv-x="221" 
d="M41 186h69v-28q28 32 76 32h11.5t10.5 -1v-73q-15 5 -34 5q-20 0 -37 -8t-27 -26v-201h-69v300z" />
    <glyph glyph-name="s.inferior" horiz-adv-x="250" 
d="M123 -119q-36 0 -65 15t-48 47l53 37q11 -18 24 -27.5t36 -9.5q16 0 25.5 7t9.5 18q0 12 -9 20t-29 16l-20 8q-74 29 -74 93q0 38 27.5 62t69.5 24q29 0 53.5 -12t41.5 -40l-51 -36q-14 26 -42 26q-12 0 -21.5 -5.5t-9.5 -16.5t8.5 -18.5t28.5 -15.5l21 -8
q38 -15 58.5 -36.5t20.5 -57.5q0 -40 -30 -65t-78 -25z" />
    <glyph glyph-name="t.inferior" horiz-adv-x="233" 
d="M-2 186h58v56l69 36v-92h77l-10 -61h-67v-131q0 -23 8.5 -34t34.5 -11h41v-63h-61q-43 0 -67.5 24.5t-24.5 67.5v147h-46z" />
    <glyph glyph-name="u.inferior" horiz-adv-x="350" 
d="M239 -89q-16 -16 -37.5 -23t-44.5 -7q-57 0 -90 36t-33 95v174h69v-173q0 -11 4.5 -23t13 -21.5t21 -15.5t28.5 -6q48 0 69 47v192h69v-300h-69v25z" />
    <glyph glyph-name="v.inferior" horiz-adv-x="326" 
d="M-2 186h77l88 -171l87 171h79l-166 -305z" />
    <glyph glyph-name="w.inferior" horiz-adv-x="435" 
d="M7 186h72l60 -196l78 201l79 -201l59 196h73l-95 -300h-52l-64 157l-62 -157h-53z" />
    <glyph glyph-name="x.inferior" horiz-adv-x="327" 
d="M119 38l-106 148h80l71 -100l71 100h79l-107 -148l113 -152h-80l-77 105l-76 -105h-80z" />
    <glyph glyph-name="y.inferior" horiz-adv-x="308" 
d="M118 -100l-117 286h74l79 -205l80 205h73l-169 -410h-72z" />
    <glyph glyph-name="z.inferior" horiz-adv-x="304" 
d="M171 125h-141v61h260l-160 -239h151v-61h-270z" />
    <glyph glyph-name="zero.slashed.inferior" horiz-adv-x="383" 
d="M192 -120q-36 0 -65 12.5t-49.5 34.5t-31.5 52.5t-11 66.5v103q0 37 11 67.5t31.5 52.5t49.5 34.5t65 12.5q35 0 64 -12.5t49.5 -34.5t31.5 -52.5t11 -67.5v-103q0 -36 -11 -66.5t-31.5 -52.5t-49.5 -34.5t-64 -12.5zM192 -56q38 0 62.5 26t24.5 72v80l-173 -106
q7 -34 30 -53t56 -19zM104 76l172 106q-8 34 -30.5 52t-53.5 18q-39 0 -63.5 -25.5t-24.5 -72.5v-78z" />
    <glyph glyph-name="period.inferior" horiz-adv-x="174" 
d="M87 -119q-23 0 -38.5 15.5t-15.5 38.5q0 22 15.5 37.5t38.5 15.5q22 0 37.5 -15.5t15.5 -37.5q0 -23 -15.5 -38.5t-37.5 -15.5z" />
    <glyph glyph-name="hyphen.inferior" horiz-adv-x="209" 
d="M26 126h157v-68h-157v68z" />
    <glyph glyph-name="comma.inferior" horiz-adv-x="163" 
d="M74 -114h-36v87h87v-87l-36 -88h-42z" />
    <glyph glyph-name="equal.inferior" horiz-adv-x="322" 
d="M29 57h264v-55h-264v55zM29 183h264v-54h-264v54z" />
    <glyph glyph-name="plus.inferior" horiz-adv-x="319" 
d="M29 120h103v101h55v-101h103v-55h-103v-103h-55v103h-103v55z" />
    <glyph glyph-name="minus.inferior" horiz-adv-x="319" 
d="M29 120h261v-55h-261v55z" />
    <glyph glyph-name="one.numerator" horiz-adv-x="232" 
d="M68 650l69 70v-436h-69v366z" />
    <glyph glyph-name="two.numerator" horiz-adv-x="355" 
d="M30 344l165 154q19 17 33.5 39.5t14.5 46.5q0 29 -18.5 48t-49.5 19q-29 0 -50.5 -21.5t-26.5 -50.5l-66 16q12 55 51.5 87.5t93.5 32.5q29 0 53.5 -10t42.5 -27t28.5 -41t10.5 -52q0 -44 -22.5 -76t-54.5 -63l-103 -97h182v-65h-284v60z" />
    <glyph glyph-name="three.numerator" horiz-adv-x="331" 
d="M160 279q-38 0 -71.5 16t-53.5 45l50 42q11 -17 29.5 -28t43.5 -11q35 0 57.5 21t22.5 58q0 35 -22.5 57.5t-60.5 22.5h-40l77 143h-139v65h242l-82 -155q45 -14 70 -48.5t25 -84.5q0 -65 -40.5 -104t-107.5 -39z" />
    <glyph glyph-name="four.numerator" horiz-adv-x="324" 
d="M194 392h-229l297 328v-267h49v-61h-49v-108h-68v108zM194 453v104l-94 -104h94z" />
    <glyph glyph-name="five.numerator" horiz-adv-x="343" 
d="M173 279q-38 0 -73.5 16t-54.5 45l51 44q11 -17 30 -29t44 -12q35 0 56 22t21 54t-20.5 55t-57.5 23q-23 0 -38.5 -10t-23.5 -24l-45 20v227h223v-65h-154v-91q9 3 19.5 5t22.5 2q33 0 59.5 -10.5t45.5 -29.5t29 -45t10 -57q0 -62 -39 -101t-105 -39z" />
    <glyph glyph-name="six.numerator" horiz-adv-x="334" 
d="M167 279q-31 0 -57 11t-45.5 29.5t-30.5 44t-11 55.5q0 22 7.5 41.5t18.5 37.5l121 212h77l-90 -154q8 2 17 2q28 0 53 -11t44 -30t29.5 -44.5t10.5 -53.5q0 -30 -11 -55.5t-30.5 -44t-45.5 -29.5t-57 -11zM167 343q34 0 54 22.5t20 53.5q0 30 -20 52.5t-54 22.5
t-54 -22.5t-20 -52.5q0 -31 20 -53.5t54 -22.5z" />
    <glyph glyph-name="seven.numerator" horiz-adv-x="266" 
d="M197 645h-182v65h286l-199 -426h-75z" />
    <glyph glyph-name="eight.numerator" horiz-adv-x="367" 
d="M183 279q-31 0 -57.5 10.5t-46 29t-30.5 43.5t-11 54q0 37 17 66t46 46q-30 28 -30 74q0 24 8.5 44.5t23.5 35.5t35.5 24t44.5 9t45 -9t36.5 -24t24 -35.5t8.5 -44.5q0 -23 -8.5 -42t-22.5 -33q29 -17 46 -45.5t17 -65.5q0 -29 -11 -54t-30.5 -43.5t-46.5 -29t-58 -10.5z
M183 343q35 0 56 21.5t21 51.5q0 31 -21 52.5t-56 21.5q-34 0 -54.5 -21.5t-20.5 -52.5q0 -30 20.5 -51.5t54.5 -21.5zM183 554q22 0 35.5 14t13.5 34q0 21 -13.5 35t-35.5 14q-21 0 -34 -14t-13 -35q0 -20 13 -34t34 -14z" />
    <glyph glyph-name="nine.numerator" horiz-adv-x="333" 
d="M177 439q-8 -2 -17 -2q-29 0 -53.5 11t-43.5 30t-29.5 44.5t-10.5 53.5q0 29 11 54.5t30 44t45.5 29.5t57.5 11t57 -11t45 -29.5t30 -44t11 -54.5q0 -22 -7.5 -42t-18.5 -38l-121 -212h-77zM167 501q33 0 53.5 22.5t20.5 52.5q0 31 -20.5 53t-53.5 22q-35 0 -55 -22
t-20 -53q0 -30 20 -52.5t55 -22.5z" />
    <glyph glyph-name="zero.numerator" horiz-adv-x="401" 
d="M201 279q-36 0 -65 12.5t-49.5 34.5t-31.5 52.5t-11 66.5v103q0 37 11 67.5t31.5 52.5t49.5 34.5t65 12.5q35 0 64 -12.5t49.5 -34.5t31.5 -52.5t11 -67.5v-103q0 -36 -11 -66.5t-31.5 -52.5t-49.5 -34.5t-64 -12.5zM201 343q38 0 62.5 26t24.5 72v112q0 47 -24.5 72.5
t-62.5 25.5q-39 0 -63.5 -25.5t-24.5 -72.5v-112q0 -46 24.5 -72t63.5 -26z" />
    <glyph glyph-name="zero.slashed.numerator" horiz-adv-x="401" 
d="M201 279q-36 0 -65 12.5t-49.5 34.5t-31.5 52.5t-11 66.5v103q0 37 11 67.5t31.5 52.5t49.5 34.5t65 12.5q35 0 64 -12.5t49.5 -34.5t31.5 -52.5t11 -67.5v-103q0 -36 -11 -66.5t-31.5 -52.5t-49.5 -34.5t-64 -12.5zM201 343q38 0 62.5 26t24.5 72v80l-173 -106
q7 -35 30 -53.5t56 -18.5zM113 475l172 106q-8 34 -30.5 52t-53.5 18q-39 0 -63.5 -25.5t-24.5 -72.5v-78z" />
    <glyph glyph-name="one.denominator" horiz-adv-x="232" 
d="M68 366l69 70v-436h-69v366z" />
    <glyph glyph-name="two.denominator" horiz-adv-x="355" 
d="M30 61l165 154q19 17 33.5 39.5t14.5 46.5q0 29 -18.5 48t-49.5 19q-29 0 -50.5 -21.5t-26.5 -50.5l-66 16q12 55 51.5 87.5t93.5 32.5q29 0 53.5 -10t42.5 -27t28.5 -41t10.5 -52q0 -44 -22.5 -76t-54.5 -63l-103 -97h182v-65h-284v60z" />
    </font>
</defs>
</svg>
